<?xml version="1.0" standalone="no"?>
<!DOCTYPE svg PUBLIC "-//W3C//DTD SVG 1.1//EN" "http://www.w3.org/Graphics/SVG/1.1/DTD/svg11.dtd" >
<svg xmlns="http://www.w3.org/2000/svg" xmlns:xlink="http://www.w3.org/1999/xlink" version="1.1">
<metadata>
Created by FontForge 20201107 at Tue Oct  9 19:37:44 2012
 By 
Copyright (c) Digital vers. by A.Gophmann on base font from book 'Art and Fonts 1929', 2012. All rights reserved.
</metadata>
<defs>
<font id="AngelusMedieval" horiz-adv-x="450" >
  <font-face 
    font-family="Angelus Medieval"
    font-weight="500"
    font-stretch="normal"
    units-per-em="1000"
    panose-1="2 0 6 3 0 0 0 0 0 0"
    ascent="800"
    descent="-200"
    x-height="419"
    cap-height="662"
    bbox="-51 -259 1173 855.75"
    underline-thickness="50"
    underline-position="-150"
    unicode-range="U+0020-2116"
  />
<missing-glyph horiz-adv-x="500" 
d="M50 533h400v-533h-400v533zM400 50v433h-300v-433h300z" />
    <glyph glyph-name=".notdef" horiz-adv-x="500" 
d="M50 533h400v-533h-400v533zM400 50v433h-300v-433h300z" />
    <glyph glyph-name=".null" horiz-adv-x="0" 
 />
    <glyph glyph-name="nonmarkingreturn" horiz-adv-x="333" 
 />
    <glyph glyph-name="space" unicode=" " horiz-adv-x="283" 
 />
    <glyph glyph-name="exclam" unicode="!" horiz-adv-x="276" 
d="M138 680q35 0 60 -23.5t25 -58.5l-76 -422h-18l-76 422q0 35 25 58.5t60 23.5zM64 73q0 31 21.5 52.5t52.5 21.5t52.5 -21.5t21.5 -52.5t-21.5 -52.5t-52.5 -21.5t-52.5 21.5t-21.5 52.5z" />
    <glyph glyph-name="quotedbl" unicode="&#x22;" horiz-adv-x="403" 
d="M373 599q0 -33 -16.5 -62.5t-39 -53t-46 -39t-38.5 -19.5v14q5 2 18.5 12t27.5 24.5t25 32.5t11 37t-9.5 22.5t-21.5 3.5q-23 0 -39.5 17t-16.5 40q0 28 20.5 45.5t48.5 17.5q18 0 32 -8t23.5 -20.5t15 -29t5.5 -34.5zM175 599q0 -33 -16.5 -62.5t-39 -53t-46 -39
t-38.5 -19.5v14q5 2 18.5 12t27.5 24.5t25 32.5t11 37t-9.5 22.5t-21.5 3.5q-23 0 -39.5 17t-16.5 40q0 28 20.5 45.5t48.5 17.5q18 0 32 -8t23.5 -20.5t15 -29t5.5 -34.5z" />
    <glyph glyph-name="numbersign" unicode="#" horiz-adv-x="699" 
d="M339 469h118l68 192h80l-68 -192h128l-26 -73h-128l-40 -115h135l-26 -74h-135l-67 -191h-81l68 191h-118l-68 -191h-81l68 191h-132l26 74h132l41 115h-140l27 73h139l68 192h80zM312 396l-41 -116h121l41 116h-121z" />
    <glyph glyph-name="dollar" unicode="$" horiz-adv-x="506" 
d="M227 -35v52q-47 4 -83 17t-61.5 32t-38.5 42.5t-13 48.5q0 30 17 47.5t47 17.5q29 0 45 -17t16 -46q0 -11 -2 -20.5t-2 -19.5q0 -60 75 -69v235q-88 30 -131 75.5t-43 112.5q0 35 12 66.5t34.5 56t55 40.5t72.5 22v26h43v-25q86 -5 132.5 -41t46.5 -86q0 -26 -15.5 -42.5
t-42.5 -16.5t-44 20t-17 55q0 2 0.5 4.5t0.5 4.5q0 32 -14.5 48.5t-46.5 19.5v-211q204 -60 204 -208q0 -85 -53 -136t-151 -56v-49h-43zM227 625q-44 -6 -68 -31.5t-24 -60.5q0 -38 22 -62.5t70 -41.5v196zM270 51q117 12 117 103q0 45 -28.5 72t-88.5 44v-219v0z" />
    <glyph glyph-name="percent" unicode="%" horiz-adv-x="803" 
d="M443 145q0 41 18 82t48 74t68 53.5t78 20.5q57 0 90.5 -34.5t33.5 -96.5q0 -39 -15 -80.5t-41.5 -75t-62 -55t-76.5 -21.5q-30 0 -55.5 10.5t-44.5 29t-30 42.5t-11 51zM682 334q-30 0 -56.5 -29t-46 -67.5t-31 -76.5t-11.5 -55q0 -26 15 -41.5t42 -15.5q33 0 61 21
t48.5 52t32.5 66.5t12 64.5q0 37 -19 59t-47 22zM508 561q-54 -26 -98 -26q-26 0 -54 6q2 -10 2.5 -18t0.5 -18q0 -40 -15.5 -80.5t-42.5 -72.5t-62 -52.5t-74 -20.5q-30 0 -55.5 10.5t-44.5 28.5t-30 42.5t-11 53.5q0 41 18.5 81.5t48.5 72.5t68 52t77 20q36 0 61 -13.5
t46 -44.5q19 -5 34.5 -8t27.5 -3q43 0 78 17.5t70 52.5h55l-355 -641h-55zM253 596q-28 -4 -52 -32.5t-42 -64t-28.5 -70.5t-10.5 -53q0 -62 54 -62q30 0 58 20.5t49 50.5t33.5 63.5t12.5 59.5q0 11 -2 22t-6 25q-32 12 -66 41z" />
    <glyph glyph-name="ampersand" unicode="&#x26;" horiz-adv-x="688" 
d="M269 640q-20 0 -35 -14t-15 -34q0 -16 4 -27t12 -24l75 -115q2 1 10.5 10.5t17.5 23.5t16.5 31t7.5 33q0 22 -8.5 42.5t-22 37t-30 26.5t-32.5 10zM212 355q-18 -16 -32 -36q-12 -17 -22 -40.5t-10 -51.5q0 -34 12 -64t33 -53t49.5 -36.5t62.5 -13.5q22 0 38.5 4.5
t28.5 10.5q13 6 24 15zM459 0l-51 71q-5 -6 -23 -20t-44.5 -28t-59.5 -24.5t-68 -10.5q-36 0 -69.5 12.5t-59 34.5t-41 52t-15.5 66q0 46 21.5 83t50 64.5t57.5 45t44 24.5q-3 6 -11 20t-16.5 33t-14.5 41.5t-6 43.5q0 32 11 61t31 50.5t47 34.5t59 13q25 0 47 -9t38.5 -24
t26.5 -36t10 -45q0 -26 -13.5 -51t-30.5 -45t-33 -34t-21 -17l160 -230q4 4 14 20t10 34q0 23 -10.5 39.5t-23 31.5t-23 31t-10.5 38q0 25 18.5 44t44.5 19q19 0 33.5 -9t24.5 -23.5t15 -32.5t5 -37q0 -29 -12 -59t-27 -55.5t-28.5 -42.5t-15.5 -20l65 -88q9 -12 22 -20.5
t27 -13.5t27.5 -7.5t23.5 -2.5v-22h-206z" />
    <glyph glyph-name="quotesingle" unicode="'" horiz-adv-x="227" 
d="M186 599q0 -33 -16.5 -62.5t-39 -53t-46 -39t-38.5 -19.5v14q5 2 18.5 12t27.5 24.5t25 32.5t11 37t-9.5 22.5t-21.5 3.5q-23 0 -39.5 17t-16.5 40q0 28 20.5 45.5t48.5 17.5q18 0 32 -8t23.5 -20.5t15 -29t5.5 -34.5z" />
    <glyph glyph-name="parenleft" unicode="(" horiz-adv-x="344" 
d="M293 -108q-114 65 -174.5 168.5t-60.5 230.5q0 126 60.5 230t174.5 169v-27q-43 -27 -69 -62.5t-39.5 -81t-18 -102t-4.5 -126.5t4.5 -126.5t18 -102t39.5 -81t69 -62.5v-27z" />
    <glyph glyph-name="parenright" unicode=")" horiz-adv-x="344" 
d="M51 -81q43 27 69 62.5t39.5 81t18 102t4.5 126.5t-4.5 126.5t-18 102t-39.5 81t-69 62.5v27q114 -65 174.5 -169t60.5 -230q0 -127 -60.5 -230.5t-174.5 -168.5v27v0z" />
    <glyph glyph-name="asterisk" unicode="*" horiz-adv-x="478" 
d="M222 469q-21 10 -41 14t-37.5 6t-32 4.5t-24.5 8.5q-17 11 -22 28t6 36q11 20 28.5 25t35.5 -6q10 -6 19 -17.5t19.5 -26t24 -29.5t32.5 -28q-2 23 -8 42t-13 35.5t-12 30t-5 25.5q0 20 12.5 33t34.5 13q23 0 35.5 -12.5t12.5 -33.5q0 -12 -5.5 -25.5t-12 -30t-13 -35.5
t-8.5 -42q19 13 32.5 28t24.5 29t20 25.5t19 17.5q17 11 34.5 6t28.5 -24q11 -20 6.5 -37t-22.5 -28q-11 -6 -25.5 -8t-31.5 -4t-37 -6t-41 -14q21 -10 41 -14t37.5 -6.5t32 -4.5t24.5 -8q17 -11 22 -28t-6 -36q-11 -20 -28.5 -25t-35.5 6q-11 6 -19.5 17.5t-19 26t-24 29.5
t-32.5 28q2 -23 8 -42t13 -35.5t12 -30t5 -25.5q0 -20 -12.5 -33t-34.5 -13q-23 0 -35.5 12.5t-12.5 33.5q0 12 5.5 25.5t12 30t13 35.5t8.5 42q-19 -13 -32.5 -28t-24.5 -29t-20 -25.5t-19 -17.5q-17 -11 -34.5 -6t-28.5 24q-11 20 -6.5 37t22.5 28q10 6 25 8t32 4t37 6
t41 14z" />
    <glyph glyph-name="plus" unicode="+" horiz-adv-x="665" 
d="M370 335h226v-73h-226v-232h-75v232h-226v73h226v231h75v-231z" />
    <glyph glyph-name="comma" unicode="," horiz-adv-x="251" 
d="M195 47q0 -34 -14.5 -64t-36 -53.5t-48 -39.5t-50.5 -22v14q14 4 28.5 13.5t26.5 22t19.5 29t7.5 35.5q0 11 -3.5 21.5t-14.5 10.5q-25 0 -43 13.5t-18 44.5t20 53t51 22q15 0 29 -8.5t24 -23t16 -32.5t6 -36z" />
    <glyph glyph-name="hyphen" unicode="-" horiz-adv-x="332" 
d="M41 292h250v-116h-250v116z" />
    <glyph glyph-name="period" unicode="." horiz-adv-x="272" 
d="M62 73q0 31 21.5 52.5t52.5 21.5t52.5 -21.5t21.5 -52.5t-21.5 -52.5t-52.5 -21.5t-52.5 21.5t-21.5 52.5z" />
    <glyph glyph-name="slash" unicode="/" horiz-adv-x="278" 
d="M244 734h58l-296 -827h-57z" />
    <glyph glyph-name="zero" unicode="0" horiz-adv-x="514" 
d="M259 658q-34 0 -52 -31.5t-26.5 -79t-9.5 -103.5t-1 -106t1 -109t9.5 -110t26.5 -85t52 -34t52 33t26 82.5t9.5 107t1.5 107.5t-1.5 107.5t-9.5 106.5t-26 81.5t-52 32.5zM255 678q59 0 102 -32.5t71.5 -83.5t42.5 -113t14 -120t-13 -120t-41 -113t-70.5 -83.5
t-101.5 -32.5t-102 32.5t-71.5 83.5t-42.5 113t-14 120t13 120t41 113t70.5 83.5t101.5 32.5z" />
    <glyph glyph-name="one" unicode="1" horiz-adv-x="366" 
d="M86 21q7 3 16 8t16.5 12.5t12.5 17t5 20.5v416q0 16 -8 31t-21 26.5t-29.5 19t-33.5 9.5v8q64 8 119 30.5t107 51.5v-574q2 -34 14.5 -49t27.5 -26v-22h-226v22v-1z" />
    <glyph glyph-name="two" unicode="2" horiz-adv-x="485" 
d="M151 153q12 15 36 48.5t48 78.5t42 97t18 105q0 29 -6 58.5t-19 53t-33.5 38.5t-49.5 15q-28 0 -49 -18.5t-21 -46.5q0 -16 6.5 -28t14.5 -23t14.5 -23t6.5 -28q0 -24 -14 -43t-38 -19q-32 0 -50 25t-18 57q0 37 15 68t40.5 53.5t58.5 35.5t70 13q41 0 79 -14.5t66.5 -40
t45.5 -61t17 -76.5q0 -45 -18 -85.5t-46.5 -76.5t-62.5 -66.5t-66 -55.5t-58 -44t-37 -32h218q8 0 17.5 5.5t19 14.5t18 20.5t14.5 23.5h12l-46 -182h-372z" />
    <glyph glyph-name="three" unicode="3" horiz-adv-x="516" 
d="M455 661l-179 -224q6 2 16.5 3t20.5 1q35 0 63 -15.5t47.5 -41t30 -58.5t10.5 -68q0 -44 -13 -85t-37 -75t-57 -59.5t-72 -38.5q-17 -5 -35 -8.5t-38 -3.5q-33 0 -66.5 10t-60 28t-43 42.5t-16.5 52.5q0 25 16 44t41 18q26 -1 42 -19.5t22 -44.5q4 -17 8.5 -35.5
t13.5 -34t24 -25.5t39 -10q25 0 45 11q19 10 33.5 28.5t23.5 42t13.5 49t5.5 51.5q1 27 -6.5 54t-22 48.5t-36 34.5t-48.5 13q-21 0 -35 -7.5t-34 -13.5l-7 7l174 216h-162q-20 0 -35 -6t-27 -14.5t-20.5 -18.5t-14.5 -18l-8 5l49 179q2 -5 6 -8.5t20 -4.5z" />
    <glyph glyph-name="four" unicode="4" horiz-adv-x="465" 
d="M125 22q21 0 40.5 3.5t34 12t23.5 23t9 37.5v88h-214q24 42 45 89.5t35.5 105t21 126.5t2.5 155h152q-23 -65 -49.5 -133t-56 -129.5t-60.5 -111.5t-62 -80h186v180q0 12 -7.5 20t-18.5 12q22 12 43.5 33t41 46t35.5 53t26 54v-398h96v-22h-96v-88q0 -23 10 -37.5
t24.5 -23t31 -12t30.5 -3.5v-22h-323v22v0z" />
    <glyph glyph-name="five" unicode="5" horiz-adv-x="465" 
d="M365 662q11 0 22 6.5t19 16.5q-2 -12 -8.5 -34.5t-15.5 -45t-20.5 -39t-24.5 -16.5h-209l-20 -92q9 0 19 1q8 1 18 1.5t18 0.5q57 0 104.5 -17t82 -48t53.5 -73t19 -93q0 -48 -17 -92t-47 -77.5t-71.5 -53t-89.5 -19.5q-31 0 -62 9t-56.5 25t-41.5 36.5t-16 44.5
q0 23 15.5 41t38.5 18q31 0 47 -17.5t24 -41.5q5 -16 10.5 -32t13.5 -29t21.5 -21t35.5 -8q24 0 43.5 10t33.5 26.5t21.5 38t7.5 45.5q0 54 -18 93.5t-48 66t-70 39t-85 12.5q-14 0 -23 -1t-23 -2l68 321h231z" />
    <glyph glyph-name="six" unicode="6" horiz-adv-x="502" 
d="M461 647q-68 0 -122 -30.5t-91.5 -81t-58 -115t-20.5 -131.5q0 -44 6.5 -92.5t21.5 -88.5t39.5 -66t60.5 -26q21 0 37 11t26.5 28t15.5 39t5 43q0 37 -10.5 75.5t-28.5 70t-43.5 51t-55.5 19.5q-35 0 -52 -30l-10 4q5 19 18 38t31.5 34t41.5 24.5t49 9.5q36 0 65 -16.5
t49.5 -44t31 -62.5t10.5 -71q0 -48 -16.5 -93t-44.5 -80t-66.5 -56.5t-81.5 -21.5q-54 0 -98 23.5t-74.5 62t-47.5 88.5t-17 103q0 85 35 158.5t94 127t137 84t164 30.5v-18z" />
    <glyph glyph-name="seven" unicode="7" horiz-adv-x="462" 
d="M441 662l-28 -94l-12 -20q-54 -56 -83.5 -121t-42.5 -135.5t-12.5 -144t8.5 -147.5h-152q2 37 9.5 82.5t22 95t35.5 100.5t49 99.5t63.5 92.5t78.5 78h-238q-17 0 -28.5 -1t-20.5 -5t-17.5 -11t-19.5 -20l-3 73l32 96q5 -10 12.5 -14t15.5 -4h331z" />
    <glyph glyph-name="eight" unicode="8" horiz-adv-x="480" 
d="M166 344q-7 -3 -17.5 -13t-20.5 -24.5t-17 -31.5t-7 -34q0 -28 15.5 -64.5t42.5 -68.5t63 -54.5t77 -22.5q33 0 54.5 24.5t21.5 57.5q0 24 -14 49t-35.5 48.5t-47 45t-49 39t-42 30.5t-24.5 19zM233 550q-15 5 -29.5 19t-14.5 34q0 18 8.5 32t23 23.5t32 14.5t35.5 5
q26 0 48 -10.5t38.5 -28t26 -40.5t9.5 -49q0 -27 -12 -51.5t-28.5 -44.5t-34.5 -33.5t-29 -18.5q15 -9 38.5 -26.5t46 -42t39 -55t16.5 -64.5q0 -45 -16 -86t-44.5 -72t-67.5 -49t-84 -18q-41 0 -79.5 13t-68.5 37t-48 57.5t-18 74.5q0 33 17 64.5t39.5 57t44 42.5t29.5 21
q-9 6 -26 21.5t-33.5 38t-28.5 51t-12 60.5t12 59t31.5 47t43 32t47.5 15v-9q-6 -2 -13.5 -9t-14.5 -17t-11.5 -22.5t-4.5 -24.5q0 -32 20.5 -61.5t46.5 -54t51 -42.5t34 -27q7 2 18 11.5t21.5 24t18.5 32t8 35.5q0 32 -18 57t-50 25q-17 0 -35.5 -10.5t-18.5 -26.5
q0 -6 3 -12h-6v1z" />
    <glyph glyph-name="nine" unicode="9" horiz-adv-x="504" 
d="M235 670q54 0 98 -24t75 -63.5t48 -91t17 -105.5q0 -61 -18.5 -115.5t-49.5 -99.5t-73 -80.5t-89 -59t-96.5 -35.5t-95.5 -10v20q64 3 117 34t90.5 80.5t58 112t20.5 129.5q0 45 -7.5 94.5t-24 90t-42 67t-62.5 26.5q-21 0 -36 -10.5t-25 -27.5t-14.5 -38t-4.5 -42
q0 -38 8 -76t25.5 -68.5t44 -50t64.5 -19.5q17 0 31.5 9t18.5 21h9q-3 -16 -13.5 -35.5t-28 -37t-41 -29.5t-52.5 -12q-38 0 -68 17t-51 45.5t-32 64t-11 73.5q0 47 16 91.5t44 79t66.5 55t83.5 20.5z" />
    <glyph glyph-name="colon" unicode=":" horiz-adv-x="274" 
d="M64 368q0 31 21.5 52.5t52.5 21.5t52.5 -21.5t21.5 -52.5t-21.5 -52.5t-52.5 -21.5t-52.5 21.5t-21.5 52.5zM62 73q0 31 21.5 52.5t52.5 21.5t52.5 -21.5t21.5 -52.5t-21.5 -52.5t-52.5 -21.5t-52.5 21.5t-21.5 52.5z" />
    <glyph glyph-name="semicolon" unicode=";" horiz-adv-x="273" 
d="M62 368q0 31 21.5 52.5t52.5 21.5t52.5 -21.5t21.5 -52.5t-21.5 -52.5t-52.5 -21.5t-52.5 21.5t-21.5 52.5zM211 47q0 -34 -14.5 -64t-36 -53.5t-48 -39.5t-50.5 -22v14q14 4 28.5 13.5t26.5 22t19.5 29t7.5 35.5q0 11 -3.5 21.5t-14.5 10.5q-25 0 -43 13.5t-18 44.5
t20 53t51 22q15 0 29 -8.5t24 -23t16 -32.5t6 -36z" />
    <glyph glyph-name="less" unicode="&#x3c;" horiz-adv-x="833" 
d="M280 298l370 -150v-72l-466 191v63l466 192v-74z" />
    <glyph glyph-name="equal" unicode="=" horiz-adv-x="833" 
d="M652 347h-473v67h473v-67zM652 184h-473v66h473v-66z" />
    <glyph glyph-name="greater" unicode="&#x3e;" horiz-adv-x="833" 
d="M650 267l-466 -191v72l369 150l-369 150v74l466 -192v-63z" />
    <glyph glyph-name="question" unicode="?" horiz-adv-x="542" 
d="M205 355q0 36 17 56t62 25q17 1 32.5 10t27 23t18 31.5t6.5 37.5q0 21 -6.5 42t-17.5 38t-25.5 27.5t-29.5 10.5q-26 0 -42.5 -19.5t-32.5 -43.5t-34.5 -43.5t-48.5 -19.5q-26 0 -43.5 19t-17.5 45q0 22 14 39.5t35.5 29.5t48.5 18.5t53 6.5q50 0 95.5 -18t80 -49.5
t55 -74.5t20.5 -93q0 -38 -15 -65.5t-37.5 -45t-49 -26t-50.5 -8.5q-47 0 -64.5 -15t-20.5 -33l-15 -84h-15v179zM137 73q0 31 21.5 52.5t52.5 21.5t52.5 -21.5t21.5 -52.5t-21.5 -52.5t-52.5 -21.5t-52.5 21.5t-21.5 52.5z" />
    <glyph glyph-name="A" unicode="A" horiz-adv-x="754" 
d="M205 264h230l-112 313zM431 662l204 -564q11 -32 40.5 -54t65.5 -22v-22h-341v22q15 0 34 5.5t34.5 16t23 27t-0.5 38.5l-42 119h-256l-22 -81q-2 -9 2 -29.5t14.5 -42t28 -37.5t41.5 -16v-22h-253v22q19 0 40 16.5t40 39t33 46t19 37.5l195 501h100z" />
    <glyph glyph-name="B" unicode="B" horiz-adv-x="746" 
d="M37 22q18 0 36 3.5t32 12.5t23 24t9 38v462q0 23 -9 39.5t-23 27t-32 15t-36 4.5v14h316q18 0 47.5 -4t62.5 -12.5t67.5 -21.5t61.5 -31.5t44.5 -42.5t17.5 -54q0 -34 -22 -59t-51.5 -41.5t-59 -25.5t-44.5 -10q29 -4 67 -16t72.5 -34.5t58.5 -56.5t24 -83q0 -44 -24 -76
t-60.5 -53t-79 -31t-79.5 -10h-419v22zM376 377q27 0 53 9.5t46.5 26t33.5 40t13 51.5q0 31 -16 55t-40.5 40.5t-54.5 25t-58 8.5q-18 0 -36 -4t-32 -12t-23 -22t-9 -33v-185h123v0zM253 100q0 -47 18 -62.5t54 -15.5h87q26 0 53 12.5t48.5 34t34.5 50t13 60.5q-2 36 -19 67
t-43 53.5t-57.5 35t-62.5 12.5h-126v-247z" />
    <glyph glyph-name="C" unicode="C" horiz-adv-x="632" 
d="M548 672q1 -56 15.5 -108t44.5 -100q-30 -5 -52.5 2.5t-41 22.5t-34.5 34.5t-31 40.5q-13 17 -26.5 33t-29 28.5t-34 20t-41.5 7.5q-42 0 -69 -23t-43.5 -59t-23 -79.5t-6.5 -85.5q0 -59 18 -114t51.5 -98.5t80.5 -69.5t106 -26q60 0 98.5 32t67.5 88l10 -9
q-16 -50 -40.5 -91.5t-57 -71t-74 -46t-92.5 -16.5q-73 0 -128 28.5t-92.5 76t-56.5 109.5t-19 130q0 66 20 128.5t57.5 111.5t90.5 78.5t119 29.5q23 0 47.5 -4.5t46 -9.5t38 -9.5t24.5 -4.5q18 0 29 8.5t28 15.5z" />
    <glyph glyph-name="D" unicode="D" horiz-adv-x="727" 
d="M260 100q0 -23 7.5 -38t19.5 -23.5t28 -11.5t33 -3q48 0 81.5 25t54.5 65t30.5 89t9.5 97q0 39 -7.5 79t-21 78t-31.5 71t-40 58.5t-47 40t-51 15.5q-28 1 -47 -19t-19 -51v-472zM346 662q62 0 122 -32t107 -85t76 -122t29 -143q0 -64 -21.5 -115.5t-54.5 -88
t-72.5 -56.5t-76.5 -20h-423v22q18 0 36 3.5t32 12.5t23 24t9 38v462q0 23 -9 39.5t-23 27t-32 15t-36 4.5v14h314z" />
    <glyph glyph-name="E" unicode="E" horiz-adv-x="695" 
d="M657 181q-29 -49 -44 -101.5t-21 -107.5q-36 20 -73 24t-71 4h-410v22q18 0 36 3.5t32 12.5t23 24t9 38v462q0 23 -9 39.5t-23 27t-32 15t-36 4.5v14h542q1 -42 8.5 -85t39.5 -89l-1 -9q-33 7 -55.5 18.5t-40.5 26.5t-33 31.5t-31 34.5q-16 17 -36 30.5t-46 13.5h-60
q-10 0 -20.5 -4.5t-19 -12.5t-14 -19.5t-5.5 -25.5v-202h137q27 -2 44.5 8t34.5 23t37.5 26t53.5 18q-16 -40 -16.5 -89t16.5 -94q-18 -2 -39.5 10.5t-44 28.5t-44.5 29.5t-42 13.5h-137v-267q0 -14 6.5 -24t16 -16.5t19.5 -9.5t17 -3h78q18 1 34.5 13t33 29.5t34.5 37.5
t40 37t49.5 28.5t62.5 11.5z" />
    <glyph glyph-name="F" unicode="F" horiz-adv-x="640" 
d="M38 22q18 0 36 3.5t32 12.5t23 24t9 38v462q0 23 -9 39.5t-23 27t-32 15t-36 4.5v14h542q1 -42 8.5 -85t39.5 -89q-33 7 -56 17.5t-41 23t-33 28t-31 33.5q-16 17 -36 30.5t-46 13.5h-60q-10 0 -20.5 -4.5t-19 -12.5t-14 -19.5t-5.5 -25.5v-202h137q27 -2 44.5 8t34.5 23
t37.5 26t53.5 18q-16 -40 -16.5 -89t16.5 -94q-18 -2 -39.5 10.5t-44 28.5t-44.5 29.5t-42 13.5h-137v-244q0 -23 9 -38t23 -24t32 -12.5t36 -3.5v-22h-328v22z" />
    <glyph glyph-name="G" unicode="G" horiz-adv-x="758" 
d="M49 318q0 69 22.5 132.5t63 113t97.5 79t126 29.5q38 0 61 -3t39 -7t28.5 -7t29.5 -3q26 0 43 7t43 13q-11 -53 -3 -105t43 -105q-38 5 -67 21t-52.5 37t-43 43.5t-39.5 42t-42.5 32t-51.5 12.5q-42 0 -71 -21t-48 -54.5t-27.5 -75t-8.5 -83.5q0 -27 5.5 -66.5t17 -82.5
t30 -85.5t45 -76.5t61.5 -55t79 -21q27 0 43.5 8.5t25 20t11.5 22t3 14.5v162q0 8 -4.5 20t-15.5 23t-30.5 19t-50.5 8l-1 18h322v-16q-90 0 -90 -91v-227q-3 5 -8.5 12t-13 13t-17 10.5t-19.5 4.5q-23 0 -45 -10.5t-48.5 -23t-60.5 -23t-81 -10.5q-63 0 -118 27.5t-95.5 74
t-63.5 107t-23 126.5z" />
    <glyph glyph-name="H" unicode="H" horiz-adv-x="793" 
d="M431 0v22q18 0 36 3.5t32 12.5t23 24t9 38v240h-269v-240q0 -23 9 -38t23 -24t32 -12.5t36 -3.5v-22h-328v22q18 0 36 3.5t32 12.5t23 24t9 38v462q0 23 -9 39.5t-23 27t-32 15t-36 4.5v14h328v-14q-18 0 -36 -4.5t-32 -15t-23 -27t-9 -39.5v-186h269v186q0 23 -9 39.5
t-23 27t-32 15t-36 4.5v14h328v-14q-18 0 -36 -4.5t-32 -15t-23 -27t-9 -39.5v-462q0 -23 9 -38t23 -24t32 -12.5t36 -3.5v-22h-328z" />
    <glyph glyph-name="I" unicode="I" horiz-adv-x="396" 
d="M34 0v22q18 0 36 3.5t32 12.5t23 24t9 38v462q0 23 -9 39.5t-23 27t-32 15t-36 4.5v14h328v-14q-18 0 -36 -4.5t-32 -15t-23 -27t-9 -39.5v-462q0 -23 9 -38t23 -24t32 -12.5t36 -3.5v-22h-328z" />
    <glyph glyph-name="J" unicode="J" horiz-adv-x="534" 
d="M414 146q0 -38 -19 -68t-49.5 -51t-69.5 -32.5t-78 -11.5q-32 0 -65 6.5t-59.5 20.5t-43.5 36t-17 53q0 26 20 45t46 19q27 0 44 -11.5t28 -29t18.5 -37.5t15 -37.5t17 -29t25.5 -11.5q19 0 31 13t18 31.5t8 39t2 36.5v435q0 23 -9 39.5t-23 27t-32 15t-36 4.5v14h328
v-14q-18 0 -36 -4.5t-32 -15t-23 -27t-9 -39.5v-416v0z" />
    <glyph glyph-name="K" unicode="K" horiz-adv-x="733" 
d="M607 96q22 -44 53.5 -59t67.5 -15v-22h-341v22q18 0 35.5 3.5t29 11.5t14.5 21.5t-7 33.5l-128 252l-65 -62v-182q0 -23 10.5 -38t24.5 -24t29 -12.5t23 -3.5v-22h-315v22q18 0 36 3.5t32 12.5t23 24t9 38v462q0 23 -9 39.5t-23 27t-32 15t-36 4.5v14h328v-14
q-18 0 -36 -4.5t-32 -15t-23 -27t-9 -39.5v-245l182 169q17 16 27 42.5t8 52t-17.5 45.5t-49.5 22v14h301v-14q-18 0 -41 -10.5t-46.5 -26.5t-45.5 -35t-39 -35l-112 -107l174 -338v0z" />
    <glyph glyph-name="L" unicode="L" horiz-adv-x="656" 
d="M35 23q18 0 36 3.5t32 12.5t23 24t9 38v462q0 23 -9 39.5t-23 27t-32 15t-36 4.5v14h328v-14q-18 0 -36 -4.5t-32 -15t-23 -27t-9 -39.5v-462q0 -47 18 -62.5t54 -15.5h47q25 0 53.5 25t61.5 55.5t71 55.5t83 25q-32 -52 -49 -105.5t-23 -109.5q-12 11 -27 17t-31 9
t-31.5 4t-28.5 1h-426v23z" />
    <glyph glyph-name="M" unicode="M" horiz-adv-x="940" 
d="M334 662l138 -405l98 405h247v-14q-56 0 -80 -26.5t-17 -63.5l78 -423q6 -33 14.5 -55t21 -34.5t30.5 -18t45 -5.5v-22h-331v22q33 0 51.5 10.5t26.5 28t8 41t-3 50.5l-83 434l-148 -604l-201 589l-37 -352q-5 -44 1 -80t19.5 -62t33.5 -40.5t45 -14.5v-22h-261v22
q18 0 39.5 16t40.5 40t32.5 51.5t15.5 50.5l40 382q0 23 -9 39.5t-23 27t-32 15t-36 4.5v14h236z" />
    <glyph glyph-name="N" unicode="N" horiz-adv-x="735" 
d="M174 531v-351q0 -23 9 -50.5t23.5 -51.5t33.5 -40t39 -16v-22h-245v22q18 0 37.5 16t35.5 40t26 51.5t10 50.5v317q0 23 -5 50t-17.5 49.5t-34.5 37t-56 14.5v14h209l344 -430v258q0 26 -11 54t-27.5 51t-34.5 38t-31 15v14h228v-14q-18 0 -36 -16t-32.5 -40t-23 -51.5
t-8.5 -50.5v-508z" />
    <glyph glyph-name="O" unicode="O" horiz-adv-x="722" 
d="M366 655q-50 0 -82.5 -30.5t-51.5 -77.5t-26.5 -103.5t-7.5 -109.5t7.5 -110.5t26.5 -105.5t51.5 -79t82.5 -31t80.5 31t47.5 79t22.5 105.5t5.5 110.5t-5 109.5t-21 103.5t-47 77.5t-83 30.5zM366 677q67 0 123.5 -28.5t97.5 -75.5t63.5 -109.5t22.5 -129.5
q0 -68 -22.5 -131t-63.5 -111.5t-97.5 -78t-123.5 -29.5q-69 0 -127 29t-100.5 77t-66 111.5t-23.5 132.5q0 68 24 130t66.5 109.5t100.5 75.5t126 28z" />
    <glyph glyph-name="P" unicode="P" horiz-adv-x="659" 
d="M392 307q24 0 42 12t30 32t18.5 45.5t6.5 51.5q0 35 -13.5 69t-35.5 60.5t-48.5 43t-51.5 16.5q-29 0 -51.5 -19.5t-22.5 -48.5v-262h126zM347 662q26 0 58 -6.5t64.5 -19t64 -31.5t55.5 -43.5t39 -55t15 -66.5q0 -32 -11.5 -60.5t-31.5 -51t-47.5 -35.5t-58.5 -13h-228
v-180q0 -23 9 -38t23 -24t32 -12.5t36 -3.5v-22h-328v22q18 0 36 3.5t32 12.5t23 24t9 38v462q0 23 -9 39.5t-23 27t-32 15t-36 4.5v14h309v0z" />
    <glyph glyph-name="Q" unicode="Q" horiz-adv-x="722" 
d="M366 675q67 0 123.5 -28.5t97.5 -75.5t63.5 -109.5t22.5 -129.5q0 -68 -22.5 -131t-63.5 -111.5t-97.5 -78t-123.5 -29.5q-8 0 -15.5 0.5t-15.5 1.5l-39 -86q8 6 21 15.5t29 17.5t35 14t39 6q19 0 34.5 -3t29.5 -7t29.5 -7t34.5 -3q25 0 39.5 17t25.5 37l14 -9
q-5 -23 -21 -51t-40 -52t-55 -40t-66 -16q-18 0 -33.5 3.5l-31 7t-32 7t-36.5 3.5q-29 0 -49.5 -14t-38.5 -31l87 194q-58 11 -106.5 43t-83 78t-53.5 103.5t-19 119.5q0 68 24 130t66.5 109.5t100.5 75.5t126 28v1zM365 653q-50 0 -82.5 -30.5t-51.5 -77.5t-26.5 -103.5
t-7.5 -109.5q0 -47 5.5 -97t20 -95t38.5 -79t60 -47l42 93l22 -10l-40 -89q5 -1 10.5 -1.5t10.5 -0.5q50 0 80.5 31t47.5 79t22.5 105.5t5.5 110.5t-5 109.5t-21 103.5t-47 77.5t-83 30.5h-1z" />
    <glyph glyph-name="R" unicode="R" horiz-adv-x="689" 
d="M377 325q48 0 72.5 35t24.5 88q0 35 -13 69t-33.5 60.5t-46.5 43t-51 16.5q-29 0 -46.5 -19.5t-17.5 -48.5v-244h111zM471 300l100 -218q13 -24 42 -42t63 -18l2 -22h-218l-133 300h-61v-200q0 -23 9 -38t23 -24t32 -12.5t36 -3.5v-22h-328v22q18 0 36 3.5t32 12.5t23 24
t9 38v462q0 23 -9 39.5t-23 27t-32 15t-36 4.5v14h309q42 0 92 -13.5t92.5 -40t71 -67t28.5 -94.5q0 -32 -11 -58.5t-30.5 -46.5t-46.5 -31t-58 -11h-14z" />
    <glyph glyph-name="S" unicode="S" horiz-adv-x="612" 
d="M33 230q27 0 49 -9t41.5 -24t36.5 -34.5t33 -40.5q17 -23 35 -44t39.5 -36.5t47 -25t56.5 -9.5q22 0 41.5 8.5t34 22.5t23 33.5t8.5 41.5q0 46 -27 77t-65 49l-173 81q-26 12 -50 27.5t-42.5 35.5t-30 45t-11.5 56q0 40 15 75t41 61.5t61 42t75 15.5q24 0 43.5 -5
t38.5 -11t38.5 -11t43.5 -5q41 0 68 21q-5 -52 3.5 -103.5t26.5 -99.5q-39 4 -69 31t-59 60q-16 18 -32.5 36t-35 32t-40.5 22.5t-48 8.5q-34 0 -59 -23t-25 -57q0 -31 15 -56t38 -36l243 -118q20 -10 40 -27.5t35.5 -41.5t25 -52t9.5 -59q0 -48 -16.5 -85t-45 -62.5
t-66 -39t-79.5 -13.5q-31 0 -58.5 7t-52.5 16t-49 16t-49 7t-45 -7.5t-37 -25.5q1 30 1 59.5t-3.5 59t-12.5 58.5t-25 56z" />
    <glyph glyph-name="T" unicode="T" horiz-adv-x="682" 
d="M405 100q0 -23 9 -38t23 -24t32 -12.5t36 -3.5v-22h-328v22q18 0 36 3.5t32 12.5t23 24t9 38v462q0 47 -13 64t-30 17q-23 0 -43.5 -23t-45.5 -51.5t-58 -53t-79 -26.5q24 42 40 94t16 99q17 -11 35 -15.5t38 -4.5h177h229q20 0 40 4.5t35 15.5q2 -48 15.5 -96.5
t40.5 -96.5q-56 13 -89.5 38.5t-56 51t-40 44.5t-40.5 19q-17 0 -30 -16.5t-13 -63.5v-462z" />
    <glyph glyph-name="U" unicode="U" horiz-adv-x="733" 
d="M266 136q0 -26 11.5 -48.5t32 -39t49 -26t63.5 -9.5q36 0 65 10t50 28t32.5 43t11.5 54v319q0 25 -7.5 52.5t-22 53t-34.5 46t-44 29.5v14h237v-14q-20 -13 -39 -34.5t-33 -46.5t-22.5 -51t-8.5 -49v-323q0 -45 -19 -76t-50.5 -51t-72.5 -29t-86 -9q-43 0 -86.5 7.5
t-78.5 25.5t-57.5 48t-22.5 75v427q0 23 -9 39.5t-23 27t-32 15t-36 4.5v14h332v-14q-18 0 -36 -4.5t-32 -15t-23 -27t-9 -39.5v-426v0z" />
    <glyph glyph-name="V" unicode="V" horiz-adv-x="744" 
d="M346 661l-2 -14q-29 -1 -45.5 -7.5t-25 -17t-11 -23.5t-4.5 -26l170 -410l117 274q7 16 8 48.5t-6.5 66.5t-24.5 61.5t-45 33.5v14h259v-14q-26 -9 -47 -27.5t-38.5 -41.5t-30.5 -47.5t-22 -44.5l-228 -524l-258 604q-17 39 -40.5 60.5t-59.5 21.5v14z" />
    <glyph glyph-name="W" unicode="W" horiz-adv-x="1064" 
d="M103 568q-5 12 -11 24.5t-16 24t-25 20.5t-39 12v14h309v-14q-51 -7 -68 -32t-8 -49l155 -394l109 265l-54 135q-19 37 -42 53t-46 21v14h320v-14q-21 -4 -40.5 -10t-32.5 -16.5t-17 -26.5t5 -39l149 -382l115 291q6 15 4.5 42t-10.5 54.5t-25 51.5t-40 35l-1 14h265v-14
q-29 -16 -54 -38.5t-45.5 -47.5t-36.5 -51t-25 -48l-204 -489l-172 431l-176 -431z" />
    <glyph glyph-name="X" unicode="X" horiz-adv-x="704" 
d="M15 22q17 0 40.5 12.5t47.5 30.5t45.5 39.5t33.5 39.5l120 172l-134 234q-5 9 -14 25.5t-22 32.5t-31 28t-41 12v14h308v-14q-13 0 -27.5 -6t-24.5 -17t-13 -26.5t8 -33.5l93 -163l58 98q15 25 16.5 50t-6.5 45.5t-22.5 35t-32.5 17.5v14h243v-14q-27 -12 -53.5 -31.5
t-49 -41t-39.5 -42.5t-26 -34l-77 -119l171 -292q7 -12 16 -23.5t21.5 -21t29.5 -15.5t40 -6v-22h-342l-1 22q54 0 71.5 24.5t0.5 53.5l-114 194l-74 -130q-2 -3 -6 -15t-6.5 -28t-2 -33.5t6 -32t18.5 -24t36 -9.5v-22h-272l4 22h3z" />
    <glyph glyph-name="Y" unicode="Y" horiz-adv-x="697" 
d="M409 100q0 -23 9 -38t23 -24t32 -12.5t36 -3.5v-22h-328v22q18 0 36 3.5t32 12.5t23 24t9 38v179l-187 318q-15 26 -36.5 36t-46.5 15v14h314v-14q-15 -2 -29.5 -8.5t-24.5 -16t-13 -22t5 -27.5l135 -241l75 128q9 15 14.5 43.5t2.5 58t-17 54t-45 31.5v14h257v-14
q-57 -23 -93 -62t-64 -85l-119 -196v-205z" />
    <glyph glyph-name="Z" unicode="Z" horiz-adv-x="616" 
d="M303 636q-17 0 -35.5 -12.5t-38 -30.5t-41.5 -39t-45.5 -38t-50 -26.5t-55.5 -5.5q32 43 46.5 93.5t21.5 101.5q8 -8 21 -12.5t27 -4.5h432l-402 -637h144q32 0 60 25t58.5 55t67 55t86.5 25q-29 -46 -44.5 -99.5t-15.5 -115.5q-20 17 -49.5 23.5t-58.5 6.5h-420l402 636
h-110z" />
    <glyph glyph-name="bracketleft" unicode="[" horiz-adv-x="370" 
d="M95 -58v770h220v-32h-128v-707h128v-31h-220z" />
    <glyph glyph-name="backslash" unicode="\" horiz-adv-x="278" 
d="M311 -52h-51l-266 745h52z" />
    <glyph glyph-name="bracketright" unicode="]" horiz-adv-x="370" 
d="M56 -27h127v707h-127v32h219v-770h-219v31z" />
    <glyph glyph-name="grave" unicode="`" horiz-adv-x="299" 
d="M146 776q26 0 36.5 -10.5t15.5 -23.5l53 -117l-185 123q-8 6 -8 15q0 11 10 13h78z" />
    <glyph glyph-name="a" unicode="a" horiz-adv-x="488" 
d="M286 261q-17 -4 -41 -13.5t-45.5 -25t-36.5 -38.5t-15 -53q0 -32 21 -55.5t53 -23.5q11 0 21.5 4.5t20.5 10.5q11 7 22 16v178v0zM274 446q56 0 88.5 -23.5t32.5 -51.5v-269q-2 -31 11.5 -44.5t35.5 -13.5q10 0 19 3t14 7l5 -5q-17 -21 -44 -38.5t-62 -17.5
q-45 0 -67 18.5t-26 45.5q-30 -22 -65 -43t-81 -21q-22 0 -42 7t-35 19.5t-24 31.5t-9 43q0 31 17 56.5t43.5 45.5t58 35t60.5 25t51.5 15.5t30.5 7.5v103q0 17 -9 30.5t-25 13.5q-17 0 -26.5 -10.5t-17 -27t-14.5 -35t-16.5 -35t-25 -27t-39.5 -10.5q-22 0 -38 14t-16 36
q0 29 20 50.5t51.5 36t69.5 21.5t74 7z" />
    <glyph glyph-name="b" unicode="b" horiz-adv-x="500" 
d="M193 93q0 -40 21 -64t54 -24q27 0 44.5 15t27.5 38.5t14 51.5t4 55q0 32 -6 65.5t-19.5 61.5t-34 45.5t-48.5 17.5q-19 0 -34 -7.5t-23 -15.5v-239zM81 541q0 29 -17 47.5t-62 18.5v10q71 5 115.5 23t75.5 41v-325q6 10 19 22.5t30 24t37.5 19t42.5 7.5q33 0 60 -15
t46 -40t29.5 -57t10.5 -65q0 -51 -16.5 -99.5t-46 -86.5t-70 -61t-87.5 -23q-35 0 -65.5 7t-53 21.5t-35.5 37t-13 53.5v440z" />
    <glyph glyph-name="c" unicode="c" horiz-adv-x="444" 
d="M215 440q16 0 29 -3t25 -6.5t25 -6.5t29 -3q14 0 25 4.5t17 12.5q2 -39 12.5 -78t33.5 -78q-18 -3 -38 4t-38 18.5t-32.5 25.5t-20.5 26q-14 24 -37 44.5t-46 20.5q-24 0 -38.5 -12.5t-22.5 -32.5t-10.5 -44t-2.5 -46q0 -39 12.5 -75t35.5 -63.5t55 -44.5t71 -17
q37 0 68.5 14.5t43.5 43.5l10 -1q-8 -28 -22 -57t-35 -52.5t-49 -38.5t-62 -15q-53 0 -94 17.5t-69.5 48.5t-43.5 72.5t-15 89.5q0 43 12.5 84.5t36.5 74.5t58 53t77 20z" />
    <glyph glyph-name="d" unicode="d" horiz-adv-x="514" 
d="M219 414q-26 0 -41.5 -15t-24 -38t-11.5 -50.5t-3 -53.5q0 -25 2.5 -51.5t8.5 -50.5q10 -40 33 -67t67 -27q34 0 56 28v190q0 16 -4 39.5t-13.5 44.5t-26.5 36t-43 15zM306 61q-6 -10 -18 -23t-29 -24.5t-37.5 -19.5t-42.5 -8q-35 0 -62.5 15.5t-47.5 40.5t-30.5 57.5
t-10.5 67.5q0 48 14 95.5t40.5 84.5t63.5 60t82 23q26 0 47 -5t31 -15v132q0 29 -17 47.5t-62 18.5v10q71 5 115.5 23t75.5 41v-594q0 -24 7 -38.5t18.5 -22.5t25 -10.5t27.5 -2.5v-14h-190v61z" />
    <glyph glyph-name="e" unicode="e" 
d="M291 306q0 19 -4 41t-13.5 41.5t-24.5 32.5t-37 13q-23 0 -38.5 -11t-25.5 -29t-14.5 -41t-4.5 -47h162zM231 452q37 0 70 -13.5t58 -36.5t39.5 -54t13.5 -65h-283q-1 -45 11 -80t34.5 -60t53.5 -38t68 -13q38 0 67 11.5t53 40.5l7 -6q-8 -30 -27.5 -57.5t-46.5 -47.5
t-60.5 -32t-70.5 -12q-41 0 -76 17t-60.5 45.5t-39.5 66t-14 78.5q0 53 15.5 99.5t43 81.5t64.5 55t80 20z" />
    <glyph glyph-name="f" unicode="f" horiz-adv-x="288" 
d="M198 88q0 -24 7 -38.5t18.5 -22.5t25 -10.5t27.5 -2.5v-14h-272v14q13 0 27.5 2.5t26.5 10.5t20 22.5t8 38.5v311h-81v21h81v36q0 4 -2.5 12.5t-5.5 19.5t-5.5 24t-2.5 25q0 27 9 51.5t25.5 43.5t39 30t49.5 11q16 0 31.5 -5t27.5 -14t19 -22t7 -29q0 -25 -17.5 -43
t-42.5 -18q-15 0 -28 7t-24.5 15t-21.5 15t-19 7q-13 0 -21 -9t-8 -22q0 -21 13.5 -44.5t37.5 -43.5t56 -33t69 -14v-21h-74v-311z" />
    <glyph glyph-name="g" unicode="g" horiz-adv-x="527" 
d="M172 -63q-8 -2 -21 -7.5t-25 -15.5t-21 -24.5t-9 -34.5q0 -27 15.5 -45.5t39.5 -29t53.5 -15t57.5 -4.5q24 0 51 1.5t49.5 8.5t37 21t14.5 38q0 19 -15.5 34t-39.5 25.5t-53 18t-56 13t-48.5 9.5t-29.5 7zM231 414q-23 0 -34.5 -14t-16 -35.5t-5 -47t-0.5 -47.5v-48
t5 -47t16 -36t34 -14q22 0 34 14t17 36t5.5 47t0.5 48q0 22 -0.5 47.5t-5 47t-16.5 35.5t-34 14zM231 430q35 0 67 -11.5t57 -32.5q7 6 18.5 14t25.5 14.5t30 11t32 4.5q22 0 40 -13t18 -35q0 -20 -16 -32t-36 -12q-14 0 -26.5 6.5t-23 14.5t-20 14t-16.5 6q-5 0 -7.5 -1.5
t-5.5 -3.5q20 -20 31.5 -46.5t11.5 -57.5q0 -35 -15 -65t-40 -51.5t-57.5 -33.5t-67.5 -12q-32 0 -60 9q-22 -4 -38.5 -14t-16.5 -20q0 -9 19 -16t37 -11l161 -36q34 -8 62.5 -19.5t49.5 -28.5t32.5 -40t11.5 -53q0 -38 -20.5 -64.5t-54.5 -43t-76.5 -23.5t-86.5 -7
q-39 0 -82.5 7.5t-80 21.5t-60 34t-23.5 46q0 24 18 42t41.5 29.5t46.5 17.5t32 6q-9 2 -27.5 8t-37.5 17t-33.5 26.5t-14.5 36.5q0 19 11 34.5t28 27t38 19.5t41 12q-42 20 -69.5 57.5t-27.5 86.5q0 35 15 64.5t40 50.5t57.5 33t67.5 12z" />
    <glyph glyph-name="h" unicode="h" horiz-adv-x="553" 
d="M11 14q28 0 51 12t23 43v481q0 17 -6.5 27.5t-16.5 17.5t-22.5 10t-24.5 5v8q49 5 96 15.5t90 42.5v-322q10 10 28.5 23t41.5 25t50 20.5t55 8.5q18 0 33.5 -5.5t27 -14t18.5 -20t7 -23.5v-299q0 -17 6.5 -27.5t17 -16.5t24.5 -8.5t28 -2.5v-14h-246v14q26 0 42.5 13
t16.5 42v235q0 27 -21.5 44.5t-53.5 17.5q-23 0 -42.5 -11.5t-30.5 -19.5v-266q0 -24 17.5 -39.5t46.5 -15.5v-14h-254v14h-2z" />
    <glyph glyph-name="i" unicode="i" horiz-adv-x="306" 
d="M85 553q0 29 19.5 48.5t48.5 19.5t48.5 -19.5t19.5 -48.5t-19.5 -48.5t-48.5 -19.5t-48.5 19.5t-19.5 48.5zM16 14q13 0 27.5 2.5t26.5 10.5t20 22.5t8 38.5v220q0 29 -17 47.5t-62 18.5v10q71 5 115.5 23t75.5 41v-360q0 -24 7 -38.5t18.5 -22.5t25 -10.5t27.5 -2.5v-14
h-272v14v0z" />
    <glyph glyph-name="j" unicode="j" horiz-adv-x="260" 
d="M109 308q0 29 -17 47.5t-62 18.5v10q71 5 115.5 23t75.5 41v-509q0 -4 3 -20.5t3 -31.5q0 -25 -10 -47t-26.5 -38.5t-39 -26t-47.5 -9.5q-17 0 -33.5 5t-29.5 14.5t-21 23.5t-8 31q0 23 14.5 41t37.5 18q28 0 41 -10.5t21.5 -22.5t17.5 -22.5t27 -10.5q14 0 21 12t7 26
q0 23 -14 42.5t-31 36t-31 29t-14 21.5v308zM89 553q0 29 19.5 48.5t48.5 19.5t48.5 -19.5t19.5 -48.5t-19.5 -48.5t-48.5 -19.5t-48.5 19.5t-19.5 48.5z" />
    <glyph glyph-name="k" unicode="k" horiz-adv-x="570" 
d="M11 14q13 0 27.5 2.5t26.5 10.5t20 22.5t8 38.5v454q0 29 -17 47.5t-62 18.5v10q71 5 115.5 23t75.5 41v-494l102 97q13 13 19.5 26.5t6.5 33.5q0 7 -2.5 17.5t-8 20t-13.5 16t-19 6.5v14h208v-14q-23 -4 -49.5 -20.5t-49.5 -36t-40 -36.5l-20 -20l-14 -13l138 -201
q17 -25 41.5 -44.5t54.5 -19.5v-14h-274v14q12 0 23.5 4.5t19 13t9 19.5t-7.5 25l-85 126l-39 -36v-78q0 -74 55 -74v-14h-249v14v0z" />
    <glyph glyph-name="l" unicode="l" horiz-adv-x="304" 
d="M14 14q13 0 27.5 2.5t26.5 10.5t20 22.5t8 38.5v308v146q0 29 -17 47.5t-62 18.5v10q71 5 115.5 23t75.5 41v-286v-308q0 -24 7 -38.5t18.5 -22.5t25 -10.5t27.5 -2.5v-14h-272v14v0z" />
    <glyph glyph-name="m" unicode="m" horiz-adv-x="799" 
d="M11 14q13 0 27.5 2.5t26.5 10.5t20 22.5t8 38.5v210q0 29 -17 47.5t-62 18.5v10q35 3 63.5 10.5t52 17.5t42 22t33.5 24v-90q19 14 39 27t41 23t44.5 16t51.5 6q24 0 39 -6t23 -16t11 -23.5t2 -28.5q21 19 44 33t46 23t44.5 13.5t39.5 4.5q32 0 54 -12.5t22 -36.5v-328
q0 -15 19.5 -27t58.5 -12v-14h-248v14q35 0 47 15t12 38v245q0 30 -20.5 43t-41.5 13q-24 0 -43.5 -9.5t-35.5 -25.5v-245q0 -40 11 -57t46 -17v-14h-228v14q13 0 24.5 2.5t19 10.5t12 22.5t4.5 38.5v236q0 6 -4.5 13.5t-12 14.5t-17 11.5t-19.5 4.5q-26 0 -45 -8t-40 -25
v-247q0 -48 15 -61t42 -13v-14h-251v14v0z" />
    <glyph glyph-name="n" unicode="n" horiz-adv-x="553" 
d="M11 14q13 0 27.5 2.5t26.5 10.5t20 22.5t8 38.5v220q0 29 -17 47.5t-62 18.5v10q71 5 115.5 23t75.5 41v-95q7 7 25.5 20.5t43.5 27.5t55 24.5t59 10.5q22 0 37 -7t24.5 -16.5t13.5 -20.5t4 -18v-286q0 -24 8 -38.5t19 -22.5t23 -10.5t21 -2.5v-14h-246v14q9 0 19.5 2.5
t20.5 10.5t16.5 22.5t6.5 38.5v220q0 29 -20 45.5t-46 16.5q-25 0 -47.5 -12t-36.5 -23v-247q0 -24 7 -38.5t17.5 -22.5t22 -10.5t20.5 -2.5v-14h-261v14v0z" />
    <glyph glyph-name="o" unicode="o" horiz-adv-x="502" 
d="M252 436q-35 0 -53.5 -21t-27 -53t-10 -70.5t-1.5 -73.5t1.5 -73.5t10 -70.5t27 -53t53.5 -21t53.5 21t27 53t10 70.5t1.5 73.5t-1.5 73.5t-10 70.5t-27 53t-53.5 21zM252 452q47 0 88 -19t71 -51t47.5 -74.5t17.5 -89.5t-17.5 -89.5t-47.5 -74.5t-71 -51t-88 -19t-88 19
t-71 51t-47.5 74.5t-17.5 89.5t17.5 89.5t47.5 74.5t71 51t88 19z" />
    <glyph glyph-name="p" unicode="p" horiz-adv-x="528" 
d="M212 97q0 -11 4 -27.5t12.5 -32t23 -26.5t35.5 -11q26 0 43 17t27.5 43.5t14.5 58t4 61.5t-5.5 61t-18 56.5t-31.5 41.5t-46 16q-20 0 -36 -7.5t-27 -18.5v-232zM18 -224q13 0 27.5 2.5t26.5 10.5t20 22.5t8 38.5v454q0 29 -17 47.5t-62 18.5v10q71 5 115.5 23t75.5 41
v-93q7 10 20.5 24t31 26t37.5 20.5t40 8.5q36 0 63.5 -16.5t46 -43.5t28.5 -61.5t10 -70.5q0 -48 -19 -94.5t-49 -83t-66.5 -58.5t-71.5 -22q-20 0 -40 4.5t-31 12.5v-147q0 -24 7 -38.5t18.5 -22.5t25 -10.5t27.5 -2.5v-14h-272v14v0z" />
    <glyph glyph-name="q" unicode="q" horiz-adv-x="508" 
d="M313 326q0 10 -6 24.5t-17 27.5t-26.5 22t-34.5 9q-25 0 -42 -16t-27 -41t-14 -55t-4 -58q0 -26 5 -57.5t18 -60t33.5 -47.5t52.5 -19q20 0 35 6.5t27 17.5v247zM313 65q-6 -10 -18 -23.5t-30 -26t-40.5 -21t-48.5 -8.5q-35 0 -62 14.5t-45 40t-27.5 60t-9.5 73.5
q0 50 16.5 96t46 81.5t70.5 57t91 21.5q18 0 36.5 -4.5t34.5 -11.5t28 -15.5t17 -16.5l53 64v-594q0 -24 7 -38.5t18.5 -22.5t25 -10.5t27.5 -2.5v-14h-272v14q13 0 27.5 2.5t26.5 10.5t20 22.5t8 38.5v213v0z" />
    <glyph glyph-name="r" unicode="r" horiz-adv-x="422" 
d="M15 14q13 0 27.5 2.5t26.5 10.5t20 22.5t8 38.5v221q0 29 -17 47.5t-62 18.5v10q71 5 115.5 23t75.5 41v-95q6 8 19.5 21t32 25t40 21t42.5 9q27 0 48 -17t21 -44t-20 -44t-47 -17q-16 0 -29 6t-25 13.5t-23 13.5t-23 6t-20 -5t-16 -14v-240q0 -24 7 -38.5t18.5 -22.5
t25 -10.5t27.5 -2.5v-14h-272v14v0z" />
    <glyph glyph-name="s" unicode="s" horiz-adv-x="455" 
d="M205 446q12 0 28 -2.5t31.5 -5.5t28.5 -5.5t20 -2.5q16 0 27 3t24 14q-3 -85 37 -153q-31 0 -57 21t-50.5 46t-50.5 46t-56 21q-23 0 -40.5 -13t-17.5 -36q0 -11 5 -21t12.5 -17.5t16 -13t15.5 -8.5l157 -66q11 -5 26.5 -16t29.5 -26.5t24 -35t10 -41.5q0 -31 -12.5 -58
t-33.5 -46.5t-49 -30.5t-59 -11q-22 0 -40 3.5t-35 7.5t-35 7.5t-40 3.5q-17 0 -28 -7t-27 -13q4 45 -8 85t-30 79q37 0 68.5 -22.5t60 -50t56.5 -50.5t60 -23q26 0 45 15t19 40q0 18 -10 31.5t-21 22.5q-13 11 -30 19l-127 57q-42 19 -69 50t-27 79q0 28 12.5 51.5
t33.5 39.5t48 25t57 9z" />
    <glyph glyph-name="t" unicode="t" horiz-adv-x="335" 
d="M200 416h102v-20h-102v-308q1 -26 21.5 -37t44.5 -11q13 0 26.5 7.5t14.5 6.5l4 -13q-20 -15 -35.5 -25.5t-31 -17t-32 -9.5t-38.5 -3t-37.5 7t-26 17t-15.5 22t-5 22v342h-72v14q69 14 110.5 65.5t58.5 133.5h13v-193z" />
    <glyph glyph-name="u" unicode="u" horiz-adv-x="554" 
d="M354 307q0 29 -17 47.5t-62 18.5v10q71 5 115.5 23t75.5 41v-360q0 -24 7 -38.5t18.5 -22.5t25 -10.5t27.5 -2.5v-14h-190v56q-6 -5 -23.5 -17t-42 -24t-53 -21.5t-56.5 -9.5q-36 0 -60 21t-24 69v235q0 29 -17 47.5t-62 18.5v10q71 5 115.5 23t75.5 41v-339
q0 -28 21 -44.5t48 -16.5q26 2 48 12t31 18z" />
    <glyph glyph-name="v" unicode="v" horiz-adv-x="533" 
d="M267 405q-28 0 -43.5 -11t-15.5 -33q0 -8 3 -12.5t5 -12.5l93 -200l57 136q2 5 4 22t2 29q0 15 -5 29.5t-13.5 26.5t-19 19t-21.5 7v14h205v-14q-9 0 -24.5 -9.5t-31.5 -24t-30.5 -32.5t-22.5 -35l-153 -337l-179 393q-8 19 -29 31t-39 14v14h258v-14v0z" />
    <glyph glyph-name="w" unicode="w" horiz-adv-x="803" 
d="M261 405q-50 0 -50 -40q0 -5 1 -9t3 -9l99 -220l75 163l-44 89q-5 11 -22.5 18.5t-34.5 7.5v14h259v-14q-28 0 -44.5 -10t-16.5 -32q0 -10 5 -22q2 -6 5 -12l93 -202l52 120q4 20 9 34t5 34q0 16 -4 32t-12 29t-19 21t-26 8v14h199v-14q-8 0 -22 -10.5t-29 -25
t-27.5 -30.5t-17.5 -26l-158 -346l-135 294l-138 -294l-175 384q-13 27 -32.5 40.5t-41.5 13.5v14h244v-14z" />
    <glyph glyph-name="x" unicode="x" horiz-adv-x="563" 
d="M289 405q-20 -2 -33 -8t-13 -23q0 -7 3 -13t5 -8l63 -88l27 35q12 14 16.5 27.5t4.5 32.5q0 17 -12.5 28t-26.5 17v14h184v-14q-32 -12 -52 -27t-31 -26l-100 -100l140 -188q15 -22 36 -36t51 -14v-14h-278v14q21 0 38 8t17 27q0 10 -2 17.5t-8 14.5l-75 102l-42 -51
q-10 -12 -17 -29t-7 -37q0 -6 3.5 -15t10 -17t14.5 -14t17 -6v-14h-208v14q49 6 109 68l108 117l-125 166q-13 17 -29.5 28.5t-36.5 11.5v14h249v-14z" />
    <glyph glyph-name="y" unicode="y" horiz-adv-x="552" 
d="M282 405q-28 1 -42.5 -11t-14.5 -25q0 -5 2 -15t4 -15l94 -214l53 124q7 15 8.5 28.5t1.5 31.5q0 68 -59 96v14h206v-14q-23 -9 -46 -33.5t-41.5 -52t-31.5 -51t-16 -30.5l-182 -405q-6 -13 -16.5 -28t-25.5 -28t-34 -22t-40 -9q-18 0 -34.5 5.5t-29.5 15.5t-21 24t-8 32
q0 25 16.5 43.5t41.5 18.5q20 0 32.5 -8.5t22.5 -18.5t19 -18.5t22 -8.5q9 0 17 5t14.5 12.5t12 15.5t8.5 15l51 107l-173 374q-12 26 -30.5 35.5t-37.5 9.5v14h258z" />
    <glyph glyph-name="z" unicode="z" horiz-adv-x="482" 
d="M173 20h73q13 0 33 22t46 47.5t56.5 44.5t64.5 12q-29 -35 -42.5 -77.5t-21.5 -88.5q-10 10 -21.5 15t-22.5 5h-308l254 400h-50q-20 0 -38 -17.5t-39 -38.5t-45.5 -37.5t-55.5 -14.5q15 29 26.5 64t17.5 77q8 -2 16 -7.5t22 -5.5h290z" />
    <glyph glyph-name="braceleft" unicode="{" 
d="M373 641q-30 0 -49.5 -6.5t-30 -20.5t-14.5 -36t-4 -53v-61q0 -42 -4 -73.5t-16 -53.5t-35 -36t-61 -22q38 -8 61 -22t35 -36t16 -53.5t4 -73.5v-61q0 -32 4 -53.5t14.5 -35t30 -20t49.5 -6.5v-25q-51 0 -84.5 7.5t-54 25.5t-28.5 47t-8 72v88q0 34 -5.5 57.5t-19 39
t-36.5 24t-59 11.5v29q36 3 59.5 11.5t37 23.5t18.5 38.5t5 58.5v88q0 43 8.5 72.5t28.5 47t53.5 25t84.5 7.5v-25v0z" />
    <glyph glyph-name="bar" unicode="|" 
d="M265 -212h-79v900h79v-900z" />
    <glyph glyph-name="braceright" unicode="}" 
d="M253 426q0 -35 5 -58.5t18.5 -38.5t37 -23.5t59.5 -11.5v-29q-36 -3 -59.5 -11.5t-37 -24t-18.5 -39t-5 -57.5v-88q0 -43 -8.5 -72t-28.5 -47t-54.5 -25.5t-85.5 -7.5v25q31 0 50 6.5t30 20t15 35t4 53.5v61q0 42 3.5 73.5t15.5 53.5t35 36t62 22q-39 8 -62 22.5
t-35 36.5t-15.5 53t-3.5 73v61q0 31 -4 53t-15 36t-30 20.5t-50 6.5v25q51 0 85.5 -7.5t54.5 -25.5t28.5 -47t8.5 -72v-88z" />
    <glyph glyph-name="asciitilde" unicode="~" horiz-adv-x="750" 
d="M672 264q-88 -62 -167 -62q-32 0 -65 9t-66 20.5t-65 20.5t-62 9q-39 0 -80 -18t-89 -52v82q93 63 170 63q37 0 69.5 -9t62.5 -20.5t60.5 -20.5t65.5 -9q39 0 79.5 17.5t86.5 50.5v-81v0z" />
    <glyph glyph-name="exclamdown" unicode="&#xa1;" horiz-adv-x="276" 
d="M138 -5q-35 0 -60 23.5t-25 58.5l76 422h18l76 -422q0 -35 -25 -58.5t-60 -23.5zM64 602q0 31 21.5 52.5t52.5 21.5t52.5 -21.5t21.5 -52.5t-21.5 -52.5t-52.5 -21.5t-52.5 21.5t-21.5 52.5z" />
    <glyph glyph-name="cent" unicode="&#xa2;" horiz-adv-x="500" 
d="M450 105q-53 -103 -159 -118v-67h-42v64q-44 1 -80.5 16.5t-63 42.5t-41.5 64t-15 81q0 48 17 91.5t51 78.5q56 59 132 71v65h42v-62q69 -1 108.5 -31t39.5 -71q0 -23 -15.5 -37.5t-39.5 -14.5q-56 0 -68 64q-4 20 -7.5 34.5t-17.5 20.5v-347h12q71 0 124 74zM249 396
q-35 -9 -56.5 -49.5t-21.5 -110.5q0 -69 20.5 -113.5t57.5 -63.5v337z" />
    <glyph glyph-name="dieresis" unicode="&#xa8;" horiz-adv-x="464" 
d="M109 547q0 24 17 41t41 17t41 -17t17 -41t-17 -41t-41 -17t-41 17t-17 41zM270 547q0 24 17 41t41 17t41 -17t17 -41t-17 -41t-41 -17t-41 17t-17 41z" />
    <glyph glyph-name="guillemotleft" unicode="&#xab;" horiz-adv-x="451" 
d="M68 234l187 144v-11l-96 -133l96 -135v-10zM208 234l187 144v-11l-96 -133l96 -135v-10z" />
    <glyph glyph-name="acute" unicode="&#xb4;" horiz-adv-x="344" 
d="M283 776q10 -2 10 -13q0 -9 -8 -15l-185 -123l53 117q5 13 15.5 23.5t36.5 10.5h78z" />
    <glyph glyph-name="cedilla" unicode="&#xb8;" horiz-adv-x="244" 
d="M143 -53q6 -2 15.5 -8t18.5 -15.5t15.5 -21.5t6.5 -25q0 -27 -14 -46t-36 -30.5t-48 -17t-51 -5.5v16q23 0 43 11.5t20 36.5q0 22 -18.5 37t-49.5 15l138 112l15 -16z" />
    <glyph glyph-name="guillemotright" unicode="&#xbb;" horiz-adv-x="451" 
d="M383 233l-187 -144v11l96 133l-96 135v10zM243 233l-187 -144v11l96 133l-96 135v10z" />
    <glyph glyph-name="afii10023" unicode="&#x401;" horiz-adv-x="665" 
d="M642 181q-29 -49 -44 -101.5t-21 -107.5q-36 20 -73 24t-71 4h-410v22q18 0 36 3.5t32 12.5t23 24t9 38v462q0 23 -9 39.5t-23 27t-32 15t-36 4.5v14h542q1 -42 8.5 -85t39.5 -89l-1 -9q-33 7 -55.5 18.5t-40.5 26.5t-33 31.5t-31 34.5q-16 17 -36 30.5t-46 13.5h-60
q-10 0 -20.5 -4.5t-19 -12.5t-14 -19.5t-5.5 -25.5v-202h137q27 -2 44.5 8t34.5 23t37.5 26t53.5 18q-16 -40 -16.5 -89t16.5 -94q-18 -2 -39.5 10.5t-44 28.5t-44.5 29.5t-42 13.5h-137v-267q0 -14 6.5 -24t16 -16.5t19.5 -9.5t17 -3h78q19 1 35 13t32.5 29.5t34.5 37.5
t40 37t49.5 28.5t62.5 11.5zM186 771q0 24 17 41t41 17t41 -17t17 -41t-17 -41t-41 -17t-41 17t-17 41zM347 771q0 24 17 41t41 17t41 -17t17 -41t-17 -41t-41 -17t-41 17t-17 41z" />
    <glyph glyph-name="afii10053" unicode="&#x404;" horiz-adv-x="603" 
d="M301 649q-40 -10 -64.5 -40.5t-38 -73t-19.5 -92t-8 -95.5q21 20 45 38t37 20q25 8 43 2.5t33 -16t28 -22t28 -16t33.5 1.5t45.5 31l14 -8q-41 -53 -71 -77t-53.5 -29.5t-42 2.5t-36 20t-37.5 23.5t-45 12.5q-6 0 -12 -4t-11 -9q-2 -59 4 -120t29 -107q23 -48 64.5 -67.5
t95.5 -9.5q15 2 26.5 8t20.5 14q23 22 29.5 55t4.5 62q-1 31 19.5 49t45.5 21t47.5 -11.5t25.5 -47.5q4 -31 -12 -60.5t-43.5 -52.5t-64 -38.5t-73.5 -19.5q-80 -17 -148 4.5t-117.5 69.5t-76.5 117t-24 147q2 67 22.5 130.5t58 112t92.5 76.5t127 25q24 -3 41.5 -9
t33.5 -12t33.5 -11.5t41.5 -6.5q43 -2 68 18q-8 -51 -3 -103t20 -101q-39 5 -67.5 33.5t-54.5 64.5q-14 18 -27 36t-28.5 32t-34.5 23t-45 10z" />
    <glyph glyph-name="uni0406" unicode="&#x406;" horiz-adv-x="396" 
d="M34 0v22q18 0 36 3.5t32 12.5t23 24t9 38v462q0 23 -9 39.5t-23 27t-32 15t-36 4.5v14h328v-14q-18 0 -36 -4.5t-32 -15t-23 -27t-9 -39.5v-462q0 -23 9 -38t23 -24t32 -12.5t36 -3.5v-22h-328z" />
    <glyph glyph-name="afii10056" unicode="&#x407;" horiz-adv-x="396" 
d="M34 0v22q18 0 36 3.5t32 12.5t23 24t9 38v462q0 23 -9 39.5t-23 27t-32 15t-36 4.5v14h328v-14q-18 0 -36 -4.5t-32 -15t-23 -27t-9 -39.5v-462q0 -23 9 -38t23 -24t32 -12.5t36 -3.5v-22h-328zM57 767q0 24 17 41t41 17t41 -17t17 -41t-17 -41t-41 -17t-41 17t-17 41z
M218 767q0 24 17 41t41 17t41 -17t17 -41t-17 -41t-41 -17t-41 17t-17 41z" />
    <glyph glyph-name="afii10057" unicode="&#x408;" horiz-adv-x="534" 
d="M414 146q0 -38 -19 -68t-49.5 -51t-69.5 -32.5t-78 -11.5q-32 0 -65 6.5t-59.5 20.5t-43.5 36t-17 53q0 26 20 45t46 19q27 0 44 -11.5t28 -29t18.5 -37.5t15 -37.5t17 -29t25.5 -11.5q19 0 31 13t18 31.5t8 39t2 36.5v435q0 23 -9 39.5t-23 27t-32 15t-36 4.5v14h328
v-14q-18 0 -36 -4.5t-32 -15t-23 -27t-9 -39.5v-416v0z" />
    <glyph glyph-name="afii10062" unicode="&#x40e;" horiz-adv-x="730" 
d="M257 574q-8 15 -5 27.5t13 22t24.5 16t29.5 8.5v14h-322v-14q25 -5 46.5 -15t36.5 -36l278 -458q-11 -27 -29.5 -50.5t-33.5 -31.5q-17 -10 -31 -6t-15 18q-2 23 2.5 45t-2.5 38q-10 22 -30.5 31t-43.5 7.5t-43 -12.5t-29 -30q-20 -44 -4 -82t48 -57q31 -18 70.5 -19
t71.5 21q43 29 74 72.5t60 102.5t62.5 134t81.5 167q19 34 38 59.5t40 44t45 32.5t52 25v14h-250v-14q22 -7 35.5 -23.5t18 -38.5t1 -48.5t-14.5 -53.5q-14 -34 -40.5 -89.5t-59.5 -124.5zM518 824q3 -17 -5.5 -33.5t-24 -30.5t-35.5 -23.5t-40 -12.5q-20 -4 -43 -3.5
t-43 3.5q-21 3 -41.5 12.5t-36 23.5t-24.5 30.5t-6 33.5q3 18 16.5 25.5t29 6t27.5 -11t11 -26.5q-1 -12 0.5 -25t6.5 -24q7 -13 23.5 -19.5t35 -7t35 6t24.5 18.5q7 11 8.5 24.5t0.5 26.5q-1 17 10.5 26.5t26.5 11t28.5 -6t15.5 -25.5z" />
    <glyph glyph-name="afii10017" unicode="&#x410;" horiz-adv-x="754" 
d="M635 98q11 -32 40.5 -54t65.5 -22v-22h-341v22q15 0 34 5.5t34.5 16t23 27t-0.5 38.5l-42 119h-254l-27 -81q-2 -9 2.5 -29.5t15.5 -42t29 -37.5t42 -16v-22h-253v22q19 0 40 16.5t40 39t33 46t19 37.5l176 442q-16 17 -37.5 27.5t-45.5 10.5v22h332v-22q-15 0 -34 -5.5
t-34.5 -16t-23 -27t0.5 -38.5zM335 565q-2 3 -3 6.5t-3 6.5l-122 -314h228l-100 301v0z" />
    <glyph glyph-name="afii10018" unicode="&#x411;" horiz-adv-x="716" 
d="M120 562q0 23 -9 39.5t-23.5 27t-32.5 15t-36 4.5v14h552q1 -42 8.5 -85t39.5 -89q-33 7 -56 17.5t-41 23t-33 28t-31 33.5q-16 17 -36 30.5t-46 13.5h-71q-10 0 -20.5 -4.5t-19 -12.5t-14 -19.5t-5.5 -25.5v-194q61 0 103 -1t72.5 -4t53.5 -8t47 -13q30 -10 60.5 -26
t54.5 -38t39.5 -51.5t15.5 -66.5q0 -44 -24 -76t-60.5 -53t-79 -31t-79.5 -10h-430v22q18 0 36 3.5t32 12.5t23 24t9 38zM246 100q0 -47 18 -62.5t54 -15.5h81q26 0 53 12.5t48.5 34t34.5 50t13 60.5q-1 60 -27.5 94.5t-69 51.5t-96 21.5t-109.5 3.5v-250z" />
    <glyph glyph-name="afii10019" unicode="&#x412;" horiz-adv-x="704" 
d="M22 22q18 0 36 3.5t32 12.5t23 24t9 38v462q0 23 -9 39.5t-23 27t-32 15t-36 4.5v14h316q46 0 99 -9t98 -29t74.5 -51.5t29.5 -76.5q0 -34 -22 -59t-51.5 -41.5t-59 -25.5t-44.5 -10q29 -4 67 -16t72.5 -34.5t58.5 -56.5t24 -83q0 -44 -24 -76t-60.5 -53t-79 -31
t-79.5 -10h-419v22zM361 377q27 0 53 9.5t46.5 26t33.5 40t13 51.5q0 31 -16 55t-40.5 40.5t-54.5 25t-58 8.5q-18 0 -36 -4t-32 -12t-23 -22t-9 -33v-185h123v0zM238 100q0 -47 18 -62.5t54 -15.5h87q26 0 53 12.5t48.5 34t34.5 50t13 60.5q-2 36 -19 67t-43 53.5t-57.5 35
t-62.5 12.5h-126v-247z" />
    <glyph glyph-name="afii10020" unicode="&#x413;" horiz-adv-x="613" 
d="M19 22q18 0 36 3.5t32 12.5t23 24t9 38v462q0 23 -9 39.5t-23 27t-32 15t-36 4.5v14h319h223q1 -21 1.5 -42t4 -43t11.5 -44t24 -45q-33 7 -55 17.5t-38.5 23t-30.5 28t-30 33.5q-16 17 -36 30.5t-46 13.5h-36h-24q-10 0 -20.5 -4.5t-19 -12.5t-14 -19.5t-5.5 -25.5v-472
q0 -23 9 -38t23 -24t32 -12.5t36 -3.5v-22h-328v22z" />
    <glyph glyph-name="afii10021" unicode="&#x414;" horiz-adv-x="718" 
d="M117 0q11 19 24.5 59t27 91.5t24.5 110.5t17 117t5.5 110t-9.5 90q-4 15 -14.5 27.5t-24 22t-28.5 14.5t-28 5v14l224 -1h48h296v-14q-18 0 -36 -6t-32 -17t-23 -28t-9 -38l1 -422q0 -42 8 -71.5t21.5 -42t31 -6.5t35.5 34q6 9 13 13t11.5 1t5.5 -13.5t-3 -28.5
q-6 -27 -11.5 -49t-7 -44t4 -45t21.5 -51q-33 8 -55 19.5t-38 25.5t-28 31t-26 37q-13 19 -31 36.5t-46 18.5h-36h-217q-26 -1 -43 -16.5t-30 -34.5q-14 -20 -26.5 -37t-29 -31t-39 -25.5t-55.5 -19.5q17 29 19.5 54t-2 48t-12 47t-9.5 52q-3 21 6 29t20 0q12 -9 20.5 -17
t18.5 -14t25 -9.5t39 -3.5h233q24 -2 40 7.5t25.5 27t13.5 42t4 53.5v399q0 38 -20.5 62.5t-51.5 29.5q-7 2 -21.5 2t-22.5 -1q-29 -3 -53.5 -20t-25.5 -61q-1 -21 -3.5 -58t-8.5 -85q-6 -51 -14.5 -110t-20.5 -117t-28.5 -111.5t-37.5 -93.5z" />
    <glyph glyph-name="afii10022" unicode="&#x415;" horiz-adv-x="695" 
d="M657 181q-29 -49 -44 -101.5t-21 -107.5q-36 20 -73 24t-71 4h-410v22q18 0 36 3.5t32 12.5t23 24t9 38v462q0 23 -9 39.5t-23 27t-32 15t-36 4.5v14h542q1 -42 8.5 -85t39.5 -89l-1 -9q-33 7 -55.5 18.5t-40.5 26.5t-33 31.5t-31 34.5q-16 17 -36 30.5t-46 13.5h-60
q-10 0 -20.5 -4.5t-19 -12.5t-14 -19.5t-5.5 -25.5v-202h137q27 -2 44.5 8t34.5 23t37.5 26t53.5 18q-16 -40 -16.5 -89t16.5 -94q-18 -2 -39.5 10.5t-44 28.5t-44.5 29.5t-42 13.5h-137v-267q0 -14 6.5 -24t16 -16.5t19.5 -9.5t17 -3h78q18 1 34.5 13t33 29.5t34.5 37.5
t40 37t49.5 28.5t62.5 11.5z" />
    <glyph glyph-name="afii10024" unicode="&#x416;" horiz-adv-x="1094" 
d="M395 0v22q8 0 22.5 3.5t29 12.5t25 24t10.5 38v182l-65 62l-128 -252q-11 -20 -7.5 -33.5t15 -21.5t29 -11.5t35.5 -3.5v-22h-341v22q36 0 67 15t54 59l174 338l-112 107q-17 16 -39 35t-45.5 35t-46.5 26.5t-41 10.5v14h301v-14q-34 -2 -49.5 -22t-17.5 -45.5t8 -52
t27 -42.5l182 -169v245q0 23 -9 39.5t-23 27t-32 15t-36 4.5v14h328v-14q-18 0 -36 -4.5t-32 -15t-23 -27t-9 -39.5v-245l182 169q17 16 27 42.5t8 52t-17.5 45.5t-49.5 22v14h301v-14q-18 0 -41 -10.5t-46.5 -26.5t-45.5 -35t-39 -35l-112 -107l174 -338q22 -44 53.5 -59
t67.5 -15v-22h-341v22q18 0 35.5 3.5t29 11.5t14.5 21.5t-7 33.5l-128 252l-65 -62v-182q0 -23 10.5 -38t24.5 -24t29 -12.5t23 -3.5v-22h-302z" />
    <glyph glyph-name="afii10025" unicode="&#x417;" horiz-adv-x="578" 
d="M568 199q0 -46 -17 -83q-12 -27 -33.5 -48t-48.5 -36t-57.5 -25t-60.5 -15q-16 -2 -31 -3.5t-31 -1.5q-22 0 -42.5 1t-40.5 5q-38 5 -73.5 21.5t-62.5 40.5t-41.5 53t-9.5 60q4 33 27 47.5t48 11.5t44.5 -21t17.5 -49q-1 -20 0.5 -42.5t9.5 -42.5t24 -35t43 -19
q14 -2 26.5 -3.5t25.5 -1.5q28 0 54 9q35 13 57 47.5t26 99.5q4 70 -12.5 105t-46 49.5t-68.5 15t-80 0.5v35q50 -1 83.5 5t54 21.5t30.5 41t14 63.5q3 28 -1 55t-14.5 48t-26.5 34t-37 12q-26 -1 -45.5 -10.5t-35.5 -24t-29.5 -33t-28.5 -36.5q-14 -17 -28 -33.5t-29 -29.5
t-32 -21.5t-36 -11.5q17 49 23.5 101t-0.5 103q26 -20 69 -18q24 1 41.5 5.5t33.5 10.5t33.5 12t41.5 9q40 5 76 -1.5t65 -22t49.5 -38t31.5 -47.5q6 -14 8.5 -29.5t2.5 -30.5q-1 -20 -7 -40.5t-20 -37.5q-20 -26 -59 -44.5t-90 -24.5q73 -3 123 -27t72 -60q20 -33 20 -75z
" />
    <glyph glyph-name="afii10026" unicode="&#x418;" horiz-adv-x="793" 
d="M531 492l-269 -385v-7q0 -23 9 -38t23 -24t32 -12.5t36 -3.5v-22h-328v22q18 0 36 3.5t32 12.5t23 24t9 38v462q0 23 -9 39.5t-23 27t-32 15t-36 4.5v14h328v-14q-18 0 -36 -4.5t-32 -15t-23 -27t-9 -39.5v-394l269 385v9q0 23 -9 39.5t-23 27t-32 15t-36 4.5v14h328v-14
q-18 0 -36 -4.5t-32 -15t-23 -27t-9 -39.5v-462q0 -23 9 -38t23 -24t32 -12.5t36 -3.5v-22h-328v22q18 0 36 3.5t32 12.5t23 24t9 38v392z" />
    <glyph glyph-name="afii10027" unicode="&#x419;" horiz-adv-x="793" 
d="M531 100q0 -23 -9 -38t-23 -24t-32 -12.5t-36 -3.5v-22h328v22q-18 0 -36 3.5t-32 12.5t-23 24t-9 38v462q0 23 9 39.5t23 27t32 15t36 4.5v14h-328v-14q18 0 36 -4.5t32 -15t23 -27t9 -39.5v-9l-269 -385v394q0 23 9 39.5t23 27t32 15t36 4.5v14h-328v-14q18 0 36 -4.5
t32 -15t23 -27t9 -39.5v-462q0 -23 -9 -38t-23 -24t-32 -12.5t-36 -3.5v-22h328v22q-18 0 -36 3.5t-32 12.5t-23 24t-9 38v7l269 385v-392zM551 824q3 -17 -5.5 -33.5t-24 -30.5t-35.5 -23.5t-40 -12.5q-20 -4 -43 -3.5t-43 3.5q-21 3 -41.5 12.5t-36 23.5t-24.5 30.5
t-6 33.5q3 18 17.5 25.5t30.5 6t29 -11t12 -26.5q-1 -12 0.5 -25t6.5 -24q7 -13 22 -19.5t31.5 -7t31 6t22.5 18.5q7 11 8.5 24.5t0.5 26.5q-1 17 11.5 26.5t28.5 11t30.5 -6t16.5 -25.5z" />
    <glyph glyph-name="afii10028" unicode="&#x41a;" horiz-adv-x="747" 
d="M477 363l130 -267q22 -44 53.5 -59t67.5 -15v-22h-341v22q18 0 36 3.5t30 12t15 21.5t-9 33l-103 230h-90v-222q0 -23 10.5 -38t24.5 -24t29 -12.5t23 -3.5v-22h-315v22q18 0 36 3.5t32 12.5t23 24t9 38v462q0 23 -9 39.5t-23 27t-32 15t-36 4.5v14h328v-14
q-18 0 -36 -4.5t-32 -15t-23 -27t-9 -39.5v-205h9q5 0 12 -0.5t18 -0.5q22 -1 36.5 0.5t25 8.5t19.5 21t19 40q7 18 13 37.5t13 39.5q5 16 10.5 32t11.5 31q9 23 20 43t25 35q17 18 48.5 27t61 4.5t49.5 -23.5t14 -57q-5 -29 -24.5 -46.5t-47.5 -22.5q-11 -2 -25.5 2.5
t-29.5 9.5t-29 7t-23 -5q-10 -8 -18.5 -21t-15.5 -29t-13.5 -34t-12.5 -35t-12 -32.5t-13 -25.5h70z" />
    <glyph glyph-name="afii10029" unicode="&#x41b;" horiz-adv-x="765" 
d="M180 55q20 18 34.5 45t25.5 59q13 41 21 87.5t12 89.5t5 79.5t1 58.5q0 57 -11 104q-4 15 -14.5 27.5t-24 22t-28.5 14.5t-28 5v13h233h329v-14q-18 0 -36 -6t-32 -17t-23 -28t-9 -38v-457q0 -23 9 -38t23 -24t32 -12.5t36 -3.5v-22h-328v22q18 0 36 3.5t32 12.5t23 24
t9 38v451q0 94 -83 94q-16 0 -34 -3.5t-33.5 -12.5t-26.5 -25t-12 -41q-2 -39 -4 -89t-6.5 -104t-12.5 -108.5t-22 -102.5q-16 -56 -40 -95q-23 -37 -50.5 -58.5t-74.5 -21.5q-17 0 -34.5 6.5t-32 18t-24 27t-9.5 34.5q0 41 16.5 65t39.5 32.5t48 3t40 -23.5q22 -27 2 -85
q-2 -11 5 -16t21 9z" />
    <glyph glyph-name="afii10030" unicode="&#x41c;" horiz-adv-x="911" 
d="M320 662l138 -405l98 405h247v-14q-56 0 -80 -26.5t-17 -63.5l78 -423q6 -33 14.5 -55t21 -34.5t30.5 -18t45 -5.5v-22h-331v22q33 0 51.5 10.5t26.5 28t8 41t-3 50.5l-83 434l-148 -604l-201 589l-37 -352q-5 -44 1 -80t19.5 -62t33.5 -40.5t45 -14.5v-22h-261v22
q18 0 39.5 16t40.5 40t32.5 51.5t15.5 50.5l40 382q0 23 -9 39.5t-23 27t-32 15t-36 4.5v14h236z" />
    <glyph glyph-name="afii10031" unicode="&#x41d;" horiz-adv-x="773" 
d="M415 0v22q18 0 36 3.5t32 12.5t23 24t9 38v240h-269v-240q0 -23 9 -38t23 -24t32 -12.5t36 -3.5v-22h-328v22q18 0 36 3.5t32 12.5t23 24t9 38v462q0 23 -9 39.5t-23 27t-32 15t-36 4.5v14h328v-14q-18 0 -36 -4.5t-32 -15t-23 -27t-9 -39.5v-186h269v186q0 23 -9 39.5
t-23 27t-32 15t-36 4.5v14h328v-14q-18 0 -36 -4.5t-32 -15t-23 -27t-9 -39.5v-462q0 -23 9 -38t23 -24t32 -12.5t36 -3.5v-22h-328z" />
    <glyph glyph-name="afii10032" unicode="&#x41e;" horiz-adv-x="684" 
d="M343 655q-50 0 -82.5 -30.5t-51.5 -77.5t-26.5 -103.5t-7.5 -109.5t7.5 -110.5t26.5 -105.5t51.5 -79t82.5 -31t80.5 31t47.5 79t22.5 105.5t5.5 110.5t-5 109.5t-21 103.5t-47 77.5t-83 30.5zM343 677q67 0 123.5 -28.5t97.5 -75.5t63.5 -109.5t22.5 -129.5
q0 -68 -22.5 -131t-63.5 -111.5t-97.5 -78t-123.5 -29.5q-69 0 -127 29t-100.5 77t-66 111.5t-23.5 132.5q0 68 24 130t66.5 109.5t100.5 75.5t126 28z" />
    <glyph glyph-name="afii10033" unicode="&#x41f;" horiz-adv-x="767" 
d="M346 646q-18 0 -36 -4.5t-32 -15t-23 -27t-9 -39.5v-220v-240q0 -23 9 -38t23 -24t32 -12.5t36 -3.5v-22h-328v22q18 0 36 3.5t32 12.5t23 24t9 38v462q0 23 -9 39.5t-23 27t-32 15t-36 4.5v14h725v-14q-18 0 -36 -4.5t-32 -15t-23 -27t-9 -39.5v-462q0 -23 9 -38t23 -24
t32 -12.5t36 -3.5v-22h-328v22q18 0 36 3.5t32 12.5t23 24t9 38v240v220q0 23 -9 39.5t-23 27t-32 15t-36 4.5h-69z" />
    <glyph glyph-name="afii10034" unicode="&#x420;" horiz-adv-x="643" 
d="M373 307q24 0 42 12t30 32t18.5 45.5t6.5 51.5q0 35 -13.5 69t-35.5 60.5t-48.5 43t-51.5 16.5q-29 0 -51.5 -19.5t-22.5 -48.5v-262h126zM328 662q56 1 109.5 -13t95 -42.5t66.5 -70.5t25 -96q0 -32 -11.5 -60.5t-31.5 -51t-47.5 -35.5t-58.5 -13h-228v-180q0 -23 9 -38
t23 -24t32 -12.5t36 -3.5v-22h-328v22q18 0 36 3.5t32 12.5t23 24t9 38v462q0 23 -9 39.5t-23 27t-32 15t-36 4.5v14h309v0z" />
    <glyph glyph-name="afii10035" unicode="&#x421;" horiz-adv-x="603" 
d="M520 672q1 -56 15.5 -108t44.5 -100q-30 -5 -52.5 2.5t-41 22.5t-34.5 34.5t-31 40.5q-13 17 -26.5 33t-29 28.5t-34 20t-41.5 7.5q-42 0 -69 -23t-43.5 -59t-23 -79.5t-6.5 -85.5q0 -59 18 -114t51.5 -98.5t80.5 -69.5t106 -26q60 0 98.5 32t67.5 88l10 -9
q-16 -50 -40.5 -91.5t-57 -71t-74 -46t-92.5 -16.5q-73 0 -128 28.5t-92.5 76t-56.5 109.5t-19 130q0 66 20 128.5t57.5 111.5t90.5 78.5t119 29.5q23 0 47.5 -4.5t46 -9.5t38 -9.5t24.5 -4.5q18 0 29 8.5t28 15.5z" />
    <glyph glyph-name="afii10036" unicode="&#x422;" horiz-adv-x="682" 
d="M405 100q0 -23 9 -38t23 -24t32 -12.5t36 -3.5v-22h-328v22q18 0 36 3.5t32 12.5t23 24t9 38v462q0 47 -13 64t-30 17q-23 0 -43.5 -23t-45.5 -51.5t-58 -53t-79 -26.5q24 42 40 94t16 99q17 -11 35 -15.5t38 -4.5h406q20 0 40 4.5t35 15.5q2 -48 15.5 -96.5t40.5 -96.5
q-56 13 -89.5 38.5t-56 51t-40 44.5t-40.5 19q-17 0 -30 -16.5t-13 -63.5v-462z" />
    <glyph glyph-name="afii10037" unicode="&#x423;" horiz-adv-x="730" 
d="M432 270q33 69 59.5 124.5t40.5 89.5q11 27 14.5 53.5t-1 48.5t-18 38.5t-35.5 23.5v14h250v-14q-28 -11 -52 -25t-45 -32.5t-40 -44t-38 -59.5q-48 -92 -81.5 -167t-62.5 -134t-60 -102.5t-74 -72.5q-32 -22 -71.5 -21t-70.5 19q-32 19 -48 57t4 82q9 19 29 30t43 12.5
t43.5 -7.5t30.5 -31q7 -16 2.5 -38t-2.5 -45q1 -14 15 -18t31 6q15 8 33.5 31.5t29.5 50.5l-278 458q-15 26 -36.5 36t-46.5 15v14h322v-14q-15 -2 -29.5 -8.5t-24.5 -16t-13 -22t5 -27.5z" />
    <glyph glyph-name="afii10038" unicode="&#x424;" horiz-adv-x="950" 
d="M306 0v22q18 0 36 3.5t32 12.5t23 24t9 38v50q-49 -53 -109 -55q-64 -4 -113 13t-83 47t-53.5 70.5t-23.5 84.5q-1 8 -0.5 8t0.5 8q1 48 19 94.5t53 81.5t86.5 55.5t120.5 16.5q27 -2 53.5 -13t49.5 -32v33q0 23 -9 39.5t-23 27t-32 15t-36 4.5v14h328v-14
q-18 0 -36 -4.5t-32 -15t-23 -27t-9 -39.5v-33q45 42 103 45q69 4 120.5 -16.5t86.5 -55.5t53 -81.5t19 -94.5q0 -8 0.5 -8t-0.5 -8q-5 -44 -24 -84.5t-53 -70.5t-83 -47t-113 -13q-60 2 -109 55v-50q0 -23 9 -38t23 -24t32 -12.5t36 -3.5v-22h-328zM308 544
q-30 4 -55 -11.5t-43.5 -45t-28.5 -70.5t-10 -89v-11q1 -38 7 -72.5t19.5 -60.5t37 -42.5t61.5 -18.5q26 4 53.5 19t56.5 58v280q-26 35 -50 47.5t-48 16.5zM644 123q38 2 61.5 18.5t37 42.5t19 60.5t7.5 72.5v11q0 48 -10 89t-28.5 70.5t-43.5 45t-55 11.5
q-25 -4 -48.5 -16.5t-49.5 -47.5v-280q29 -43 56.5 -58t53.5 -19z" />
    <glyph glyph-name="afii10039" unicode="&#x425;" horiz-adv-x="704" 
d="M15 22q17 0 40.5 12.5t47.5 30.5t45.5 39.5t33.5 39.5l120 172l-134 234q-5 9 -14 25.5t-22 32.5t-31 28t-41 12v14h308v-14q-13 0 -27.5 -6t-24.5 -17t-13 -26.5t8 -33.5l93 -163l58 98q15 25 16.5 50t-6.5 45.5t-22.5 35t-32.5 17.5v14h243v-14q-27 -12 -53.5 -31.5
t-49 -41t-39.5 -42.5t-26 -34l-77 -119l171 -292q7 -12 16 -23.5t21.5 -21t29.5 -15.5t40 -6v-22h-342l-1 22q54 0 71.5 24.5t0.5 53.5l-114 194l-74 -130q-2 -3 -6 -15t-6.5 -28t-2 -33.5t6 -32t18.5 -24t36 -9.5v-22h-272l4 22h3z" />
    <glyph glyph-name="afii10040" unicode="&#x426;" horiz-adv-x="795" 
d="M23 0v14q18 0 36 4.5t32 15t23 27t9 39.5v462q0 23 -9 38t-23 24t-32 12.5t-36 3.5v22h328v-22q-18 0 -36 -3.5t-32 -12.5t-23 -24t-9 -38v-240v-220q0 -23 9 -39.5t23 -27t32 -15t36 -4.5h69q18 0 36 4.5t32 15t23 27t9 39.5v220v240q0 23 -9 38t-23 24t-32 12.5
t-36 3.5v22h328v-22q-18 0 -36 -3.5t-32 -12.5t-23 -24t-9 -38v-427q-1 -50 10 -80.5t28 -38.5q27 -13 58 33q6 9 13 13t11.5 1t5.5 -13.5t-3 -28.5q-6 -27 -11.5 -49t-7 -44t4 -45t21.5 -51q-33 8 -55 19.5t-38 25.5t-28 31t-26 37q-13 19 -31 36.5t-46 18.5h-531z" />
    <glyph glyph-name="afii10041" unicode="&#x427;" horiz-adv-x="767" 
d="M416 22q18 0 36 3.5t32 12.5t23 24t9 38v212q-36 -29 -78.5 -44t-85.5 -17.5t-84.5 6.5t-74.5 27q-32 17 -53 47.5t-21 73.5v157q0 23 -9 39.5t-23 27t-32 15t-36 4.5v14h332v-14q-18 0 -36 -4.5t-32 -15t-23 -27t-9 -39.5v-156q0 -37 17.5 -62t44.5 -37.5t60 -13
t63 11.5q21 8 41.5 20.5t38.5 29.5v207q0 23 -9 39.5t-23 27t-32 15t-36 4.5v14h328v-14q-18 0 -36 -4.5t-32 -15t-23 -27t-9 -39.5v-462q0 -23 9 -38t23 -24t32 -12.5t36 -3.5v-22h-328v22v0z" />
    <glyph glyph-name="afii10042" unicode="&#x428;" horiz-adv-x="1163" 
d="M22 0v14q18 0 36 4.5t32 15t23 27t9 39.5v462q0 23 -9 38t-23 24t-32 12.5t-36 3.5v22h328v-22q-18 0 -36 -3.5t-32 -12.5t-23 -24t-9 -38v-240v-220q0 -23 9 -39.5t23 -27t32 -15t36 -4.5h69q18 0 36 4.5t32 15t23 27t9 39.5v220v240q0 23 -9 38t-23 24t-32 12.5
t-36 3.5v22h328v-22q-18 0 -36 -3.5t-32 -12.5t-23 -24t-9 -38v-240v-220q0 -23 9 -39.5t23 -27t32 -15t36 -4.5h69q18 0 36 4.5t32 15t23 27t9 39.5v220v240q0 23 -9 38t-23 24t-32 12.5t-36 3.5v22h328v-22q-18 0 -36 -3.5t-32 -12.5t-23 -24t-9 -38v-462q0 -23 9 -39.5
t23 -27t32 -15t36 -4.5v-14h-725h-397z" />
    <glyph glyph-name="afii10043" unicode="&#x429;" horiz-adv-x="1185" 
d="M417 0h-397v14q18 0 36 4.5t32 15t23 27t9 39.5v462q0 23 -9 38t-23 24t-32 12.5t-36 3.5v22h328v-22q-18 0 -36 -3.5t-32 -12.5t-23 -24t-9 -38v-240v-220q0 -23 9 -39.5t23 -27t32 -15t36 -4.5h69q18 0 36 4.5t32 15t23 27t9 39.5v220v240q0 23 -9 38t-23 24t-32 12.5
t-36 3.5v22h328v-22q-18 0 -36 -3.5t-32 -12.5t-23 -24t-9 -38v-240v-220q0 -23 9 -39.5t23 -27t32 -15t36 -4.5h69q18 0 36 4.5t32 15t23 27t9 39.5v220v240q0 23 -9 38t-23 24t-32 12.5t-36 3.5v22h328v-22q-18 0 -35.5 -3.5t-32 -12.5t-23 -24t-8.5 -38v-427
q0 -42 8 -71.5t21.5 -42t31 -6.5t35.5 34q6 9 13 13t11.5 1t5.5 -13.5t-3 -28.5q-6 -27 -11.5 -49t-7 -44t4 -45t21.5 -51q-33 8 -55 19.5t-38 25.5t-28 31t-26 37q-13 19 -31 36.5t-46 18.5h-532z" />
    <glyph glyph-name="afii10044" unicode="&#x42a;" horiz-adv-x="846" 
d="M377 100q0 -47 18 -62.5t54 -15.5h81q26 0 53 12.5t48.5 34t34.5 50t13 60.5q-1 60 -27.5 94.5t-69 51.5t-96 21.5t-109.5 3.5v-250zM477 662v-14q-18 0 -36 -4.5t-32 -15t-23 -27t-9 -39.5v-184q61 0 103 -1t72.5 -4t53.5 -8t47 -13q30 -10 60.5 -26t54.5 -38
t39.5 -51.5t15.5 -66.5q0 -44 -24 -76t-60.5 -53t-79 -31t-79.5 -10h-430v22q18 0 36 3.5t32 12.5t23 24t9 38v462q0 33 -6.5 50.5t-17.5 24.5q-9 6 -19 6q-23 0 -39 -23t-35.5 -51.5t-48 -53t-74.5 -26.5q12 21 17.5 45t8 49t2 50.5t-0.5 48.5q17 -11 35 -15.5t38 -4.5h39
h101h227z" />
    <glyph glyph-name="afii10045" unicode="&#x42b;" horiz-adv-x="1096" 
d="M131 562q0 23 -9 39.5t-23.5 27t-32.5 15t-36 4.5v14h328v-14q-18 0 -36 -4.5t-32 -15t-23 -27t-9 -39.5v-184q61 0 103 -1t72.5 -4t53.5 -8t47 -13q30 -10 60.5 -26t54.5 -38t39.5 -51.5t15.5 -66.5q0 -44 -24 -76t-60.5 -53t-79 -31t-79.5 -10h-430v22q18 0 36 3.5
t32 12.5t23 24t9 38v462zM258 100q0 -47 18 -62.5t54 -15.5h81q26 0 53 12.5t48.5 34t34.5 50t13 60.5q-1 60 -27.5 94.5t-69 51.5t-96 21.5t-109.5 3.5v-250zM741 0v22q18 0 36 3.5t32 12.5t23 24t9 38v462q0 23 -9 39.5t-23 27t-32 15t-36 4.5v14h328v-14q-18 0 -36 -4.5
t-32 -15t-23 -27t-9 -39.5v-462q0 -23 9 -38t23 -24t32 -12.5t36 -3.5v-22h-328z" />
    <glyph glyph-name="afii10046" unicode="&#x42c;" horiz-adv-x="730" 
d="M131 562q0 23 -9 39.5t-23.5 27t-32.5 15t-36 4.5v14h328v-14q-18 0 -36 -4.5t-32 -15t-23 -27t-9 -39.5v-184q61 0 103 -1t72.5 -4t53.5 -8t47 -13q30 -10 60.5 -26t54.5 -38t39.5 -51.5t15.5 -66.5q0 -44 -24 -76t-60.5 -53t-79 -31t-79.5 -10h-430v22q18 0 36 3.5
t32 12.5t23 24t9 38v462zM258 100q0 -47 18 -62.5t54 -15.5h81q26 0 53 12.5t48.5 34t34.5 50t13 60.5q-1 60 -27.5 94.5t-69 51.5t-96 21.5t-109.5 3.5v-250z" />
    <glyph glyph-name="afii10047" unicode="&#x42d;" horiz-adv-x="607" 
d="M312 651q-26 -1 -45 -10t-34.5 -23t-28.5 -32t-28 -36q-27 -35 -56 -63t-67 -33q15 49 20.5 101t-2.5 103q28 -20 70 -18q24 1 41.5 5.5t33 10.5t33 12t41.5 9q72 3 127 -26t91.5 -78t55.5 -113t21 -131q2 -78 -26 -147t-78.5 -117t-119 -69t-147.5 -3q-38 5 -74 21.5
t-63 40.5t-42.5 53t-10.5 60q4 33 26 47.5t47 11.5t45 -21t19 -49q-1 -29 4.5 -62.5t28.5 -56.5q19 -18 47 -22q54 -10 95.5 8.5t64.5 66.5q12 25 19.5 54.5t11.5 62t5 65.5t0 64v20q-22 -21 -46.5 -40.5t-38.5 -21.5q-25 -8 -43 -2.5t-33 16t-28.5 22t-28.5 16t-33.5 -1.5
t-44.5 -31l-15 8q40 52 69.5 76.5t53 30t42 -2.5t36.5 -20t37.5 -23.5t45.5 -12.5q6 0 12.5 4.5t12.5 11.5q-2 43 -8 86t-19.5 79.5t-36.5 63t-59 36.5z" />
    <glyph glyph-name="afii10048" unicode="&#x42e;" horiz-adv-x="1017" 
d="M684 677q67 0 123.5 -28.5t97.5 -75.5t63.5 -109.5t22.5 -129.5q0 -68 -22.5 -131t-63.5 -111.5t-97.5 -78t-123.5 -29.5q-69 0 -127 29t-100.5 77t-66 111.5t-23.5 132.5v6h-105v-240q0 -23 9 -38t23 -24t32 -12.5t36 -3.5v-22h-328v22q18 0 36 3.5t32 12.5t23 24t9 38
v462q0 23 -9 39.5t-23 27t-32 15t-36 4.5v14h328v-14q-18 0 -36 -4.5t-32 -15t-23 -27t-9 -39.5v-186h107q7 61 33.5 116t68 96t96 65t117.5 24zM684 655q-50 0 -82.5 -30.5t-51.5 -77.5t-26.5 -103.5t-7.5 -109.5t7.5 -110.5t26.5 -105.5t51.5 -79t82.5 -31t80.5 31
t47.5 79t22.5 105.5t5.5 110.5t-5 109.5t-21 103.5t-47 77.5t-83 30.5z" />
    <glyph glyph-name="afii10049" unicode="&#x42f;" horiz-adv-x="682" 
d="M430 325v244q0 29 -17.5 48.5t-46.5 19.5q-26 0 -51.5 -16.5t-46 -43t-33.5 -60.5t-13 -69q0 -53 24.5 -88t72.5 -35h111zM211 300q-32 0 -58.5 11t-46 31t-30.5 46.5t-11 58.5q0 54 21.5 94.5t59 67t89.5 40t114 13.5h309v-14q-18 0 -36 -4.5t-32 -15t-23 -27t-9 -39.5
v-462q0 -23 9 -38t23 -24t32 -12.5t36 -3.5v-22h-328v22q18 0 36 3.5t32 12.5t23 24t9 38v200h-61l-133 -300h-218l2 22q34 0 63 18t42 42l100 218h-14z" />
    <glyph glyph-name="afii10065" unicode="&#x430;" horiz-adv-x="481" 
d="M276 261q-17 -4 -41 -13.5t-45.5 -25t-36.5 -38.5t-15 -53q0 -32 21 -55.5t53 -23.5q11 0 21.5 4.5t20.5 10.5q11 7 22 16v178v0zM264 446q56 0 88.5 -23.5t32.5 -51.5v-269q-2 -31 11.5 -44.5t35.5 -13.5q10 0 19 3t14 7l5 -5q-17 -21 -44 -38.5t-62 -17.5
q-45 0 -67 18.5t-26 45.5q-30 -22 -65 -43t-81 -21q-22 0 -42 7t-35 19.5t-24 31.5t-9 43q0 31 17 56.5t43.5 45.5t58 35t60.5 25t51.5 15.5t30.5 7.5v103q0 17 -9 30.5t-25 13.5t-26 -10.5t-17.5 -27t-14.5 -35t-16.5 -35t-25 -27t-39.5 -10.5q-22 0 -38 14t-16 36
q0 29 20 50.5t51.5 36t69.5 21.5t74 7z" />
    <glyph glyph-name="afii10066" unicode="&#x431;" horiz-adv-x="491" 
d="M118 607q30 30 64 40t68 11t64.5 -2t54.5 0t38.5 17.5t15.5 50.5l8 -5q-2 -69 -17 -105t-39 -52t-54.5 -18t-63 -1.5t-65.5 -3.5t-62 -23q-42 -27 -59.5 -73t-24.5 -118q28 56 80.5 91.5t118.5 35.5q47 0 88 -19t71 -51t47.5 -74.5t17.5 -89.5t-17.5 -89.5t-47.5 -74.5
t-71 -51t-88 -19q-35 0 -67 11t-59 30t-47.5 45.5t-33.5 57.5q-11 27 -15 62t-3 72t4.5 73.5t7.5 65.5q8 60 27 113.5t59 92.5zM245 436q-35 0 -53.5 -21t-27 -53t-10 -70.5t-1.5 -73.5t1.5 -73.5t10 -70.5t27 -53t53.5 -21t53.5 21t27 53t10 70.5t1.5 73.5t-1.5 73.5
t-10 70.5t-27 53t-53.5 21z" />
    <glyph glyph-name="afii10067" unicode="&#x432;" horiz-adv-x="552" 
d="M261 256q19 0 37 6t32.5 17.5t23.5 27t9 34.5q-2 53 -48 75q-6 3 -22 7.5t-32.5 3.5t-29.5 -11t-13 -36v-124h61h-18zM218 68q0 -32 12.5 -42.5t38.5 -10.5h31q18 0 36 8.5t32 23t22.5 34t8.5 40.5q-1 25 -12.5 46t-28.5 36.5t-38.5 24t-42.5 8.5h-59v-168zM24 0v14
q13 0 27.5 2.5t26.5 10.5t20 22.5t8 38.5v53v219q0 24 -8 38.5t-20 22.5t-26.5 10.5t-27.5 2.5v14h262q39 1 75.5 -5t64 -19.5t44 -35t16.5 -51.5q0 -23 -13 -39.5t-32.5 -27.5t-42 -16.5t-40.5 -5.5q20 -2 48 -10.5t53.5 -24.5t43 -40.5t17.5 -57.5q0 -34 -19 -56
t-45.5 -35t-55.5 -18.5t-49 -5.5h-327z" />
    <glyph glyph-name="afii10068" unicode="&#x433;" horiz-adv-x="473" 
d="M288 431q-14 0 -27.5 -2.5t-25 -10t-18.5 -21.5t-7 -38v-271q0 -24 7 -38.5t18.5 -22.5t25 -10.5t27.5 -2.5v-14h-272v14q13 0 27.5 2.5t26.5 10.5t20 22.5t8 38.5v270q0 24 -8 38.5t-20 23t-26.5 11t-27.5 2.5v14h272h86q11 0 22.5 5t21.5 15q4 -23 4.5 -45t2.5 -43
t8 -40.5t21 -37.5q-29 -5 -50 3t-36.5 22.5t-26.5 32.5t-20 34t-16.5 27t-16.5 11z" />
    <glyph glyph-name="afii10069" unicode="&#x434;" horiz-adv-x="564" 
d="M34 45q23 -27 39 -26h26q18 36 33.5 85.5t25 101.5t10.5 101.5t-9 85.5q-3 10 -11.5 18t-20 14t-23.5 9t-22 3v10h444v-14q-14 0 -27.5 -2.5t-25 -10.5t-18.5 -22.5t-7 -38.5l-1 -241q-1 -48 10 -74t28 -28q18 -2 39 24q12 15 19.5 11.5t-5.5 -33.5q-17 -39 -15.5 -76.5
t27.5 -87.5q-26 7 -44 17t-31.5 23t-24 28t-21.5 32t-22.5 31t-33.5 15h-182q-22 -1 -33.5 -15t-22.5 -31t-22.5 -32t-26 -28t-33.5 -23t-45 -17q25 50 26.5 90t-14.5 79q-13 30 -5.5 33.5t19.5 -11.5zM199 383q-2 -41 -5.5 -87t-11.5 -93.5t-21 -94.5t-35 -89h128
q13 0 27.5 2.5t26.5 10.5t20 22.5t8 38.5v266q0 24 -8 38.5t-20 22.5t-26.5 10.5t-27.5 2.5h-1l-1 -1q-20 -3 -36 -13t-17 -36z" />
    <glyph glyph-name="afii10070" unicode="&#x435;" 
d="M291 306q0 19 -4 41t-13.5 41.5t-24.5 32.5t-37 13q-23 0 -38.5 -11t-25.5 -29t-14.5 -41t-4.5 -47h162zM231 452q37 0 70 -13.5t58 -36.5t39.5 -54t13.5 -65h-283q-1 -45 11 -80t34.5 -60t53.5 -38t68 -13q38 0 67 11.5t53 40.5l7 -6q-8 -30 -27.5 -57.5t-46.5 -47.5
t-60.5 -32t-70.5 -12q-41 0 -76 17t-60.5 45.5t-39.5 66t-14 78.5q0 53 15.5 99.5t43 81.5t64.5 55t80 20z" />
    <glyph glyph-name="afii10072" unicode="&#x436;" horiz-adv-x="872" 
d="M329 14q55 0 55 74v101l-53 43l-85 -156q-9 -14 -8 -25t8.5 -19.5t19.5 -13t24 -4.5v-14h-274v14q30 0 54.5 19.5t41.5 44.5l138 229l-14 13l-20 20t-40 37t-49.5 37t-49.5 21v14h208v-14q-11 0 -19.5 -6.5t-13.5 -16t-7.5 -20t-2.5 -17.5q0 -20 6.5 -34.5t19.5 -27.5
l116 -101v148q0 37 -15.5 55.5t-42.5 18.5v14h230v-14q-27 0 -42.5 -18.5t-15.5 -55.5v-142l107 97q13 13 19.5 26.5t6.5 33.5q0 7 -2.5 17.5t-8 20t-13.5 16t-19 6.5v14h208v-14q-23 -4 -49.5 -20.5t-49.5 -36t-40 -36.5l-20 -20l-14 -13l138 -231q17 -25 41.5 -44.5
t54.5 -19.5v-14h-274v14q12 0 23.5 4.5t19 13t9 19.5t-7.5 25l-85 156l-44 -38v-106q0 -37 16.5 -55.5t43.5 -18.5v-14h-230v14h1z" />
    <glyph glyph-name="afii10073" unicode="&#x437;" horiz-adv-x="457" 
d="M246 -6q-18 -1 -35.5 -1t-32.5 2q-32 2 -62 13t-53.5 28.5t-37 39.5t-11.5 46q2 26 20 38t39 11t38 -14.5t17 -37.5t8 -47.5t25 -39.5q19 -18 42 -21.5t44 4.5t38 26.5t25 44.5q6 22 6 44.5t-7 41.5t-23 31t-41 12q-14 2 -34.5 2h-35.5v27h32.5t28.5 1q23 2 38 16
t22.5 34t8 43t-5.5 43t-18.5 34t-30.5 16q-32 0 -56.5 -21t-48.5 -46t-49 -46t-57 -21q41 67 38 153q14 -11 25 -14t28 -3q7 0 20.5 2.5t29.5 5.5t32.5 5.5t29.5 2.5l1 1q40 1 72 -7.5t54.5 -25t34.5 -40.5t12 -52q0 -18 -9.5 -33t-25 -26.5t-36.5 -20t-44 -12.5
q37 0 63.5 -8.5t43.5 -23t25.5 -33.5t8.5 -41q0 -63 -52.5 -98.5t-143.5 -34.5z" />
    <glyph glyph-name="afii10074" unicode="&#x438;" horiz-adv-x="574" 
d="M103 359q0 24 -8 38.5t-20 22.5t-26.5 10.5t-27.5 2.5v14h261v-14q-9 0 -20.5 -2.5t-22 -10.5t-17.5 -22.5t-7 -38.5v-223l150 222v1q0 24 -6.5 38.5t-16.5 22.5t-20.5 10.5t-19.5 2.5v14h246v-14q-9 0 -21 -2.5t-23 -10.5t-19 -22.5t-8 -38.5v-271q0 -24 8 -38.5
t19 -22.5t23 -10.5t21 -2.5v-14h-246v14q9 0 19.5 2.5t20.5 10.5t16.5 22.5t6.5 38.5v220l-150 -222q0 -23 7 -37.5t17.5 -22t22 -10t20.5 -2.5v-14h-261v14q13 0 27.5 2.5t26.5 10.5t20 22.5t8 38.5v271z" />
    <glyph glyph-name="afii10075" unicode="&#x439;" horiz-adv-x="574" 
d="M103 88q0 -24 -8 -38.5t-20 -22.5t-26.5 -10.5t-27.5 -2.5v-14h261v14q-9 0 -20.5 2.5t-22 10t-17.5 22t-7 37.5l150 222v-220q0 -24 -6.5 -38.5t-16.5 -22.5t-20.5 -10.5t-19.5 -2.5v-14h246v14q-9 0 -21 2.5t-23 10.5t-19 22.5t-8 38.5v271q0 24 8 38.5t19 22.5
t23 10.5t21 2.5v14h-246v-14q9 0 19.5 -2.5t20.5 -10.5t16.5 -22.5t6.5 -38.5v-1l-150 -222v223q0 24 7 38.5t17.5 22.5t22 10.5t20.5 2.5v14h-261v-14q13 0 27.5 -2.5t26.5 -10.5t20 -22.5t8 -38.5v-271zM339 537q7 11 8.5 24.5t0.5 26.5q-1 17 11 26.5t27 11t29 -6
t16 -25.5q3 -17 -5.5 -33.5t-24 -30.5t-35.5 -23.5t-40 -12.5q-37 -5 -76 0q-21 3 -41.5 12.5t-36 23.5t-24.5 30.5t-6 33.5q3 18 17 25.5t29.5 6t28 -11t11.5 -26.5q-1 -12 0.5 -25t6.5 -24q8 -14 27 -21.5t36 -3.5q13 2 24 8t17 15z" />
    <glyph glyph-name="afii10076" unicode="&#x43a;" horiz-adv-x="570" 
d="M205 235h30q28 4 44 18.5t25.5 34t15 41.5t13.5 40q7 17 14.5 31t18.5 25q13 13 36 19.5t45 3.5t36.5 -17t10.5 -41q-3 -20 -18 -36t-35 -19q-8 -2 -19 1t-22 6.5t-21 5t-17 -2.5q-11 -6 -16.5 -19.5t-11.5 -29t-15 -32t-25 -29.5h71l98 -157q16 -26 41 -45t55 -19v-14
h-274v14q12 0 23.5 4.5t19 12.5t9 19.5t-7.5 25.5l-80 141h-44v-129q0 -74 55 -74v-14h-234v14q13 0 25.5 2.5t21.5 10.5t14.5 22.5t5.5 38.5v269q0 24 -5.5 38.5t-14.5 22.5t-21.5 10.5t-25.5 2.5v14h234v-14q-55 0 -55 -74v-122z" />
    <glyph glyph-name="afii10077" unicode="&#x43b;" horiz-adv-x="574" 
d="M349 358q0 24 -8 38.5t-20 22.5t-26.5 10.5t-27.5 2.5q-3 0 1 0t1 -1q-20 -3 -37.5 -13t-18.5 -36q-2 -27 -2 -65t-2 -80.5t-8.5 -86t-20.5 -81.5q-12 -34 -29.5 -54.5t-52.5 -28.5q-12 -2 -26 0.5t-26.5 10t-22 19.5t-12.5 28q-6 33 3.5 55t25.5 32.5t35 9.5t33 -14
q21 -22 12 -70q0 -10 6 -13t16 10q12 21 20.5 50t14 61t7.5 65.5t2 64.5t-3 56t-7 41q-3 10 -11.5 18t-20 14t-23.5 9t-22 3v10h172h268v-14q-14 0 -27.5 -2.5t-25 -10.5t-18.5 -22.5t-7 -38.5v-270q0 -24 7 -38.5t18.5 -22.5t25 -10.5t27.5 -2.5v-14h-272v14q13 0 27.5 2.5
t26.5 10.5t20 22.5t8 38.5v270z" />
    <glyph glyph-name="afii10078" unicode="&#x43c;" horiz-adv-x="674" 
d="M457 445h190v-14q-14 0 -27.5 -2.5t-25 -10.5t-18.5 -22.5t-7 -38.5v-269q0 -24 7 -38.5t18.5 -22.5t25 -10.5t27.5 -2.5v-14h-272v14q13 0 27.5 2.5t26.5 10.5t20 22.5t8 38.5v292l-166 -381l-160 386v-305q0 -19 10 -31.5t23.5 -20t28 -11t23.5 -3.5v-14h-186v14
q11 0 24.5 4.5t25 13.5t19.5 21t8 27v293q0 31 -24 43.5t-54 12.5v16l209 1l107 -254z" />
    <glyph glyph-name="afii10079" unicode="&#x43d;" horiz-adv-x="574" 
d="M103 358q0 24 -8 38.5t-20 22.5t-26.5 10.5t-27.5 2.5v14h261v-14q-9 0 -20.5 -2.5t-22 -10.5t-17.5 -22.5t-7 -38.5v-106l150 1v105q0 24 -6.5 38.5t-16.5 22.5t-20.5 10.5t-19.5 2.5v14h246v-14q-9 0 -21 -2.5t-23 -10.5t-19 -22.5t-8 -38.5v-270q0 -24 8 -38.5
t19 -22.5t23 -10.5t21 -2.5v-14h-246v14q9 0 19.5 2.5t20.5 10.5t16.5 22.5t6.5 38.5v136h-150v-136q0 -24 7 -38.5t17.5 -22.5t22 -10.5t20.5 -2.5v-14h-261v14q13 0 27.5 2.5t26.5 10.5t20 22.5t8 38.5v270z" />
    <glyph glyph-name="afii10080" unicode="&#x43e;" horiz-adv-x="502" 
d="M252 436q-35 0 -53.5 -21t-27 -53t-10 -70.5t-1.5 -73.5t1.5 -73.5t10 -70.5t27 -53t53.5 -21t53.5 21t27 53t10 70.5t1.5 73.5t-1.5 73.5t-10 70.5t-27 53t-53.5 21zM252 452q47 0 88 -19t71 -51t47.5 -74.5t17.5 -89.5t-17.5 -89.5t-47.5 -74.5t-71 -51t-88 -19t-88 19
t-71 51t-47.5 74.5t-17.5 89.5t17.5 89.5t47.5 74.5t71 51t88 19z" />
    <glyph glyph-name="afii10081" unicode="&#x43f;" horiz-adv-x="574" 
d="M282 432q-9 0 -20.5 -2.5t-22 -10.5t-17.5 -22.5t-7 -38.5v-270q0 -24 7 -38.5t17.5 -22.5t22 -10.5t20.5 -2.5v-14h-261v14q13 0 27.5 2.5t26.5 10.5t20 22.5t8 38.5v270q0 24 -8 38.5t-20 22.5t-26.5 10.5t-27.5 2.5v14h281h246v-14q-9 0 -21 -2.5t-23 -10.5t-19 -22.5
t-8 -38.5v-270q0 -24 8 -38.5t19 -22.5t23 -10.5t21 -2.5v-14h-246v14q9 0 19.5 2.5t20.5 10.5t16.5 22.5t6.5 38.5v270q0 24 -6.5 38.5t-16.5 22.5t-20.5 10.5t-19.5 2.5h-20z" />
    <glyph glyph-name="afii10082" unicode="&#x440;" horiz-adv-x="501" 
d="M205 119q0 -11 4 -27.5t12.5 -32t23 -26.5t35.5 -11q26 0 43 17t27.5 43.5t14.5 58t4 61.5t-5.5 61t-18 56.5t-31.5 41.5t-46 16q-20 0 -36 -7.5t-27 -18.5v-232zM11 -224q13 0 27.5 2.5t26.5 10.5t20 22.5t8 38.5v172v304q0 29 -17 47.5t-62 18.5v10q71 5 115.5 23
t75.5 41v-93q7 10 20.5 24t31 26t37.5 20.5t40 8.5q36 0 63.5 -16.5t46 -43.5t28.5 -61.5t10 -70.5q0 -48 -19 -94.5t-49 -83t-66.5 -58.5t-71.5 -22q-20 0 -40 4.5t-31 12.5v-169q0 -24 7 -38.5t18.5 -22.5t25 -10.5t27.5 -2.5v-14h-272v14v0z" />
    <glyph glyph-name="afii10083" unicode="&#x441;" horiz-adv-x="430" 
d="M205 455q16 0 29 -3t25 -6.5t25 -6.5t29 -3q14 0 25 4.5t17 12.5q2 -39 12.5 -78t33.5 -78q-18 -3 -38 4t-38 18.5t-32.5 25.5t-20.5 26q-14 24 -37 44.5t-46 20.5q-24 0 -38.5 -12.5t-22.5 -32.5t-10.5 -44t-2.5 -46q0 -39 12.5 -77t35.5 -69t55 -50t71 -19
q37 0 68.5 14.5t43.5 43.5l10 -1q-8 -28 -22 -57t-35 -52.5t-49 -38.5t-62 -15q-53 0 -94 20t-69.5 53.5t-43.5 77.5t-15 92q0 43 12.5 84.5t36.5 74.5t58 53t77 20z" />
    <glyph glyph-name="afii10084" unicode="&#x442;" horiz-adv-x="515" 
d="M29 465q5 -5 11.5 -9t17 -7t27 -4.5t42.5 -2.5h81h143q37 1 60.5 3t37 5t20.5 6.5t12 8.5q4 -23 0 -45.5t-6.5 -44t0.5 -41t21 -35.5q-29 -5 -48.5 2.5t-32.5 21.5t-21.5 32t-15 33.5t-12.5 26t-15 10.5q-19 0 -28 -23t-9 -49v-265q0 -24 7 -38.5t18.5 -22.5t25 -10.5
t27.5 -2.5v-14h-272v14q13 0 27 2.5t25.5 10.5t18.5 22.5t7 38.5v265q0 13 -2.5 26t-7.5 23t-12.5 16.5t-16.5 6.5t-15 -10.5t-12.5 -26t-15 -33.5t-21.5 -32t-32.5 -21.5t-48.5 -2.5q18 16 21 35.5t0.5 41t-6.5 44t0 45.5z" />
    <glyph glyph-name="afii10085" unicode="&#x443;" horiz-adv-x="540" 
d="M270 433q-28 1 -42.5 -11t-14.5 -25q0 -5 2 -15t4 -15l94 -228l53 138q7 15 8.5 28.5t1.5 31.5q0 68 -59 96v14h206v-14q-23 -9 -46 -33.5t-41.5 -52t-31.5 -51t-16 -30.5l-182 -419q-6 -13 -16.5 -28t-25.5 -28t-34 -22t-40 -9q-18 0 -34.5 5.5t-29.5 15.5t-21 24t-8 32
q0 25 16.5 43.5t41.5 18.5q20 0 32.5 -8.5t22.5 -18.5t19 -18.5t22 -8.5q9 0 17 5t14.5 12.5t12 15.5t8.5 15l51 107l-173 388q-12 26 -30.5 35.5t-37.5 9.5v14h258z" />
    <glyph glyph-name="afii10086" unicode="&#x444;" horiz-adv-x="670" 
d="M194 598v10q71 5 115.5 23t75.5 41v-243q24 15 50 19t51.5 -1.5t49 -19.5t41.5 -34q31 -34 48.5 -79t17.5 -90t-17.5 -90t-48.5 -79q-19 -21 -42 -35t-48.5 -19.5t-51.5 -2t-50 18.5v-167q0 -24 7 -38.5t18.5 -22.5t25 -10.5t27.5 -2.5v-14h-272v14q13 0 27.5 2.5
t26.5 10.5t20 22.5t8 38.5v163q-48 -26 -99 -13.5t-88 54.5q-31 34 -48.5 79t-17.5 90t17.5 90t48.5 79q37 42 88 53.5t99 -14.5v101q0 29 -17 47.5t-62 18.5zM385 42q35 -23 59.5 -12t39 43t20.5 78t5 93q-1 42 -7.5 80.5t-21 63.5t-37.5 31.5t-58 -14.5v-363zM274 407
q-35 19 -58.5 10t-38 -35.5t-21 -66t-6.5 -82.5q0 -45 7 -89t22 -74t38.5 -41t56.5 9v369z" />
    <glyph glyph-name="afii10087" unicode="&#x445;" horiz-adv-x="563" 
d="M289 432q-20 -2 -33 -8.5t-13 -24.5q0 -8 3 -14t5 -8l63 -94l27 37q12 14 16.5 29t4.5 35q0 19 -12.5 30.5t-26.5 17.5v15h184v-15q-32 -13 -52 -29t-31 -27l-100 -107l140 -201q15 -23 36 -38t51 -15v-15h-278v15q21 0 38 8.5t17 28.5q0 11 -2 19t-8 15l-75 109l-42 -54
q-10 -13 -17 -31t-7 -40q0 -6 3.5 -15.5t10 -18.5t14.5 -15t17 -6v-15h-208v15q48 6 109 72l108 125l-125 177q-13 18 -29.5 30.5t-36.5 12.5v15h249v-15z" />
    <glyph glyph-name="afii10088" unicode="&#x446;" horiz-adv-x="599" 
d="M21 0v14q13 0 27.5 2.5t26.5 10.5t20 22.5t8 38.5v270q0 24 -8 38.5t-20 22.5t-26.5 10.5t-27.5 2.5v14h261v-14q-9 0 -20.5 -2.5t-22 -10.5t-17.5 -22.5t-7 -38.5v-270q0 -24 7 -38.5t17.5 -22.5t22 -10.5t20.5 -2.5h20q9 0 19.5 2.5t20.5 10.5t16.5 22.5t6.5 38.5v270
q0 24 -6.5 38.5t-16.5 22.5t-20.5 10.5t-19.5 2.5v14h246v-14q-9 0 -21 -2.5t-23 -10.5t-19 -22.5t-8 -38.5l1 -240q-1 -48 10 -74t28 -28q18 -2 39 24q12 15 19.5 11.5t-5.5 -33.5q-17 -39 -17.5 -76.5t25.5 -87.5q-26 7 -42 17t-27 23t-19.5 28t-19.5 32t-22.5 31
t-33.5 15h-392z" />
    <glyph glyph-name="afii10089" unicode="&#x447;" horiz-adv-x="592" 
d="M485 88q0 -24 7 -38.5t18.5 -22.5t25 -10.5t27.5 -2.5v-14h-272v14q13 0 28 2.5t28 10.5t21 22.5t8 38.5v131q-12 -6 -32.5 -17.5t-46 -22t-55.5 -18.5t-62 -8q-36 0 -60 21t-24 69v114q0 24 -8 38.5t-20 22.5t-26.5 10.5t-27.5 2.5v14h262v-14q-14 0 -25.5 -2.5
t-20.5 -10.5t-14 -22.5t-5 -38.5v-78q0 -36 13.5 -51t36 -15.5t53 10t63.5 25.5v109q0 24 -6 38.5t-16 22.5t-23 10.5t-26 2.5v14h258v-14q-14 0 -27.5 -2.5t-25 -10.5t-18.5 -22.5t-7 -38.5z" />
    <glyph glyph-name="afii10090" unicode="&#x448;" horiz-adv-x="836" 
d="M813 0h-791v14q13 0 27.5 2.5t26.5 10.5t20 22.5t8 38.5v270q0 24 -8 38.5t-20 22.5t-26.5 10.5t-27.5 2.5v14h261v-14q-9 0 -20.5 -2.5t-22 -10.5t-17.5 -22.5t-7 -38.5v-269q0 -24 7 -38.5t17.5 -22.5t22 -10.5t20.5 -2.5h20q9 0 19.5 2.5t20.5 10.5t16.5 22.5
t6.5 38.5v269q0 24 -6.5 38.5t-16.5 22.5t-20.5 10.5t-19.5 2.5v14h246v-14q-9 0 -21 -2.5t-23 -10.5t-19 -22.5t-8 -38.5v-269q0 -24 8 -38.5t19 -22.5t23 -10.5t21 -2.5h18q9 0 19.5 2.5t20.5 10.5t16.5 22.5t6.5 38.5v269q0 24 -6.5 38.5t-16.5 22.5t-20.5 10.5
t-19.5 2.5v14h246v-14q-9 0 -21 -2.5t-23 -10.5t-19 -22.5t-8 -38.5v-270q0 -24 8 -38.5t19 -22.5t23 -10.5t21 -2.5v-14z" />
    <glyph glyph-name="afii10091" unicode="&#x449;" horiz-adv-x="858" 
d="M22 0v14q13 0 27.5 2.5t26.5 10.5t20 22.5t8 38.5v270q0 24 -8 38.5t-20 22.5t-26.5 10.5t-27.5 2.5v14h261v-14q-9 0 -20.5 -2.5t-22 -10.5t-17.5 -22.5t-7 -38.5v-269q0 -24 7 -38.5t17.5 -22.5t22 -10.5t20.5 -2.5h20q9 0 19.5 2.5t20.5 10.5t16.5 22.5t6.5 38.5v269
q0 24 -6.5 38.5t-16.5 22.5t-20.5 10.5t-19.5 2.5v14h246v-14q-9 0 -21 -2.5t-23 -10.5t-19 -22.5t-8 -38.5v-269q0 -24 8 -38.5t19 -22.5t23 -10.5t21 -2.5h18q9 0 19.5 2.5t20.5 10.5t16.5 22.5t6.5 38.5v269q0 24 -6.5 38.5t-16.5 22.5t-20.5 10.5t-19.5 2.5v14h246v-14
q-9 0 -21 -2.5t-23 -10.5t-19 -22.5t-8 -38.5v-238q-1 -48 10 -74t28 -28q18 -2 39 24q12 15 19.5 11.5t-5.5 -33.5q-17 -39 -17.5 -76.5t25.5 -87.5q-26 7 -42 17t-27 23t-19.5 28t-19.5 32t-22.5 30t-33.5 14h-655z" />
    <glyph glyph-name="afii10092" unicode="&#x44a;" horiz-adv-x="623" 
d="M356 259h-52v-191q0 -32 12.5 -42.5t38.5 -10.5h24q31 0 59 23t37 57q7 30 2 59t-20.5 52t-41.5 37.5t-59 15.5zM192 358q0 26 -11.5 48.5t-30.5 22.5q-9 0 -15 -10.5t-12.5 -26t-15 -33.5t-21.5 -32t-32.5 -21.5t-48.5 -2.5q18 16 21 35.5t0.5 41t-6.5 44t0 45.5
q5 -5 11.5 -9t17 -7t27 -4.5t42.5 -2.5h116h148v-14q-14 0 -27.5 -2.5t-25 -10.5t-18.5 -22.5t-7 -38.5v-79h36q18 0 38 -2t37 -4t29.5 -3.5t15.5 -2.5q30 -7 59.5 -22t50.5 -38.5t29 -53.5t-5 -67q-8 -25 -28 -41.5t-44 -26.5t-49 -14t-43 -4h-320v14q13 0 27.5 2.5
t26.5 10.5t20 22.5t8 38.5v53v217z" />
    <glyph glyph-name="afii10093" unicode="&#x44b;" horiz-adv-x="826" 
d="M719 88q0 -24 7 -38.5t18.5 -22.5t25 -10.5t27.5 -2.5v-14h-272v14q13 0 27.5 2.5t26.5 10.5t20 22.5t8 38.5v270q0 24 -8 38.5t-20 22.5t-26.5 10.5t-27.5 2.5v14h272v-14q-14 0 -27.5 -2.5t-25 -10.5t-18.5 -22.5t-7 -38.5v-270zM267 259h-51v-191q0 -32 12.5 -42.5
t38.5 -10.5h23q31 0 59 23t37 57q7 30 2 59t-20.5 52t-41.5 37.5t-59 15.5zM251 279q18 0 38 -2t37 -4t29.5 -3.5t15.5 -2.5q30 -7 59.5 -22t50.5 -38.5t29 -53.5t-5 -67q-8 -25 -28 -41.5t-44 -26.5t-49 -14t-43 -4h-319v14q13 0 27.5 2.5t26.5 10.5t20 22.5t8 38.5v53v217
q0 24 -8 38.5t-20 22.5t-26.5 10.5t-27.5 2.5v14h272v-14q-14 0 -27.5 -2.5t-25 -10.5t-18.5 -22.5t-7 -38.5v-79h35z" />
    <glyph glyph-name="afii10094" unicode="&#x44c;" horiz-adv-x="538" 
d="M267 259h-51v-191q0 -32 12.5 -42.5t38.5 -10.5h23q31 0 59 23t37 57q7 30 2 59t-20.5 52t-41.5 37.5t-59 15.5zM251 279q18 0 38 -2t37 -4t29.5 -3.5t15.5 -2.5q30 -7 59.5 -22t50.5 -38.5t29 -53.5t-5 -67q-8 -25 -28 -41.5t-44 -26.5t-49 -14t-43 -4h-319v14
q13 0 27.5 2.5t26.5 10.5t20 22.5t8 38.5v53v217q0 24 -8 38.5t-20 22.5t-26.5 10.5t-27.5 2.5v14h272v-14q-14 0 -27.5 -2.5t-25 -10.5t-18.5 -22.5t-7 -38.5v-79h35z" />
    <glyph glyph-name="afii10095" unicode="&#x44d;" horiz-adv-x="457" 
d="M237 448q45 1 82 -16.5t63.5 -49t41 -73t14.5 -86.5q0 -52 -20 -97.5t-54.5 -77.5t-80.5 -47t-99 -6q-32 2 -62 13t-53.5 28.5t-37 39.5t-11.5 46q2 26 20 38t39 11t38 -14.5t17 -37.5q0 -18 5.5 -37.5t16 -35t26.5 -25.5t36 -10q34 0 52.5 20.5t27.5 52t10.5 68.5
t1.5 71v2q-17 -15 -35 -27t-26 -14q-23 -8 -38 1t-27 21q-8 8 -16 15t-17.5 8.5t-22 -4.5t-28.5 -24l-11 6q32 59 64.5 77.5t52.5 10.5q10 -4 19.5 -12t19.5 -15.5t21 -13.5t25 -7q2 0 8 1.5t11 4.5q0 25 -2 51t-7 49t-15 41.5t-26 28.5q-35 7 -61.5 -12t-51 -45t-50 -48
t-58.5 -21q41 67 38 153q14 -11 25 -14t28 -3q7 0 19.5 2t27.5 5t31 5.5t29 2.5z" />
    <glyph glyph-name="afii10096" unicode="&#x44e;" horiz-adv-x="763" 
d="M514 457q47 0 88 -19t71 -51t47.5 -74.5t17.5 -89.5t-17.5 -89.5t-47.5 -74.5t-71 -51t-88 -19t-88 19t-71 51t-47.5 74.5t-17.5 89.5v1h-75v-136q0 -24 7 -38.5t17.5 -22.5t22 -10.5t20.5 -2.5v-14h-261v14q13 0 27.5 2.5t26.5 10.5t20 22.5t8 38.5v271q0 24 -8 38.5
t-20 22.5t-26.5 10.5t-27.5 2.5v14h261v-14q-9 0 -20.5 -2.5t-22 -10.5t-17.5 -22.5t-7 -38.5v-107h77q5 42 24.5 79.5t49 65t67.5 44t81 16.5zM514 441q-35 0 -53.5 -21t-27 -53t-10 -70.5t-1.5 -73.5t1.5 -73.5t10 -70.5t27 -53t53.5 -21t53.5 21t27 53t10 70.5t1.5 73.5
t-1.5 73.5t-10 70.5t-27 53t-53.5 21z" />
    <glyph glyph-name="afii10097" unicode="&#x44f;" horiz-adv-x="605" 
d="M384 377q0 23 -16 34.5t-38 13.5q4 0 2 0h-6h-9h-7q-42 -5 -66 -34t-26.5 -63.5t18.5 -64t69 -34.5h79v148zM209 219q-70 5 -101.5 36.5t-26.5 71.5q4 36 24 59.5t48 37t59 18.5t58 3h305v-14q-14 0 -27.5 -2.5t-25 -10.5t-18.5 -22.5t-7 -38.5v-269q0 -24 7 -38.5
t18.5 -22.5t25 -10.5t27.5 -2.5v-14h-272v14q13 0 27.5 2.5t26.5 10.5t20 22.5t8 38.5l-1 121h-64l-79 -133q-9 -14 -7.5 -25.5t9 -19.5t19 -12.5t23.5 -4.5v-14h-265v14q30 0 55 19t41 45z" />
    <glyph glyph-name="afii10071" unicode="&#x451;" 
d="M291 306q0 19 -4 41t-13.5 41.5t-24.5 32.5t-37 13q-23 0 -38.5 -11t-25.5 -29t-14.5 -41t-4.5 -47h162zM231 452q37 0 70 -13.5t58 -36.5t39.5 -54t13.5 -65h-283q-1 -45 11 -80t34.5 -60t53.5 -38t68 -13q38 0 67 11.5t53 40.5l7 -6q-8 -30 -27.5 -57.5t-46.5 -47.5
t-60.5 -32t-70.5 -12q-41 0 -76 17t-60.5 45.5t-39.5 66t-14 78.5q0 53 15.5 99.5t43 81.5t64.5 55t80 20zM81 547q0 24 17 41t41 17t41 -17t17 -41t-17 -41t-41 -17t-41 17t-17 41zM242 547q0 24 17 41t41 17t41 -17t17 -41t-17 -41t-41 -17t-41 17t-17 41z" />
    <glyph glyph-name="afii10101" unicode="&#x454;" horiz-adv-x="432" 
d="M206 455q16 0 29 -3t25 -6.5t25 -6.5t29 -3q14 0 25 4.5t17 12.5q2 -39 12.5 -78t33.5 -78q-18 -3 -38 4t-38 18.5t-32.5 25.5t-20.5 26q-14 24 -37 44.5t-46 20.5q-24 0 -38.5 -12.5t-22.5 -32.5t-10.5 -44t-2.5 -46q0 -23 5 -51q16 16 35.5 30.5t28.5 16.5q20 6 33 2
t23.5 -12.5t19 -18t19 -13t24 1.5t34.5 25l11 -6q-32 -43 -54.5 -63t-39 -24.5t-29.5 1.5t-25.5 16t-26.5 19t-34 10q-5 0 -13 -6q9 -29 24.5 -55t36.5 -45.5t46.5 -31t55.5 -11.5q37 0 68.5 14.5t43.5 43.5l10 -1q-8 -28 -22 -57t-35 -52.5t-49 -38.5t-62 -15q-53 0 -94 20
t-69.5 53.5t-43.5 77.5t-15 92q0 43 12.5 84.5t36.5 74.5t58 53t77 20z" />
    <glyph glyph-name="afii10103" unicode="&#x456;" horiz-adv-x="306" 
d="M85 553q0 29 19.5 48.5t48.5 19.5t48.5 -19.5t19.5 -48.5t-19.5 -48.5t-48.5 -19.5t-48.5 19.5t-19.5 48.5zM210 88q0 -24 7 -38.5t18.5 -22.5t25 -10.5t27.5 -2.5v-14h-272v14q13 0 27.5 2.5t26.5 10.5t20 22.5t8 38.5v269q0 24 -8 38.5t-20 22.5t-26.5 10.5t-27.5 2.5
v14h272v-14q-14 0 -27.5 -2.5t-25 -10.5t-18.5 -22.5t-7 -38.5v-269z" />
    <glyph glyph-name="afii10104" unicode="&#x457;" horiz-adv-x="311" 
d="M210 88q0 -24 7 -38.5t18.5 -22.5t25 -10.5t27.5 -2.5v-14h-272v14q13 0 27.5 2.5t26.5 10.5t20 22.5t8 38.5v269q0 24 -8 38.5t-20 22.5t-26.5 10.5t-27.5 2.5v14h272v-14q-14 0 -27.5 -2.5t-25 -10.5t-18.5 -22.5t-7 -38.5v-269zM16 543q0 24 17 41t41 17t41 -17
t17 -41t-17 -41t-41 -17t-41 17t-17 41zM177 543q0 24 17 41t41 17t41 -17t17 -41t-17 -41t-41 -17t-41 17t-17 41z" />
    <glyph glyph-name="afii10105" unicode="&#x458;" horiz-adv-x="245" 
d="M99 344q0 29 -17 47.5t-62 18.5v10q71 5 115.5 23t75.5 41v-545q0 -4 3 -20.5t3 -31.5q0 -25 -10 -47t-26.5 -38.5t-39 -26t-47.5 -9.5q-17 0 -33.5 5t-29.5 14.5t-21 23.5t-8 31q0 23 14.5 41t37.5 18q28 0 41 -10.5t21.5 -22.5t17.5 -22.5t27 -10.5q14 0 21 12t7 26
q0 23 -14 42.5t-31 36t-31 29t-14 21.5v344zM79 589q0 29 19.5 48.5t48.5 19.5t48.5 -19.5t19.5 -48.5t-19.5 -48.5t-48.5 -19.5t-48.5 19.5t-19.5 48.5z" />
    <glyph glyph-name="afii10110" unicode="&#x45e;" horiz-adv-x="552" 
d="M283 447h-258v-14q19 0 37.5 -9.5t30.5 -35.5l173 -388l-51 -107q-3 -7 -8.5 -15t-12 -15.5t-14.5 -12.5t-17 -5q-13 0 -22 8.5t-19 18.5t-22.5 18.5t-32.5 8.5q-25 0 -41.5 -18.5t-16.5 -43.5q0 -18 8 -32t21 -24t29.5 -15.5t34.5 -5.5q21 0 40 9t34 22t25.5 28t16.5 28
l182 419q3 7 16 30.5t31.5 51t41.5 52t46 33.5v14h-206v-14q59 -28 59 -96q0 -18 -1.5 -31.5t-8.5 -28.5l-53 -138l-94 228q-2 5 -4 15t-2 15q0 13 14.5 25t42.5 11zM349 537q7 11 8.5 24.5t0.5 26.5q-1 17 11 26.5t27 11t29 -6t16 -25.5q3 -17 -5.5 -33.5t-24 -30.5
t-35.5 -23.5t-40 -12.5q-5 -1 -11 -2t-12 -1q-11 0 -26.5 0.5t-26.5 2.5q-21 3 -41.5 12.5t-36 23.5t-24.5 30.5t-6 33.5q3 18 17 25.5t29.5 6t28 -11t11.5 -26.5q-1 -12 0.5 -25t6.5 -24q8 -14 27 -21.5t36 -3.5q13 2 24 8t17 15z" />
    <glyph glyph-name="afii10146" unicode="&#x462;" horiz-adv-x="868" 
d="M396 534v-156q61 0 103 -1t72.5 -4t53.5 -8t47 -13q30 -10 60.5 -26t54.5 -38t39.5 -51.5t15.5 -66.5q0 -44 -24 -76t-60.5 -53t-79 -31t-79.5 -10h-430v22q18 0 36 3.5t32 12.5t23 24t9 38v434h-24q-26 0 -46 -13.5t-36 -30.5q-17 -18 -30.5 -33.5t-30 -28t-38.5 -23
t-55 -17.5q16 23 24 45t11.5 44t4 43t1.5 42h219q0 23 -9 39.5t-23.5 27t-32.5 15t-36 4.5v14h328v-14q-18 0 -36 -4.5t-32 -15t-23 -27t-9 -39.5h235q1 -21 1.5 -42t4 -43t11.5 -44t24 -45q-33 7 -55 17.5t-38.5 23t-30.5 28t-30 33.5q-16 17 -36 30.5t-46 13.5h-40z
M396 100q0 -47 18 -62.5t54 -15.5h81q26 0 53 12.5t48.5 34t34.5 50t13 60.5q-1 60 -27.5 94.5t-69 51.5t-96 21.5t-109.5 3.5v-250z" />
    <glyph glyph-name="afii10194" unicode="&#x463;" horiz-adv-x="627" 
d="M197 441v63q0 29 -17 47.5t-62 18.5v10q71 5 115.5 23t75.5 41v-202h110q11 0 22.5 5t21.5 15q4 -23 4.5 -43t2.5 -38.5t8 -36t21 -35.5q-29 -5 -50 2t-36.5 20t-26.5 29.5t-20 31t-16.5 24.5t-16.5 10h-24v-147h35q18 0 38 -2t37 -4t29.5 -3.5t15.5 -2.5q30 -7 59.5 -22
t50.5 -38.5t29 -53.5t-5 -67q-8 -25 -28 -41.5t-44 -26.5t-49 -14t-43 -4h-319v14q13 0 27.5 2.5t26.5 10.5t20 22.5t8 38.5v337h-21q-9 0 -16.5 -10t-16.5 -24.5t-20 -31t-26.5 -29.5t-36.5 -20t-50 -2q15 18 21 35.5t8 36t2.5 38.5t4.5 43q10 -10 21.5 -15t22.5 -5h107z
M309 259v-191q0 -32 12.5 -42.5t38.5 -10.5h23q31 0 59 23t37 57q7 30 2 59t-20.5 52t-41.5 37.5t-59 15.5h-51z" />
    <glyph glyph-name="afii10050" unicode="&#x490;" horiz-adv-x="550" 
d="M338 634h-32q-10 0 -20.5 -4.5t-19 -12.5t-14 -19.5t-5.5 -25.5v-472q0 -23 9 -38t23 -24t32 -12.5t36 -3.5v-22h-328v22q18 0 36 3.5t32 12.5t23 24t9 38v462q0 23 -9 39.5t-23 27t-32 15t-36 4.5v14l301 1q28 2 45.5 12t30.5 24.5t24.5 31.5t27.5 32.5t39.5 28
t60.5 17.5q-16 -23 -23 -45t-9 -44t-1 -43t0 -42z" />
    <glyph glyph-name="afii10098" unicode="&#x491;" horiz-adv-x="408" 
d="M267 447q13 0 24.5 19t28 41t41 39t64.5 13q-15 -18 -21.5 -35t-8.5 -35t-1 -37t2 -41q-10 10 -21.5 15t-22.5 5h-64q-14 0 -27.5 -2.5t-25 -10t-18.5 -21.5t-7 -38v-271q0 -24 7 -38.5t18.5 -22.5t25 -10.5t27.5 -2.5v-14h-272v14q13 0 27.5 2.5t26.5 10.5t20 22.5
t8 38.5v270q0 24 -8 38.5t-20 23t-26.5 11t-27.5 2.5v14h251z" />
    <glyph glyph-name="uni0492" unicode="&#x492;" horiz-adv-x="613" 
d="M387 342h-140v-242q0 -23 9 -38t23 -24t32 -12.5t36 -3.5v-22h-328v22q18 0 36 3.5t32 12.5t23 24t9 38v242h-99v26h99v194q0 23 -9 39.5t-23 27t-32 15t-36 4.5v14h542q1 -21 1.5 -42t4 -43t11.5 -44t24 -45q-33 7 -55 17.5t-38.5 23t-30.5 28t-30 33.5q-16 17 -36 30.5
t-46 13.5h-60q-10 0 -20.5 -4.5t-19 -12.5t-14 -19.5t-5.5 -25.5v-204h140v-26z" />
    <glyph glyph-name="uni0493" unicode="&#x493;" horiz-adv-x="473" 
d="M344 230h-134v-142q0 -24 7 -38.5t18.5 -22.5t25 -10.5t27.5 -2.5v-14h-272v14q13 0 27.5 2.5t26.5 10.5t20 22.5t8 38.5v142h-78v26h78v102q0 24 -8 38.5t-20 23t-26.5 11t-27.5 2.5v14h358q11 0 22.5 5t21.5 15q4 -23 4.5 -45t2.5 -43t8 -40.5t21 -37.5q-29 -5 -50 3
t-36.5 22.5t-26.5 32.5t-20 34t-16.5 27t-16.5 11q-14 0 -27.5 -2.5t-25 -10t-18.5 -21.5t-7 -38v-103h134v-26z" />
    <glyph glyph-name="uni0496" unicode="&#x496;" horiz-adv-x="1116" 
d="M731 0v22q18 0 35.5 3.5t29 11.5t14.5 21.5t-7 33.5l-128 252l-65 -62v-182q0 -23 10.5 -38t24.5 -24t29 -12.5t23 -3.5v-22h-302v22q8 0 22.5 3.5t29 12.5t25 24t10.5 38v182l-65 62l-128 -252q-11 -20 -7.5 -33.5t15 -21.5t29 -11.5t35.5 -3.5v-22h-341v22q36 0 67 15
t54 59l174 338l-112 107q-17 16 -39 35t-45.5 35t-46.5 26.5t-41 10.5v14h301v-14q-34 -2 -49.5 -22t-17.5 -45.5t8 -52t27 -42.5l182 -169v245q0 23 -9 39.5t-23 27t-32 15t-36 4.5v14h328v-14q-18 0 -36 -4.5t-32 -15t-23 -27t-9 -39.5v-245l182 169q17 16 27 42.5t8 52
t-17.5 45.5t-49.5 22v14h301v-14q-18 0 -41 -10.5t-46.5 -26.5t-45.5 -35t-39 -35l-112 -107l173 -338q14 -29 26.5 -49t25.5 -27.5t27.5 -0.5t33.5 32q7 9 13.5 12.5t11 0.5t5.5 -13t-3 -28q-6 -27 -11.5 -49t-7 -44t4 -45t21.5 -51q-33 8 -53.5 19.5t-34 25.5t-24 31
t-24.5 37q-13 19 -31 35.5t-46 17.5h-153z" />
    <glyph glyph-name="uni0497" unicode="&#x497;" horiz-adv-x="883" 
d="M583 0v14q12 0 23.5 4.5t19 13t9 19.5t-7.5 25l-85 156l-44 -38v-106q0 -37 16.5 -55.5t43.5 -18.5v-14h-230v14h1q55 0 55 74v101l-53 43l-85 -156q-9 -14 -8 -25t8.5 -19.5t19.5 -13t24 -4.5v-14h-274v14q30 0 54.5 19.5t41.5 44.5l138 229l-14 13l-20 20t-40 37
t-49.5 37t-49.5 21v14h208v-14q-11 0 -19.5 -6.5t-13.5 -16t-7.5 -20t-2.5 -17.5q0 -20 6.5 -34.5t19.5 -27.5l116 -101v148q0 37 -15.5 55.5t-42.5 18.5v14h230v-14q-27 0 -42.5 -18.5t-15.5 -55.5v-142l107 97q13 13 19.5 26.5t6.5 33.5q0 7 -2.5 17.5t-8 20t-13.5 16
t-19 6.5v14h208v-14q-23 -4 -49.5 -20.5t-49.5 -36t-40 -36.5l-20 -20l-14 -13l138 -231q5 -9 11.5 -20.5t13.5 -21t14.5 -16t14.5 -5.5q9 1 17 5.5t19 17.5q12 15 19.5 11.5t-5.5 -33.5q-17 -39 -17.5 -76.5t25.5 -87.5q-26 7 -42 17t-27 23t-19.5 28t-19.5 32t-22.5 32
t-33.5 16h-126z" />
    <glyph glyph-name="uni0498" unicode="&#x498;" horiz-adv-x="597" 
d="M573 199q0 -43 -16 -80q-12 -28 -34 -49t-50 -37t-59.5 -26t-62.5 -15q-5 -1 -10.5 -1.5t-10.5 -0.5l-31 -25q6 -2 15.5 -8t18.5 -15.5t15.5 -21.5t6.5 -25q0 -27 -14 -46t-36 -30.5t-48 -17t-51 -5.5v16q23 0 43 11.5t20 36.5q0 22 -18.5 37t-49.5 15l92 75h-4
q-22 0 -42.5 1t-40.5 5q-38 5 -73.5 21.5t-62.5 40.5t-41.5 53t-9.5 60q4 33 27 47.5t48 11.5t44.5 -21t17.5 -49q-1 -20 0.5 -42.5t9.5 -42.5t24 -35t43 -19q14 -2 26.5 -3.5t25.5 -1.5q28 0 54 9q35 13 58 47.5t27 99.5q4 70 -12.5 105t-46.5 49.5t-69.5 15t-80.5 0.5v35
q50 -1 84 5t55.5 21.5t32.5 41t15 63.5q3 28 -2 55t-16.5 48t-28 34t-37.5 12q-26 -1 -45.5 -10.5t-35.5 -24t-29.5 -33t-28.5 -36.5q-14 -17 -28 -33.5t-29 -29.5t-32 -21.5t-36 -11.5q17 49 23.5 101t-0.5 103q26 -20 69 -18q24 1 41.5 5.5t33.5 10.5t33.5 12t41.5 9
q42 5 79 -2t67 -23.5t51.5 -39.5t31.5 -49q9 -26 9 -52q0 -33 -15 -61q-17 -33 -61 -57t-105 -32q81 -3 134.5 -31t72.5 -70q13 -27 13 -61z" />
    <glyph glyph-name="uni0499" unicode="&#x499;" horiz-adv-x="457" 
d="M442 127q0 -60 -47.5 -95t-132.5 -38l-30 -25q21 0 31.5 -17.5t10.5 -37.5q0 -18 -11 -32t-27.5 -23.5t-35 -14t-33.5 -4.5l-1 10q6 0 13 3t14 9t11.5 13.5t4.5 16.5q0 14 -13 27t-34 13l74 62q-16 -1 -30.5 -1t-27.5 2q-32 2 -62 13t-53.5 28.5t-37 39.5t-11.5 46
q2 26 20 38t39 11t38 -14.5t17 -37.5t8 -47.5t25 -39.5q19 -18 42 -21.5t44 4.5t38 26.5t25 44.5q6 22 6 44.5t-7 41.5t-23 31t-41 12q-14 2 -34.5 2h-35.5v27h32.5t28.5 1q23 2 38 16t22.5 34t8 43t-5.5 43t-18.5 34t-30.5 16q-32 0 -56.5 -21t-48.5 -46t-49 -46t-57 -21
q41 67 38 153q14 -11 25 -14t28 -3q7 0 20.5 2.5t29.5 5.5t32.5 5.5t29.5 2.5l1 1q40 1 72 -7.5t54.5 -25t34.5 -40.5t12 -52q0 -18 -9.5 -33t-25 -26.5t-36.5 -20t-44 -12.5q37 0 63.5 -8.5t43.5 -23t25.5 -33.5t8.5 -41z" />
    <glyph glyph-name="uni049A" unicode="&#x49a;" horiz-adv-x="771" 
d="M387 0v22q18 0 36 3.5t30 12t15 21.5t-9 33l-103 230h-90v-222q0 -23 10.5 -38t24.5 -24t29 -12.5t23 -3.5v-22h-315v22q18 0 36 3.5t32 12.5t23 24t9 38v462q0 23 -9 39.5t-23 27t-32 15t-36 4.5v14h328v-14q-18 0 -36 -4.5t-32 -15t-23 -27t-9 -39.5v-205h9
q5 0 12 -0.5t18 -0.5q22 -1 36.5 0.5t25 8.5t19.5 21t19 40q7 18 13 37.5t13 39.5q5 16 10.5 32t11.5 31q9 23 20 43t25 35q17 18 48.5 27t61 4.5t49.5 -23.5t14 -57q-5 -29 -24.5 -46.5t-47.5 -22.5q-11 -2 -25.5 2.5t-29.5 9.5t-29 7t-23 -5q-10 -8 -18.5 -21t-15.5 -29
t-13.5 -34t-12.5 -35t-12 -32.5t-13 -25.5h70l129 -265q14 -29 26.5 -49t25.5 -27.5t27.5 -0.5t33.5 32q7 9 13.5 12.5t11 0.5t5.5 -13t-3 -28q-6 -27 -11.5 -49t-7 -44t4 -45t21.5 -51q-33 8 -53.5 19.5t-34 25.5t-24 31t-24.5 37q-13 19 -31 34.5t-46 16.5h-153z" />
    <glyph glyph-name="uni049B" unicode="&#x49b;" horiz-adv-x="588" 
d="M285 0v14q12 0 23.5 4.5t19 12.5t9 19.5t-7.5 25.5l-80 141h-44v-129q0 -74 55 -74v-14h-234v14q13 0 25.5 2.5t21.5 10.5t14.5 22.5t5.5 38.5v269q0 24 -5.5 38.5t-14.5 22.5t-21.5 10.5t-25.5 2.5v14h234v-14q-55 0 -55 -74v-122h30q28 4 44 18.5t25.5 34t15 41.5
t13.5 40q7 17 14.5 31t18.5 25q13 13 36 19.5t45 3.5t36.5 -17t10.5 -41q-3 -20 -18 -36t-35 -19q-8 -2 -19 1t-22 6.5t-21 5t-17 -2.5q-11 -6 -16.5 -19.5t-11.5 -29t-15 -32t-25 -29.5h71l98 -157q5 -9 11.5 -20.5t13.5 -21t14.5 -16t14.5 -5.5q9 1 17 5.5t19 17.5
q12 15 19.5 11.5t-5.5 -33.5q-17 -39 -17.5 -76.5t25.5 -87.5q-26 7 -42 17t-27 23t-19.5 28t-19.5 32t-22.5 32t-33.5 16h-126z" />
    <glyph glyph-name="uni04A0" unicode="&#x4a0;" horiz-adv-x="891" 
d="M284 572q0 14 -5.5 25.5t-14 19.5t-19 12.5t-20.5 4.5h-6h6q-13 0 -22.5 -3.5t-17 -9.5t-14.5 -14t-15 -17q-17 -18 -30.5 -33.5t-30 -28t-38.5 -23t-55 -17.5q16 23 23.5 46.5t10 46t1 43t-4.5 38.5h179h301v-14q-18 0 -36 -4.5t-32 -15t-23 -27t-9 -39.5v-205h9
q5 0 12 -0.5t18 -0.5q22 -1 36.5 0.5t25 8.5t19.5 21t19 40q7 18 13 37.5t13 39.5q5 16 10.5 32t11.5 31q9 23 20 43t25 35q17 18 48.5 27t61 4.5t49.5 -23.5t14 -57q-5 -29 -24.5 -46.5t-47.5 -22.5q-11 -2 -25.5 2.5t-29.5 9.5t-29 7t-23 -5q-10 -8 -18.5 -21t-15.5 -29
t-13.5 -34t-12.5 -35t-12 -32.5t-13 -25.5h70l130 -267q22 -44 53.5 -59t67.5 -15v-22h-341v22q18 0 36 3.5t30 12t15 21.5t-9 33l-103 230h-90v-222q0 -23 10.5 -38t24.5 -24t29 -12.5t23 -3.5v-22h-315v22q18 0 36 3.5t32 12.5t23 24t9 38v472z" />
    <glyph glyph-name="uni04A1" unicode="&#x4a1;" horiz-adv-x="700" 
d="M206 356q1 13 -0.5 26.5t-6 24t-12.5 16.5t-19 5q-9 -1 -16.5 -12t-16.5 -27t-20 -34t-26.5 -32.5t-36.5 -22t-50 -2.5q15 18 21 37.5t8 40.5t2.5 43t4.5 45q10 -10 21.5 -15t22.5 -5h86h232v-14q-14 0 -28.5 -2.5t-26.5 -11t-19.5 -23t-7.5 -38.5v-120h30q28 4 44 18.5
t25.5 34t15 41.5t13.5 40q7 17 14.5 31t18.5 25q13 13 36 19.5t45 3.5t36.5 -17t10.5 -41q-3 -20 -18 -36t-35 -19q-8 -2 -19 1t-22 6.5t-21 5t-17 -2.5q-11 -6 -16.5 -19.5t-11.5 -29t-15 -32t-25 -29.5h71l98 -157q16 -26 41 -45t55 -19v-14h-274v14q12 0 23.5 4.5
t19 12.5t9 19.5t-7.5 25.5l-80 141h-44v-129q0 -74 55 -74v-14h-234v14q13 0 25.5 2.5t21.5 10.5t14.5 22.5t5.5 38.5v267v1z" />
    <glyph glyph-name="uni04A2" unicode="&#x4a2;" horiz-adv-x="791" 
d="M415 0v22q18 0 36 3.5t32 12.5t23 24t9 38v240h-269v-240q0 -23 9 -38t23 -24t32 -12.5t36 -3.5v-22h-328v22q18 0 36 3.5t32 12.5t23 24t9 38v462q0 23 -9 39.5t-23 27t-32 15t-36 4.5v14h328v-14q-18 0 -36 -4.5t-32 -15t-23 -27t-9 -39.5v-186h269v186q0 23 -9 39.5
t-23 27t-32 15t-36 4.5v14h328v-14q-18 0 -36 -4.5t-32 -15t-23 -27t-9 -39.5l-1 -427q-1 -50 10 -80.5t28 -38.5q27 -13 58 33q6 9 13 13t11.5 1t5.5 -13.5t-3 -28.5q-6 -27 -11.5 -49t-7 -44t4 -45t21.5 -51q-33 8 -55 19.5t-38 25.5t-28 31t-26 37q-13 19 -31 36.5
t-46 18.5h-133z" />
    <glyph glyph-name="uni04A3" unicode="&#x4a3;" horiz-adv-x="597" 
d="M302 0v14q9 0 19.5 2.5t20.5 10.5t16.5 22.5t6.5 38.5v136h-150v-136q0 -24 7 -38.5t17.5 -22.5t22 -10.5t20.5 -2.5v-14h-261v14q13 0 27.5 2.5t26.5 10.5t20 22.5t8 38.5v270q0 24 -8 38.5t-20 22.5t-26.5 10.5t-27.5 2.5v14h261v-14q-9 0 -20.5 -2.5t-22 -10.5
t-17.5 -22.5t-7 -38.5v-106l150 1v105q0 24 -6.5 38.5t-16.5 22.5t-20.5 10.5t-19.5 2.5v14h246v-14q-9 0 -21 -2.5t-23 -10.5t-19 -22.5t-8 -38.5l1 -240q-1 -48 10 -74t28 -28q18 -2 39 24q12 15 19.5 11.5t-5.5 -33.5q-17 -39 -17.5 -76.5t25.5 -87.5q-26 7 -42 17
t-27 23t-19.5 28t-19.5 32t-22.5 31t-33.5 15h-111z" />
    <glyph glyph-name="uni04A4" unicode="&#x4a4;" horiz-adv-x="945" 
d="M643 100q0 -23 9 -38t23 -24t32 -12.5t36 -3.5v-22h-328v22q18 0 36 3.5t32 12.5t23 24t9 38v240h-269v-240q0 -23 9 -38t23 -24t32 -12.5t36 -3.5v-22h-328v22q18 0 36 3.5t32 12.5t23 24t9 38v462q0 23 -9 39.5t-23 27t-32 15t-36 4.5v14h328v-14q-18 0 -36 -4.5
t-32 -15t-23 -27t-9 -39.5v-186h269v186q0 23 -9 39.5t-23 27t-32 15t-36 4.5v14h301h179q-3 -18 -4.5 -38.5t0.5 -43t10 -46t24 -46.5q-33 7 -55 17.5t-38.5 23t-30.5 28t-30 33.5q-8 9 -15 17t-14.5 14t-17 9.5t-22.5 3.5h6h-6q-10 0 -20.5 -4.5t-19 -12.5t-14 -19.5
t-5.5 -25.5v-472z" />
    <glyph glyph-name="uni04A5" unicode="&#x4a5;" horiz-adv-x="693" 
d="M515 447h86q11 0 22.5 5t21.5 15q4 -23 4.5 -45t2.5 -43t8 -40.5t21 -37.5q-29 -5 -50 2.5t-36.5 22t-26.5 32.5t-20 34t-16.5 27t-16.5 12q-11 1 -19 -5t-12.5 -16.5t-6 -24t-0.5 -26.5v-1v-270q0 -24 8 -38.5t19 -22.5t23 -10.5t21 -2.5v-14h-246v14q9 0 19.5 2.5
t20.5 10.5t16.5 22.5t6.5 38.5v136h-150v-136q0 -24 7 -38.5t17.5 -22.5t22 -10.5t20.5 -2.5v-14h-261v14q13 0 27.5 2.5t26.5 10.5t20 22.5t8 38.5v270q0 24 -8 38.5t-20 22.5t-26.5 10.5t-27.5 2.5v14h261v-14q-9 0 -20.5 -2.5t-22 -10.5t-17.5 -22.5t-7 -38.5v-106l150 1
v105q0 24 -6.5 38.5t-16.5 23t-20.5 11t-19.5 2.5v14h213z" />
    <glyph glyph-name="uni04AA" unicode="&#x4aa;" horiz-adv-x="603" 
d="M524 672q1 -56 15.5 -108t44.5 -100q-30 -5 -52.5 2.5t-41 22.5t-34.5 34.5t-31 40.5q-13 17 -26.5 33t-29 28.5t-34 20t-41.5 7.5q-42 0 -69 -23t-43.5 -59t-23 -79.5t-6.5 -85.5q0 -59 18 -114t51.5 -98.5t80.5 -69.5t106 -26q60 0 98.5 32t67.5 88l10 -9
q-27 -85 -77.5 -142.5t-125.5 -75.5l-55 -43q6 -2 15.5 -8t18.5 -15.5t15.5 -21.5t6.5 -25q0 -27 -14 -46t-36 -30.5t-48 -17t-51 -5.5v16q23 0 43 11.5t20 36.5q0 22 -18.5 37t-49.5 15l111 90q-5 0 -9.5 -0.5t-9.5 -0.5q-73 0 -128 28.5t-92.5 76t-56.5 109.5t-19 130
q0 66 20 128.5t57.5 111.5t90.5 78.5t119 29.5q23 0 47.5 -4.5t46 -9.5t38 -9.5t24.5 -4.5q18 0 29 8.5t28 15.5z" />
    <glyph glyph-name="uni04AB" unicode="&#x4ab;" horiz-adv-x="430" 
d="M206 440q16 0 29 -3t25 -6.5t25 -6.5t29 -3q14 0 25 4.5t17 12.5q2 -39 12.5 -78t33.5 -78q-18 -3 -38 4t-38 18.5t-32.5 25.5t-20.5 26q-14 24 -37 44.5t-46 20.5q-24 0 -38.5 -12.5t-22.5 -32.5t-10.5 -44t-2.5 -46q0 -39 12.5 -75t35.5 -63.5t55 -44.5t71 -17
q37 0 68.5 14.5t43.5 43.5l10 -1q-7 -25 -19 -50.5t-29.5 -48t-40.5 -39t-51 -22.5l-46 -38q21 0 31.5 -17.5t10.5 -37.5q0 -18 -11 -32t-27.5 -23.5t-35 -14t-33.5 -4.5l-1 10q6 0 13 3t14 9t11.5 13.5t4.5 16.5q0 14 -13 27t-34 13l87 72q-53 0 -94 17.5t-69 48.5
t-43 72.5t-15 89.5q0 43 12.5 84.5t36.5 74.5t58 53t77 20z" />
    <glyph glyph-name="uni04AE" unicode="&#x4ae;" horiz-adv-x="697" 
d="M409 100q0 -23 9 -38t23 -24t32 -12.5t36 -3.5v-22h-328v22q18 0 36 3.5t32 12.5t23 24t9 38v179l-187 318q-15 26 -36.5 36t-46.5 15v14h314v-14q-15 -2 -29.5 -8.5t-24.5 -16t-13 -22t5 -27.5l135 -241l75 128q9 15 14.5 43.5t2.5 58t-17 54t-45 31.5v14h257v-14
q-57 -23 -93 -62t-64 -85l-119 -196v-205z" />
    <glyph glyph-name="uni04AF" unicode="&#x4af;" horiz-adv-x="564" 
d="M392 268q6 15 6.5 30t0.5 33q0 68 -59 96v14h206v-14q-23 -9 -45.5 -34t-40.5 -53t-30.5 -52t-15.5 -31l-74 -192v-217q0 -24 7 -38.5t18.5 -22.5t25 -10.5t27.5 -2.5v-14h-265v14q13 0 27.5 2.5t26.5 10.5t20 22.5t8 38.5v181l-158 353q-12 26 -30.5 35.5t-37.5 9.5v14
h258l-1 -14q-28 1 -42.5 -11t-14.5 -25q0 -5 2 -15t4 -15l108 -267z" />
    <glyph glyph-name="uni04B0" unicode="&#x4b0;" horiz-adv-x="697" 
d="M527 199h-118v-99q0 -23 9 -38t23 -24t32 -12.5t36 -3.5v-22h-328v22q18 0 36 3.5t32 12.5t23 24t9 38v99h-121v26h121v54l-187 318q-15 26 -36.5 36t-46.5 15v14h314v-14q-15 -2 -29.5 -8.5t-24.5 -16t-13 -22t5 -27.5l135 -241l75 128q9 15 14.5 43.5t2.5 58t-17 54
t-45 31.5v14h257v-14q-57 -23 -93 -62t-64 -85l-119 -196v-80h118v-26z" />
    <glyph glyph-name="uni04B1" unicode="&#x4b1;" horiz-adv-x="564" 
d="M444 0h-104v-152q0 -24 7 -38.5t18.5 -22.5t25 -10.5t27.5 -2.5v-14h-265v14q13 0 27.5 2.5t26.5 10.5t20 22.5t8 38.5v152h-115v26h115v3l-158 353q-12 26 -30.5 35.5t-37.5 9.5v14h258l-1 -14q-28 1 -42.5 -11t-14.5 -25q0 -5 2 -15t4 -15l108 -267l69 174q6 15 6.5 30
t0.5 33q0 68 -59 96v14h206v-14q-23 -9 -45.5 -34t-40.5 -53t-30.5 -52t-15.5 -31l-74 -192v-39h104v-26z" />
    <glyph glyph-name="uni04B2" unicode="&#x4b2;" horiz-adv-x="745" 
d="M351 0l-1 22q54 0 71.5 24.5t0.5 53.5l-114 194l-74 -130q-2 -3 -6 -15t-6.5 -28t-2 -33.5t6 -32t18.5 -24t36 -9.5v-22h-272l4 22h3q17 0 40.5 12.5t47.5 30.5t45.5 39.5t33.5 39.5l120 172l-134 234q-5 9 -14 25.5t-22 32.5t-31 28t-41 12v14h308v-14q-13 0 -27.5 -6
t-24.5 -17t-13 -26.5t8 -33.5l93 -163l58 98q15 25 16.5 50t-6.5 45.5t-22.5 35t-32.5 17.5v14h243v-14q-27 -12 -53.5 -31.5t-49 -41t-39.5 -42.5t-26 -34l-77 -119l164 -282q19 -29 32 -49t24.5 -27.5t24.5 -0.5t32 32q7 9 13.5 12.5t11 0.5t5.5 -13t-3 -28
q-6 -27 -11.5 -49t-7 -44t4 -45t21.5 -51q-33 8 -53.5 19.5t-34 25.5t-24 31t-24.5 37q-13 19 -31 34.5t-46 16.5h-162z" />
    <glyph glyph-name="uni04B3" unicode="&#x4b3;" horiz-adv-x="584" 
d="M273 0v15q21 0 38 8.5t17 28.5q0 11 -2 19t-8 15l-75 109l-42 -54q-10 -13 -17 -31t-7 -40q0 -6 3.5 -15.5t10 -18.5t14.5 -15t17 -6v-15h-208v15q48 6 109 72l108 125l-125 177q-13 18 -29.5 30.5t-36.5 12.5v15h249v-15q-20 -2 -33 -8.5t-13 -24.5q0 -8 3 -14t5 -8
l63 -94l27 37q12 14 16.5 29t4.5 35q0 19 -12.5 30.5t-26.5 17.5v15h184v-15q-32 -13 -52 -29t-31 -27l-100 -107l131 -191l50 -62q8 -5 19 2t22 20q12 15 19.5 11.5t-5.5 -33.5q-17 -39 -17.5 -76.5t25.5 -87.5q-26 7 -42 17t-27 23t-19.5 28t-19.5 32t-19.5 32t-30.5 16
h-137z" />
    <glyph glyph-name="uni04B6" unicode="&#x4b6;" horiz-adv-x="791" 
d="M644 135q-1 -50 10 -80.5t28 -38.5q27 -13 58 33q6 9 13 13t11.5 1t5.5 -13.5t-3 -28.5q-6 -27 -11.5 -49t-7 -44t4 -45t21.5 -51q-33 8 -55 19.5t-38 25.5t-28 31t-26 37q-13 19 -31 36.5t-46 18.5h-133v22q18 0 35.5 3.5t32 12.5t23 24t8.5 38v212q-36 -29 -78.5 -44
t-85.5 -17.5t-84.5 6.5t-74.5 27q-32 17 -53 47.5t-21 73.5v157q0 23 -9 39.5t-23 27t-32 15t-36 4.5v14h332v-14q-18 0 -36 -4.5t-32 -15t-23 -27t-9 -39.5v-156q0 -37 17.5 -62t44.5 -37.5t60 -13t63 11.5q21 8 41.5 20.5t38.5 29.5v207q0 23 -9 39.5t-23 27t-32 15
t-36 4.5v14h328v-14q-18 0 -36 -4.5t-32 -15t-23 -27t-9 -39.5v-427z" />
    <glyph glyph-name="uni04B7" unicode="&#x4b7;" horiz-adv-x="609" 
d="M485 118q-1 -29 2.5 -48.5t9.5 -31t13.5 -16.5t16.5 -6q18 -2 39 24q12 15 19.5 11.5t-5.5 -33.5q-17 -39 -17.5 -76.5t25.5 -87.5q-26 7 -42 17t-27 23t-19.5 28t-19.5 32t-22.5 31t-33.5 15h-111v14q9 0 19.5 2.5t20.5 10.5t16.5 22.5t6.5 38.5v131q-12 -6 -32.5 -17.5
t-46 -22t-55.5 -18.5t-62 -8q-36 0 -60 21t-24 69v114q0 24 -8 38.5t-20 22.5t-26.5 10.5t-27.5 2.5v14h262v-14q-14 0 -25.5 -2.5t-20.5 -10.5t-14 -22.5t-5 -38.5v-78q0 -36 13.5 -51t36 -15.5t53 10t63.5 25.5v109q0 24 -6 38.5t-16 22.5t-23 10.5t-26 2.5v14h258v-14
q-14 0 -27.5 -2.5t-25 -10.5t-18.5 -22.5t-7 -38.5z" />
    <glyph glyph-name="uni04BA" unicode="&#x4ba;" horiz-adv-x="767" 
d="M346 640q-18 0 -36 -3.5t-32 -12.5t-23 -24t-9 -38v-183q36 29 78.5 44t85.5 17.5t84.5 -6.5t74.5 -27q32 -17 53 -47.5t21 -73.5v-186q0 -23 9 -39.5t23 -27t32 -15t36 -4.5v-14h-332v14q18 0 36 4.5t32 15t23 27t9 39.5v185q0 37 -17.5 62t-44.5 37.5t-60 13t-63 -11.5
q-21 -8 -41.5 -20.5t-38.5 -29.5v-236q0 -23 9 -39.5t23 -27t32 -15t36 -4.5v-14h-328v14q18 0 36 4.5t32 15t23 27t9 39.5v462q0 23 -9 38t-23 24t-32 12.5t-36 3.5v22h328v-22v0z" />
    <glyph glyph-name="uni04BB" unicode="&#x4bb;" horiz-adv-x="553" 
d="M11 14q28 0 51 12t23 43v481q0 17 -6.5 27.5t-16.5 17.5t-22.5 10t-24.5 5v8q49 5 96 15.5t90 42.5v-322q10 10 28.5 23t41.5 25t50 20.5t55 8.5q18 0 33.5 -5.5t27 -14t18.5 -20t7 -23.5v-299q0 -17 6.5 -27.5t17 -16.5t24.5 -8.5t28 -2.5v-14h-246v14q26 0 42.5 13
t16.5 42v235q0 27 -21.5 44.5t-53.5 17.5q-23 0 -42.5 -11.5t-30.5 -19.5v-266q0 -24 17.5 -39.5t46.5 -15.5v-14h-254v14h-2z" />
    <glyph glyph-name="uni04C0" unicode="&#x4c0;" horiz-adv-x="396" 
d="M34 0v22q18 0 36 3.5t32 12.5t23 24t9 38v462q0 23 -9 39.5t-23 27t-32 15t-36 4.5v14h328v-14q-18 0 -36 -4.5t-32 -15t-23 -27t-9 -39.5v-462q0 -23 9 -38t23 -24t32 -12.5t36 -3.5v-22h-328z" />
    <glyph glyph-name="uni04C1" unicode="&#x4c1;" horiz-adv-x="1094" 
d="M395 0v22q8 0 22.5 3.5t29 12.5t25 24t10.5 38v182l-65 62l-128 -252q-11 -20 -7.5 -33.5t15 -21.5t29 -11.5t35.5 -3.5v-22h-341v22q36 0 67 15t54 59l174 338l-112 107q-17 16 -39 35t-45.5 35t-46.5 26.5t-41 10.5v14h301v-14q-34 -2 -49.5 -22t-17.5 -45.5t8 -52
t27 -42.5l182 -169v245q0 23 -9 39.5t-23 27t-32 15t-36 4.5v14h328v-14q-18 0 -36 -4.5t-32 -15t-23 -27t-9 -39.5v-245l182 169q17 16 27 42.5t8 52t-17.5 45.5t-49.5 22v14h301v-14q-18 0 -41 -10.5t-46.5 -26.5t-45.5 -35t-39 -35l-112 -107l174 -338q22 -44 53.5 -59
t67.5 -15v-22h-341v22q18 0 35.5 3.5t29 11.5t14.5 21.5t-7 33.5l-128 252l-65 -62v-182q0 -23 10.5 -38t24.5 -24t29 -12.5t23 -3.5v-22h-302zM695 823q3 -17 -5.5 -33.5t-24 -30.5t-35.5 -23.5t-40 -12.5q-20 -4 -43 -3.5t-43 3.5q-21 3 -41.5 12.5t-36 23.5t-24.5 30.5
t-6 33.5q3 18 17.5 25.5t30.5 6t29 -11t12 -26.5q-1 -12 0.5 -25t6.5 -24q7 -13 22 -19.5t31.5 -7t31 6t22.5 18.5q7 11 8.5 24.5t0.5 26.5q-1 17 11.5 26.5t28.5 11t30.5 -6t16.5 -25.5z" />
    <glyph glyph-name="uni04C2" unicode="&#x4c2;" horiz-adv-x="872" 
d="M328 14v-14h230v14q-27 0 -43.5 18.5t-16.5 55.5v106l44 38l85 -156q9 -14 7.5 -25t-9 -19.5t-19 -13t-23.5 -4.5v-14h274v14q-30 0 -54.5 19.5t-41.5 44.5l-138 231l14 13l20 20t40 36.5t49.5 36t49.5 20.5v14h-208v-14q11 0 19 -6.5t13.5 -16t8 -20t2.5 -17.5
q0 -20 -6.5 -33.5t-19.5 -26.5l-107 -97v142q0 37 15.5 55.5t42.5 18.5v14h-230v-14q27 0 42.5 -18.5t15.5 -55.5v-148l-116 101q-13 13 -19.5 27.5t-6.5 34.5q0 7 2.5 17.5t7.5 20t13.5 16t19.5 6.5v14h-208v-14q23 -4 49.5 -21t49.5 -37t40 -37l20 -20l14 -13l-138 -229
q-17 -25 -41.5 -44.5t-54.5 -19.5v-14h274v14q-12 0 -24 4.5t-19.5 13t-8.5 19.5t8 25l85 156l53 -43v-101q0 -74 -55 -74h-1zM490 536q7 11 8.5 24.5t0.5 26.5q-1 17 11 26.5t27 11t29 -6t16 -25.5q3 -17 -5.5 -33.5t-24 -30.5t-35.5 -23.5t-40 -12.5q-37 -5 -76 0
q-21 3 -41.5 12.5t-36 23.5t-24.5 30.5t-6 33.5q3 18 17 25.5t29.5 6t28 -11t11.5 -26.5q-1 -12 0.5 -25t6.5 -24q8 -14 27 -21.5t36 -3.5q13 2 24 8t17 15z" />
    <glyph glyph-name="uni04CB" unicode="&#x4cb;" horiz-adv-x="775" 
d="M516 312q-36 -29 -78.5 -44t-85.5 -17.5t-84.5 6.5t-74.5 27q-32 17 -53 47.5t-21 73.5v157q0 23 -9 39.5t-23 27t-32 15t-36 4.5v14h332v-14q-18 0 -36 -4.5t-32 -15t-23 -27t-9 -39.5v-156q0 -37 17.5 -62t44.5 -37.5t60 -13t63 11.5q21 8 41.5 20.5t38.5 29.5v207
q0 23 -9 39.5t-23 27t-32 15t-36 4.5v14h328v-14q-18 0 -36 -4.5t-32 -15t-23 -27t-9 -39.5v-462q0 -23 8.5 -38t23 -24t32 -12.5t35.5 -3.5v-22h-133q-28 -1 -46 -18.5t-31 -36.5q-14 -20 -26 -37t-28 -31t-38 -25.5t-55 -19.5q16 28 21.5 51t4 45t-7 44t-11.5 49
q-5 18 -3.5 28.5t6 13.5t11.5 -1t13 -13q31 -46 58 -33q17 8 28 38.5t10 80.5v177z" />
    <glyph glyph-name="uni04CC" unicode="&#x4cc;" horiz-adv-x="594" 
d="M376 225q-12 -6 -32.5 -17.5t-46 -22t-55.5 -18.5t-62 -8q-36 0 -60 21t-24 69v108q0 24 -8 38.5t-20 22.5t-26.5 10.5t-27.5 2.5v14h262v-14q-14 0 -25.5 -2.5t-20.5 -10.5t-14 -22.5t-5 -38.5v-72q0 -36 13.5 -51t36 -15.5t53 10t63.5 25.5v103q0 24 -6 38.5t-16 22.5
t-23 10.5t-26 2.5v14h254v-14q-14 0 -27 -2.5t-23.5 -10.5t-17 -22.5t-6.5 -38.5l-1 -269q0 -24 9.5 -38.5t23 -22.5t27 -10.5t22.5 -2.5v-14h-130q-22 -1 -33.5 -15t-22.5 -31t-19.5 -32t-19.5 -28t-27 -23t-42 -17q13 25 19 46.5t6 41t-4.5 38t-12.5 38.5
q-13 30 -5.5 33.5t19.5 -11.5q21 -26 39 -24q9 1 16.5 6t13.5 16.5t9.5 31t2.5 48.5v107z" />
    <glyph glyph-name="uni04CF" unicode="&#x4cf;" horiz-adv-x="304" 
d="M208 396v-308q0 -24 7 -38.5t18.5 -22.5t25 -10.5t27.5 -2.5v-14h-272v14q13 0 27.5 2.5t26.5 10.5t20 22.5t8 38.5v308v178q0 24 -8 38.5t-20 22.5t-26.5 10.5t-27.5 2.5v14h272v-14q-14 0 -27.5 -2.5t-25 -10.5t-18.5 -22.5t-7 -38.5v-178z" />
    <glyph glyph-name="uni04D0" unicode="&#x4d0;" horiz-adv-x="754" 
d="M470 554q-8 22 -0.5 38.5t23 27t34.5 16t34 5.5v22h-332v-22q24 0 45.5 -10.5t37.5 -27.5l-176 -442q-5 -14 -19 -37.5t-33 -46t-40 -39t-40 -16.5v-22h253v22q-24 0 -42 16t-29 37.5t-15.5 42t-2.5 29.5l27 81h254l42 -119q8 -22 0.5 -38.5t-23 -27t-34.5 -16t-34 -5.5
v-22h341v22q-36 0 -65.5 22t-40.5 54zM335 565l100 -301h-228l122 314q2 -3 3 -6.5t3 -6.5zM529 824q3 -17 -5.5 -33.5t-24 -30.5t-35.5 -23.5t-40 -12.5q-20 -4 -43 -3.5t-43 3.5q-21 3 -41.5 12.5t-36 23.5t-24.5 30.5t-6 33.5q3 18 17.5 25.5t30.5 6t29 -11t12 -26.5
q-1 -12 0.5 -25t6.5 -24q7 -13 22 -19.5t31.5 -7t31 6t22.5 18.5q7 11 8.5 24.5t0.5 26.5q-1 17 11.5 26.5t28.5 11t30.5 -6t16.5 -25.5z" />
    <glyph glyph-name="uni04D1" unicode="&#x4d1;" horiz-adv-x="481" 
d="M276 261v-178q-11 -9 -22 -16q-10 -6 -20.5 -10.5t-21.5 -4.5q-32 0 -53 23.5t-21 55.5q0 30 15 53t36.5 38.5t45.5 25t41 13.5zM264 446q-36 0 -74 -7t-69.5 -21.5t-51.5 -36t-20 -50.5q0 -22 16 -36t38 -14q24 0 39.5 10.5t25 27t16.5 35t14.5 35t17.5 27t26 10.5
t25 -13.5t9 -30.5v-103q-8 -2 -30.5 -7.5t-51.5 -15.5t-60.5 -25t-58 -35t-43.5 -45.5t-17 -56.5q0 -24 9 -43t24 -31.5t35 -19.5t42 -7q46 0 81 21t65 43q4 -27 26 -45.5t67 -18.5q35 0 62 17.5t44 38.5l-5 5q-5 -4 -14 -7t-19 -3q-22 0 -35.5 13.5t-11.5 44.5v269
q0 28 -32.5 51.5t-88.5 23.5zM298 537q7 11 8.5 24.5t0.5 26.5q-1 17 11 26.5t27 11t29 -6t16 -25.5q3 -17 -5.5 -33.5t-24 -30.5t-35.5 -23.5t-40 -12.5q-37 -5 -76 0q-21 3 -41.5 12.5t-36 23.5t-24.5 30.5t-6 33.5q3 18 17 25.5t29.5 6t28 -11t11.5 -26.5q-1 -12 0.5 -25
t6.5 -24q8 -14 27 -21.5t36 -3.5q13 2 24 8t17 15z" />
    <glyph glyph-name="uni04D2" unicode="&#x4d2;" horiz-adv-x="754" 
d="M635 98q11 -32 40.5 -54t65.5 -22v-22h-341v22q15 0 34 5.5t34.5 16t23 27t-0.5 38.5l-42 119h-254l-27 -81q-2 -9 2.5 -29.5t15.5 -42t29 -37.5t42 -16v-22h-253v22q19 0 40 16.5t40 39t33 46t19 37.5l176 442q-16 17 -37.5 27.5t-45.5 10.5v22h332v-22q-15 0 -34 -5.5
t-34.5 -16t-23 -27t0.5 -38.5zM335 565q-2 3 -3 6.5t-3 6.5l-122 -314h228l-100 301v0zM244 771q0 24 17 41t41 17t41 -17t17 -41t-17 -41t-41 -17t-41 17t-17 41zM405 771q0 24 17 41t41 17t41 -17t17 -41t-17 -41t-41 -17t-41 17t-17 41z" />
    <glyph glyph-name="uni04D3" unicode="&#x4d3;" horiz-adv-x="488" 
d="M286 261q-17 -4 -41 -13.5t-45.5 -25t-36.5 -38.5t-15 -53q0 -32 21 -55.5t53 -23.5q11 0 21.5 4.5t20.5 10.5q11 7 22 16v178v0zM274 446q56 0 88.5 -23.5t32.5 -51.5v-269q-2 -31 11.5 -44.5t35.5 -13.5q10 0 19 3t14 7l5 -5q-17 -21 -44 -38.5t-62 -17.5
q-45 0 -67 18.5t-26 45.5q-30 -22 -65 -43t-81 -21q-22 0 -42 7t-35 19.5t-24 31.5t-9 43q0 31 17 56.5t43.5 45.5t58 35t60.5 25t51.5 15.5t30.5 7.5v103q0 17 -9 30.5t-25 13.5q-17 0 -26.5 -10.5t-17 -27t-14.5 -35t-16.5 -35t-25 -27t-39.5 -10.5q-22 0 -38 14t-16 36
q0 29 20 50.5t51.5 36t69.5 21.5t74 7zM109 547q0 24 17 41t41 17t41 -17t17 -41t-17 -41t-41 -17t-41 17t-17 41zM270 547q0 24 17 41t41 17t41 -17t17 -41t-17 -41t-41 -17t-41 17t-17 41z" />
    <glyph glyph-name="uni04D4" unicode="&#x4d4;" horiz-adv-x="1020" 
d="M400 662h556q1 -42 8.5 -85t39.5 -89l-1 -9q-33 7 -55.5 18.5t-40.5 26.5t-33 31.5t-31 34.5q-16 17 -36 30.5t-46 13.5h-60q-10 0 -20.5 -4.5t-19 -12.5t-14 -19.5t-5.5 -25.5v-202h137q27 -2 44.5 8t34.5 23t37.5 26t53.5 18q-16 -40 -16.5 -89t16.5 -94
q-18 -2 -39.5 10.5t-44 28.5t-44.5 29.5t-42 13.5h-137v-267q0 -14 6.5 -24t16 -16.5t19.5 -9.5t17 -3h78q28 2 50.5 23t48 47t57 50t76.5 31v-39q-19 -42 -28.5 -82t-14.5 -82q-36 20 -73 24t-71 4h-410v22q18 0 36 3.5t32 12.5t23 24t9 38v120h-252l-32 -45
q-8 -11 -14 -31t-6 -43q0 -15 5 -29t14.5 -25t22 -18t27.5 -7v-22h-273v22q9 0 32 15.5t50 38.5t54 49.5t44 49.5l286 369q15 19 14 39t-13 35t-31.5 24t-41.5 6v14zM514 557l-237 -305h237v305z" />
    <glyph glyph-name="uni04D5" unicode="&#x4d5;" horiz-adv-x="711" 
d="M277 262q-10 0 -31.5 -8.5t-43.5 -25t-38.5 -40.5t-16.5 -54q0 -32 20.5 -54t51.5 -22q15 0 31 8t30 18q16 11 31 26q-9 13 -15 32.5t-10 40.5t-6 42t-2 38zM318 96q-6 -8 -23.5 -26t-42 -36t-55 -31.5t-61.5 -13.5q-22 0 -42 8t-35.5 22t-24.5 34t-9 44q0 33 18 60
t45 47.5t59 35t59.5 24t47 14t21.5 4.5v103q0 17 -6.5 32t-22.5 15q-17 0 -26.5 -11t-17 -27.5t-14 -35.5t-16.5 -35.5t-25 -27.5t-39 -11q-22 0 -38 14t-16 36q0 29 20 50.5t51.5 36t69.5 21.5t74 7q45 0 72 -10t35 -24q22 20 53.5 28t62.5 8q37 0 70 -13.5t58 -36.5
t39.5 -54t13.5 -65h-283q-1 -45 11 -80t34.5 -60t53.5 -38t68 -13q38 0 67 11.5t53 40.5l7 -6q-8 -30 -25 -57.5t-41.5 -47.5t-56 -32t-68.5 -12q-41 0 -72 13t-52.5 30.5t-33.5 35.5t-16 29h-1zM551 305q0 19 -4 41t-13.5 41.5t-24.5 32.5t-37 13q-23 0 -38.5 -11
t-25.5 -29t-14.5 -41t-4.5 -47h162z" />
    <glyph glyph-name="uni04D6" unicode="&#x4d6;" horiz-adv-x="695" 
d="M657 181q-35 0 -62.5 -11.5t-49.5 -28.5t-40 -37t-34.5 -37.5t-33 -29.5t-34.5 -13h-78q-7 0 -17 3t-19.5 9.5t-16 16.5t-6.5 24v267h137q20 0 42 -13.5t44.5 -29.5t44 -28.5t39.5 -10.5q-17 45 -16.5 94t16.5 89q-33 -5 -53.5 -18t-37.5 -26t-34.5 -23t-44.5 -8h-137
v202q0 14 5.5 25.5t14 19.5t19 12.5t20.5 4.5h60q26 0 46 -13.5t36 -30.5q16 -18 31 -34.5t33 -31.5t40.5 -26.5t55.5 -18.5l1 9q-32 46 -39.5 89t-8.5 85h-542v-14q18 0 36 -4.5t32 -15t23 -27t9 -39.5v-462q0 -23 -9 -38t-23 -24t-32 -12.5t-36 -3.5v-22h410q34 0 71 -4
t73 -24q6 55 21 107.5t44 101.5zM489 824q3 -17 -5.5 -33.5t-24 -30.5t-35.5 -23.5t-40 -12.5q-20 -4 -43 -3.5t-43 3.5q-21 3 -41.5 12.5t-36 23.5t-24.5 30.5t-6 33.5q3 18 17.5 25.5t30.5 6t29 -11t12 -26.5q-1 -12 0.5 -25t6.5 -24q7 -13 22 -19.5t31.5 -7t31 6
t22.5 18.5q7 11 8.5 24.5t0.5 26.5q-1 17 11.5 26.5t28.5 11t30.5 -6t16.5 -25.5z" />
    <glyph glyph-name="uni04D7" unicode="&#x4d7;" 
d="M129 306q0 24 4.5 47t14.5 41t25.5 29t38.5 11q22 0 37 -13t24.5 -32.5t13.5 -41.5t4 -41h-162zM231 452q-43 0 -80 -20t-64.5 -55t-43 -81.5t-15.5 -99.5q0 -41 14 -78.5t39.5 -66t60.5 -45.5t76 -17q37 0 70.5 12t60.5 32t46.5 47.5t27.5 57.5l-7 6q-24 -29 -53 -40.5
t-67 -11.5q-37 0 -68 13t-53.5 38t-34.5 60t-11 80h283q1 34 -13.5 65t-39.5 54t-58 36.5t-70 13.5zM280 537q7 11 8.5 24.5t0.5 26.5q-1 17 11 26.5t27 11t29 -6t16 -25.5q3 -17 -5.5 -33.5t-24 -30.5t-35.5 -23.5t-40 -12.5q-37 -5 -76 0q-21 3 -41.5 12.5t-36 23.5
t-24.5 30.5t-6 33.5q3 18 17 25.5t29.5 6t28 -11t11.5 -26.5q-1 -12 0.5 -25t6.5 -24q8 -14 27 -21.5t36 -3.5q13 2 24 8t17 15z" />
    <glyph glyph-name="uni04D8" unicode="&#x4d8;" horiz-adv-x="617" 
d="M172 33q-34 23 -61.5 61.5t-46.5 85t-29.5 97t-10.5 96.5l418 -1v14q-1 43 -7.5 86t-20.5 79.5t-37.5 63t-58.5 36.5q-26 -1 -45.5 -10t-35.5 -23t-29.5 -32t-28.5 -36q-14 -17 -28 -33.5t-29 -29.5t-32 -21.5t-36 -11.5q17 49 23.5 101t-0.5 103q26 -20 69 -18
q24 1 41.5 5.5t33.5 10.5t33.5 12t41.5 9q72 3 127.5 -26t92.5 -78t56 -113t19 -131q0 -97 -43 -177t-116 -125q-35 -22 -79 -33q-51 -5 -96.5 3.5t-84.5 35.5zM172 341q0 -31 1.5 -64.5t6 -66.5t12.5 -63.5t21 -55.5q18 -33 43 -50t51.5 -17t51.5 17t43 50q13 25 21 54.5
t12.5 62t6 65.5t1.5 64v5l-271 -1v0z" />
    <glyph glyph-name="afii10846" unicode="&#x4d9;" horiz-adv-x="444" 
d="M247 423q-35 7 -61.5 -12t-51 -45t-50 -48t-58.5 -21q41 67 38 153q14 -11 25 -14t28 -3q7 0 19.5 2t27.5 5t31 5.5t29 2.5q45 1 82 -16.5t63.5 -49t41 -73t14.5 -86.5q0 -37 -10 -71.5t-29 -63t-45 -50t-58 -33.5q-28 -11 -53 -11.5t-54 7.5q-39 12 -68 35t-48 55
t-28 72t-8 85h273v5q0 25 -2 51t-7 49t-15 41.5t-26 28.5zM191 33q17 -17 39 -12.5t34 18.5q11 15 17.5 37t10 46.5t5 50.5t1.5 50h-147q0 -23 0.5 -50t4.5 -53.5t12 -49.5t23 -37z" />
    <glyph glyph-name="uni04DC" unicode="&#x4dc;" horiz-adv-x="1094" 
d="M395 0v22q8 0 22.5 3.5t29 12.5t25 24t10.5 38v182l-65 62l-128 -252q-11 -20 -7.5 -33.5t15 -21.5t29 -11.5t35.5 -3.5v-22h-341v22q36 0 67 15t54 59l174 338l-112 107q-17 16 -39 35t-45.5 35t-46.5 26.5t-41 10.5v14h301v-14q-34 -2 -49.5 -22t-17.5 -45.5t8 -52
t27 -42.5l182 -169v245q0 23 -9 39.5t-23 27t-32 15t-36 4.5v14h328v-14q-18 0 -36 -4.5t-32 -15t-23 -27t-9 -39.5v-245l182 169q17 16 27 42.5t8 52t-17.5 45.5t-49.5 22v14h301v-14q-18 0 -41 -10.5t-46.5 -26.5t-45.5 -35t-39 -35l-112 -107l174 -338q22 -44 53.5 -59
t67.5 -15v-22h-341v22q18 0 35.5 3.5t29 11.5t14.5 21.5t-7 33.5l-128 252l-65 -62v-182q0 -23 10.5 -38t24.5 -24t29 -12.5t23 -3.5v-22h-302zM404 773q0 24 17 41t41 17t41 -17t17 -41t-17 -41t-41 -17t-41 17t-17 41zM565 773q0 24 17 41t41 17t41 -17t17 -41t-17 -41
t-41 -17t-41 17t-17 41z" />
    <glyph glyph-name="uni04DD" unicode="&#x4dd;" horiz-adv-x="872" 
d="M329 14q55 0 55 74v101l-53 43l-85 -156q-9 -14 -8 -25t8.5 -19.5t19.5 -13t24 -4.5v-14h-274v14q30 0 54.5 19.5t41.5 44.5l138 229l-14 13l-20 20t-40 37t-49.5 37t-49.5 21v14h208v-14q-11 0 -19.5 -6.5t-13.5 -16t-7.5 -20t-2.5 -17.5q0 -20 6.5 -34.5t19.5 -27.5
l116 -101v148q0 37 -15.5 55.5t-42.5 18.5v14h230v-14q-27 0 -42.5 -18.5t-15.5 -55.5v-142l107 97q13 13 19.5 26.5t6.5 33.5q0 7 -2.5 17.5t-8 20t-13.5 16t-19 6.5v14h208v-14q-23 -4 -49.5 -20.5t-49.5 -36t-40 -36.5l-20 -20l-14 -13l138 -231q17 -25 41.5 -44.5
t54.5 -19.5v-14h-274v14q12 0 23.5 4.5t19 13t9 19.5t-7.5 25l-85 156l-44 -38v-106q0 -37 16.5 -55.5t43.5 -18.5v-14h-230v14h1zM294 545q0 24 17 41t41 17t41 -17t17 -41t-17 -41t-41 -17t-41 17t-17 41zM455 545q0 24 17 41t41 17t41 -17t17 -41t-17 -41t-41 -17t-41 17
t-17 41z" />
    <glyph glyph-name="uni04DE" unicode="&#x4de;" horiz-adv-x="578" 
d="M568 199q0 -46 -17 -83q-12 -27 -33.5 -48t-48.5 -36t-57.5 -25t-60.5 -15q-16 -2 -31 -3.5t-31 -1.5q-22 0 -42.5 1t-40.5 5q-38 5 -73.5 21.5t-62.5 40.5t-41.5 53t-9.5 60q4 33 27 47.5t48 11.5t44.5 -21t17.5 -49q-1 -20 0.5 -42.5t9.5 -42.5t24 -35t43 -19
q14 -2 26.5 -3.5t25.5 -1.5q28 0 54 9q35 13 57 47.5t26 99.5q4 70 -12.5 105t-46 49.5t-68.5 15t-80 0.5v35q50 -1 83.5 5t54 21.5t30.5 41t14 63.5q3 28 -1 55t-14.5 48t-26.5 34t-37 12q-26 -1 -45.5 -10.5t-35.5 -24t-29.5 -33t-28.5 -36.5q-14 -17 -28 -33.5t-29 -29.5
t-32 -21.5t-36 -11.5q17 49 23.5 101t-0.5 103q26 -20 69 -18q24 1 41.5 5.5t33.5 10.5t33.5 12t41.5 9q40 5 76 -1.5t65 -22t49.5 -38t31.5 -47.5q6 -14 8.5 -29.5t2.5 -30.5q-1 -20 -7 -40.5t-20 -37.5q-20 -26 -59 -44.5t-90 -24.5q73 -3 123 -27t72 -60q20 -33 20 -75z
M163 771q0 24 17 41t41 17t41 -17t17 -41t-17 -41t-41 -17t-41 17t-17 41zM324 771q0 24 17 41t41 17t41 -17t17 -41t-17 -41t-41 -17t-41 17t-17 41z" />
    <glyph glyph-name="uni04DF" unicode="&#x4df;" horiz-adv-x="457" 
d="M246 -6q-18 -1 -35.5 -1t-32.5 2q-32 2 -62 13t-53.5 28.5t-37 39.5t-11.5 46q2 26 20 38t39 11t38 -14.5t17 -37.5t8 -47.5t25 -39.5q19 -18 42 -21.5t44 4.5t38 26.5t25 44.5q6 22 6 44.5t-7 41.5t-23 31t-41 12q-14 2 -34.5 2h-35.5v27h32.5t28.5 1q23 2 38 16
t22.5 34t8 43t-5.5 43t-18.5 34t-30.5 16q-32 0 -56.5 -21t-48.5 -46t-49 -46t-57 -21q41 67 38 153q14 -11 25 -14t28 -3q7 0 20.5 2.5t29.5 5.5t32.5 5.5t29.5 2.5l1 1q40 1 72 -7.5t54.5 -25t34.5 -40.5t12 -52q0 -18 -9.5 -33t-25 -26.5t-36.5 -20t-44 -12.5
q37 0 63.5 -8.5t43.5 -23t25.5 -33.5t8.5 -41q0 -63 -52.5 -98.5t-143.5 -34.5zM94 547q0 24 17 41t41 17t41 -17t17 -41t-17 -41t-41 -17t-41 17t-17 41zM255 547q0 24 17 41t41 17t41 -17t17 -41t-17 -41t-41 -17t-41 17t-17 41z" />
    <glyph glyph-name="uni04E2" unicode="&#x4e2;" horiz-adv-x="793" 
d="M531 492l-269 -385v-7q0 -23 9 -38t23 -24t32 -12.5t36 -3.5v-22h-328v22q18 0 36 3.5t32 12.5t23 24t9 38v462q0 23 -9 39.5t-23 27t-32 15t-36 4.5v14h328v-14q-18 0 -36 -4.5t-32 -15t-23 -27t-9 -39.5v-394l269 385v9q0 23 -9 39.5t-23 27t-32 15t-36 4.5v14h328v-14
q-18 0 -36 -4.5t-32 -15t-23 -27t-9 -39.5v-462q0 -23 9 -38t23 -24t32 -12.5t36 -3.5v-22h-328v22q18 0 36 3.5t32 12.5t23 24t9 38v392zM258 793h278v-77h-278v77z" />
    <glyph glyph-name="uni04E3" unicode="&#x4e3;" horiz-adv-x="574" 
d="M103 359q0 24 -8 38.5t-20 22.5t-26.5 10.5t-27.5 2.5v14h261v-14q-9 0 -20.5 -2.5t-22 -10.5t-17.5 -22.5t-7 -38.5v-223l150 222v1q0 24 -6.5 38.5t-16.5 22.5t-20.5 10.5t-19.5 2.5v14h246v-14q-9 0 -21 -2.5t-23 -10.5t-19 -22.5t-8 -38.5v-271q0 -24 8 -38.5
t19 -22.5t23 -10.5t21 -2.5v-14h-246v14q9 0 19.5 2.5t20.5 10.5t16.5 22.5t6.5 38.5v220l-150 -222q0 -23 7 -37.5t17.5 -22t22 -10t20.5 -2.5v-14h-261v14q13 0 27.5 2.5t26.5 10.5t20 22.5t8 38.5v271zM169 564h251v-69h-251v69z" />
    <glyph glyph-name="uni04E4" unicode="&#x4e4;" horiz-adv-x="793" 
d="M531 492l-269 -385v-7q0 -23 9 -38t23 -24t32 -12.5t36 -3.5v-22h-328v22q18 0 36 3.5t32 12.5t23 24t9 38v462q0 23 -9 39.5t-23 27t-32 15t-36 4.5v14h328v-14q-18 0 -36 -4.5t-32 -15t-23 -27t-9 -39.5v-394l269 385v9q0 23 -9 39.5t-23 27t-32 15t-36 4.5v14h328v-14
q-18 0 -36 -4.5t-32 -15t-23 -27t-9 -39.5v-462q0 -23 9 -38t23 -24t32 -12.5t36 -3.5v-22h-328v22q18 0 36 3.5t32 12.5t23 24t9 38v392zM267 771q0 24 17 41t41 17t41 -17t17 -41t-17 -41t-41 -17t-41 17t-17 41zM428 771q0 24 17 41t41 17t41 -17t17 -41t-17 -41t-41 -17
t-41 17t-17 41z" />
    <glyph glyph-name="uni04E5" unicode="&#x4e5;" horiz-adv-x="574" 
d="M103 359q0 24 -8 38.5t-20 22.5t-26.5 10.5t-27.5 2.5v14h261v-14q-9 0 -20.5 -2.5t-22 -10.5t-17.5 -22.5t-7 -38.5v-223l150 222v1q0 24 -6.5 38.5t-16.5 22.5t-20.5 10.5t-19.5 2.5v14h246v-14q-9 0 -21 -2.5t-23 -10.5t-19 -22.5t-8 -38.5v-271q0 -24 8 -38.5
t19 -22.5t23 -10.5t21 -2.5v-14h-246v14q9 0 19.5 2.5t20.5 10.5t16.5 22.5t6.5 38.5v220l-150 -222q0 -23 7 -37.5t17.5 -22t22 -10t20.5 -2.5v-14h-261v14q13 0 27.5 2.5t26.5 10.5t20 22.5t8 38.5v271zM155 547q0 24 17 41t41 17t41 -17t17 -41t-17 -41t-41 -17t-41 17
t-17 41zM316 547q0 24 17 41t41 17t41 -17t17 -41t-17 -41t-41 -17t-41 17t-17 41z" />
    <glyph glyph-name="uni04E6" unicode="&#x4e6;" horiz-adv-x="684" 
d="M343 655q-50 0 -82.5 -30.5t-51.5 -77.5t-26.5 -103.5t-7.5 -109.5t7.5 -110.5t26.5 -105.5t51.5 -79t82.5 -31t80.5 31t47.5 79t22.5 105.5t5.5 110.5t-5 109.5t-21 103.5t-47 77.5t-83 30.5zM343 677q67 0 123.5 -28.5t97.5 -75.5t63.5 -109.5t22.5 -129.5
q0 -68 -22.5 -131t-63.5 -111.5t-97.5 -78t-123.5 -29.5q-69 0 -127 29t-100.5 77t-66 111.5t-23.5 132.5q0 68 24 130t66.5 109.5t100.5 75.5t126 28zM209 771q0 24 17 41t41 17t41 -17t17 -41t-17 -41t-41 -17t-41 17t-17 41zM370 771q0 24 17 41t41 17t41 -17t17 -41
t-17 -41t-41 -17t-41 17t-17 41z" />
    <glyph glyph-name="uni04E7" unicode="&#x4e7;" horiz-adv-x="502" 
d="M252 436q-35 0 -53.5 -21t-27 -53t-10 -70.5t-1.5 -73.5t1.5 -73.5t10 -70.5t27 -53t53.5 -21t53.5 21t27 53t10 70.5t1.5 73.5t-1.5 73.5t-10 70.5t-27 53t-53.5 21zM252 452q47 0 88 -19t71 -51t47.5 -74.5t17.5 -89.5t-17.5 -89.5t-47.5 -74.5t-71 -51t-88 -19t-88 19
t-71 51t-47.5 74.5t-17.5 89.5t17.5 89.5t47.5 74.5t71 51t88 19zM117 547q0 24 17 41t41 17t41 -17t17 -41t-17 -41t-41 -17t-41 17t-17 41zM278 547q0 24 17 41t41 17t41 -17t17 -41t-17 -41t-41 -17t-41 17t-17 41z" />
    <glyph glyph-name="uni04E8" unicode="&#x4e8;" horiz-adv-x="684" 
d="M343 677q67 0 123.5 -28.5t97.5 -75.5t63.5 -109.5t22.5 -129.5q0 -68 -22.5 -131t-63.5 -111.5t-97.5 -78t-123.5 -29.5q-69 0 -127 29t-100.5 77t-66 111.5t-23.5 132.5q0 68 24 130t66.5 109.5t100.5 75.5t126 28zM343 8q50 0 80.5 31t47.5 79t22.5 105.5t5.5 110.5v6
h-324v-6q0 -53 7.5 -110.5t26.5 -105.5t51.5 -79t82.5 -31zM343 655q-45 0 -76 -25t-50.5 -65t-29 -90t-11.5 -99h322q-2 49 -8.5 99t-23.5 90t-46.5 65t-76.5 25z" />
    <glyph glyph-name="uni04E9" unicode="&#x4e9;" horiz-adv-x="502" 
d="M252 452q47 0 88 -19t71 -51t47.5 -74.5t17.5 -89.5t-17.5 -89.5t-47.5 -74.5t-71 -51t-88 -19t-88 19t-71 51t-47.5 74.5t-17.5 89.5t17.5 89.5t47.5 74.5t71 51t88 19zM252 0q35 0 53.5 21t27 53t10 70.5t1.5 73.5v6h-184v-6q0 -35 1.5 -73.5t10 -70.5t27 -53t53.5 -21
zM252 436q-31 0 -49 -16.5t-27.5 -43t-12.5 -59t-3 -65.5l184 1q0 32 -3 64.5t-13 59t-28 43t-48 16.5z" />
    <glyph glyph-name="uni04EC" unicode="&#x4ec;" horiz-adv-x="607" 
d="M310 651q-26 -1 -45 -10t-34.5 -23t-28.5 -32t-28 -36q-27 -35 -56 -63t-67 -33q15 49 20.5 101t-2.5 103q28 -20 70 -18q24 1 41.5 5.5t33 10.5t33 12t41.5 9q72 3 127 -26t91.5 -78t55.5 -113t21 -131q2 -78 -26 -147t-78.5 -117t-119 -69t-147.5 -3q-38 5 -74 21.5
t-63 40.5t-42.5 53t-10.5 60q4 33 26 47.5t47 11.5t45 -21t19 -49q-1 -29 4.5 -62.5t28.5 -56.5q19 -18 47 -22q54 -10 95.5 8.5t64.5 66.5q12 25 19.5 54.5t11.5 62t5 65.5t0 64v20q-22 -21 -46.5 -40.5t-38.5 -21.5q-25 -8 -43 -2.5t-33 16t-28.5 22t-28.5 16t-33.5 -1.5
t-44.5 -31l-15 8q40 52 69.5 76.5t53 30t42 -2.5t36.5 -20t37.5 -23.5t45.5 -12.5q6 0 12.5 4.5t12.5 11.5q-2 43 -8 86t-19.5 79.5t-36.5 63t-59 36.5zM157 771q0 24 17 41t41 17t41 -17t17 -41t-17 -41t-41 -17t-41 17t-17 41zM318 771q0 24 17 41t41 17t41 -17t17 -41
t-17 -41t-41 -17t-41 17t-17 41z" />
    <glyph glyph-name="uni04ED" unicode="&#x4ed;" horiz-adv-x="457" 
d="M237 448q45 1 82 -16.5t63.5 -49t41 -73t14.5 -86.5q0 -52 -20 -97.5t-54.5 -77.5t-80.5 -47t-99 -6q-32 2 -62 13t-53.5 28.5t-37 39.5t-11.5 46q2 26 20 38t39 11t38 -14.5t17 -37.5q0 -18 5.5 -37.5t16 -35t26.5 -25.5t36 -10q34 0 52.5 20.5t27.5 52t10.5 68.5
t1.5 71v2q-17 -15 -35 -27t-26 -14q-23 -8 -38 1t-27 21q-8 8 -16 15t-17.5 8.5t-22 -4.5t-28.5 -24l-11 6q32 59 64.5 77.5t52.5 10.5q10 -4 19.5 -12t19.5 -15.5t21 -13.5t25 -7q2 0 8 1.5t11 4.5q0 25 -2 51t-7 49t-15 41.5t-26 28.5q-35 7 -61.5 -12t-51 -45t-50 -48
t-58.5 -21q41 67 38 153q14 -11 25 -14t28 -3q7 0 19.5 2t27.5 5t31 5.5t29 2.5zM86 547q0 24 17 41t41 17t41 -17t17 -41t-17 -41t-41 -17t-41 17t-17 41zM247 547q0 24 17 41t41 17t41 -17t17 -41t-17 -41t-41 -17t-41 17t-17 41z" />
    <glyph glyph-name="uni04EE" unicode="&#x4ee;" horiz-adv-x="730" 
d="M432 270q33 69 59.5 124.5t40.5 89.5q11 27 14.5 53.5t-1 48.5t-18 38.5t-35.5 23.5v14h250v-14q-28 -11 -52 -25t-45 -32.5t-40 -44t-38 -59.5q-48 -92 -81.5 -167t-62.5 -134t-60 -102.5t-74 -72.5q-32 -22 -71.5 -21t-70.5 19q-32 19 -48 57t4 82q9 19 29 30t43 12.5
t43.5 -7.5t30.5 -31q7 -16 2.5 -38t-2.5 -45q1 -14 15 -18t31 6q15 8 33.5 31.5t29.5 50.5l-278 458q-15 26 -36.5 36t-46.5 15v14h322v-14q-15 -2 -29.5 -8.5t-24.5 -16t-13 -22t5 -27.5zM258 793h278v-77h-278v77z" />
    <glyph glyph-name="uni04EF" unicode="&#x4ef;" horiz-adv-x="552" 
d="M282 433q-28 1 -42.5 -11t-14.5 -25q0 -5 2 -15t4 -15l94 -228l53 138q7 15 8.5 28.5t1.5 31.5q0 68 -59 96v14h206v-14q-23 -9 -46 -33.5t-41.5 -52t-31.5 -51t-16 -30.5l-182 -419q-6 -13 -16.5 -28t-25.5 -28t-34 -22t-40 -9q-18 0 -34.5 5.5t-29.5 15.5t-21 24t-8 32
q0 25 16.5 43.5t41.5 18.5q20 0 32.5 -8.5t22.5 -18.5t19 -18.5t22 -8.5q9 0 17 5t14.5 12.5t12 15.5t8.5 15l51 107l-173 388q-12 26 -30.5 35.5t-37.5 9.5v14h258zM169 564h251v-69h-251v69z" />
    <glyph glyph-name="uni04F0" unicode="&#x4f0;" horiz-adv-x="730" 
d="M432 270q33 69 59.5 124.5t40.5 89.5q11 27 14.5 53.5t-1 48.5t-18 38.5t-35.5 23.5v14h250v-14q-28 -11 -52 -25t-45 -32.5t-40 -44t-38 -59.5q-48 -92 -81.5 -167t-62.5 -134t-60 -102.5t-74 -72.5q-32 -22 -71.5 -21t-70.5 19q-32 19 -48 57t4 82q9 19 29 30t43 12.5
t43.5 -7.5t30.5 -31q7 -16 2.5 -38t-2.5 -45q1 -14 15 -18t31 6q15 8 33.5 31.5t29.5 50.5l-278 458q-15 26 -36.5 36t-46.5 15v14h322v-14q-15 -2 -29.5 -8.5t-24.5 -16t-13 -22t5 -27.5zM236 771q0 24 17 41t41 17t41 -17t17 -41t-17 -41t-41 -17t-41 17t-17 41zM397 771
q0 24 17 41t41 17t41 -17t17 -41t-17 -41t-41 -17t-41 17t-17 41z" />
    <glyph glyph-name="uni04F1" unicode="&#x4f1;" horiz-adv-x="536" 
d="M270 433q-28 1 -42.5 -11t-14.5 -25q0 -5 2 -15t4 -15l94 -228l53 138q7 15 8.5 28.5t1.5 31.5q0 68 -59 96v14h206v-14q-23 -9 -46 -33.5t-41.5 -52t-31.5 -51t-16 -30.5l-182 -419q-6 -13 -16.5 -28t-25.5 -28t-34 -22t-40 -9q-18 0 -34.5 5.5t-29.5 15.5t-21 24t-8 32
q0 25 16.5 43.5t41.5 18.5q20 0 32.5 -8.5t22.5 -18.5t19 -18.5t22 -8.5q9 0 17 5t14.5 12.5t12 15.5t8.5 15l51 107l-173 388q-12 26 -30.5 35.5t-37.5 9.5v14h258zM147 547q0 24 17 41t41 17t41 -17t17 -41t-17 -41t-41 -17t-41 17t-17 41zM308 547q0 24 17 41t41 17
t41 -17t17 -41t-17 -41t-41 -17t-41 17t-17 41z" />
    <glyph glyph-name="uni04F2" unicode="&#x4f2;" horiz-adv-x="730" 
d="M432 270q33 69 59.5 124.5t40.5 89.5q11 27 14.5 53.5t-1 48.5t-18 38.5t-35.5 23.5v14h250v-14q-28 -11 -52 -25t-45 -32.5t-40 -44t-38 -59.5q-48 -92 -81.5 -167t-62.5 -134t-60 -102.5t-74 -72.5q-32 -22 -71.5 -21t-70.5 19q-32 19 -48 57t4 82q9 19 29 30t43 12.5
t43.5 -7.5t30.5 -31q7 -16 2.5 -38t-2.5 -45q1 -14 15 -18t31 6q15 8 33.5 31.5t29.5 50.5l-278 458q-15 26 -36.5 36t-46.5 15v14h322v-14q-15 -2 -29.5 -8.5t-24.5 -16t-13 -22t5 -27.5zM408 845q10 -2 10 -13q0 -9 -8 -15l-185 -123l53 117q5 13 15.5 23.5t36.5 10.5h78z
M587 848q10 -2 10 -13q0 -9 -8 -15l-185 -123l53 117q5 13 15.5 23.5t36.5 10.5h78z" />
    <glyph glyph-name="uni04F3" unicode="&#x4f3;" horiz-adv-x="552" 
d="M282 433q-28 1 -42.5 -11t-14.5 -25q0 -5 2 -15t4 -15l94 -228l53 138q7 15 8.5 28.5t1.5 31.5q0 68 -59 96v14h206v-14q-23 -9 -46 -33.5t-41.5 -52t-31.5 -51t-16 -30.5l-182 -419q-6 -13 -16.5 -28t-25.5 -28t-34 -22t-40 -9q-18 0 -34.5 5.5t-29.5 15.5t-21 24t-8 32
q0 25 16.5 43.5t41.5 18.5q20 0 32.5 -8.5t22.5 -18.5t19 -18.5t22 -8.5q9 0 17 5t14.5 12.5t12 15.5t8.5 15l51 107l-173 388q-12 26 -30.5 35.5t-37.5 9.5v14h258zM313 630q10 -2 10 -13q0 -9 -8 -15l-185 -123l53 117q5 13 15.5 23.5t36.5 10.5h78zM480 631q10 -2 10 -13
q0 -9 -8 -15l-185 -123l53 117q5 13 15.5 23.5t36.5 10.5h78z" />
    <glyph glyph-name="uni04F4" unicode="&#x4f4;" horiz-adv-x="767" 
d="M416 22q18 0 36 3.5t32 12.5t23 24t9 38v212q-36 -29 -78.5 -44t-85.5 -17.5t-84.5 6.5t-74.5 27q-32 17 -53 47.5t-21 73.5v157q0 23 -9 39.5t-23 27t-32 15t-36 4.5v14h332v-14q-18 0 -36 -4.5t-32 -15t-23 -27t-9 -39.5v-156q0 -37 17.5 -62t44.5 -37.5t60 -13
t63 11.5q21 8 41.5 20.5t38.5 29.5v207q0 23 -9 39.5t-23 27t-32 15t-36 4.5v14h328v-14q-18 0 -36 -4.5t-32 -15t-23 -27t-9 -39.5v-462q0 -23 9 -38t23 -24t32 -12.5t36 -3.5v-22h-328v22v0zM235 771q0 24 17 41t41 17t41 -17t17 -41t-17 -41t-41 -17t-41 17t-17 41z
M396 771q0 24 17 41t41 17t41 -17t17 -41t-17 -41t-41 -17t-41 17t-17 41z" />
    <glyph glyph-name="uni04F5" unicode="&#x4f5;" horiz-adv-x="592" 
d="M485 88q0 -24 7 -38.5t18.5 -22.5t25 -10.5t27.5 -2.5v-14h-272v14q13 0 28 2.5t28 10.5t21 22.5t8 38.5v131q-12 -6 -32.5 -17.5t-46 -22t-55.5 -18.5t-62 -8q-36 0 -60 21t-24 69v114q0 24 -8 38.5t-20 22.5t-26.5 10.5t-27.5 2.5v14h262v-14q-14 0 -25.5 -2.5
t-20.5 -10.5t-14 -22.5t-5 -38.5v-78q0 -36 13.5 -51t36 -15.5t53 10t63.5 25.5v109q0 24 -6 38.5t-16 22.5t-23 10.5t-26 2.5v14h258v-14q-14 0 -27.5 -2.5t-25 -10.5t-18.5 -22.5t-7 -38.5zM152 547q0 24 17 41t41 17t41 -17t17 -41t-17 -41t-41 -17t-41 17t-17 41z
M313 547q0 24 17 41t41 17t41 -17t17 -41t-17 -41t-41 -17t-41 17t-17 41z" />
    <glyph glyph-name="uni04F8" unicode="&#x4f8;" horiz-adv-x="1096" 
d="M131 562q0 23 -9 39.5t-23.5 27t-32.5 15t-36 4.5v14h328v-14q-18 0 -36 -4.5t-32 -15t-23 -27t-9 -39.5v-184q61 0 103 -1t72.5 -4t53.5 -8t47 -13q30 -10 60.5 -26t54.5 -38t39.5 -51.5t15.5 -66.5q0 -44 -24 -76t-60.5 -53t-79 -31t-79.5 -10h-430v22q18 0 36 3.5
t32 12.5t23 24t9 38v462zM258 100q0 -47 18 -62.5t54 -15.5h81q26 0 53 12.5t48.5 34t34.5 50t13 60.5q-1 60 -27.5 94.5t-69 51.5t-96 21.5t-109.5 3.5v-250zM741 0v22q18 0 36 3.5t32 12.5t23 24t9 38v462q0 23 -9 39.5t-23 27t-32 15t-36 4.5v14h328v-14q-18 0 -36 -4.5
t-32 -15t-23 -27t-9 -39.5v-462q0 -23 9 -38t23 -24t32 -12.5t36 -3.5v-22h-328zM412 770q0 24 17 41t41 17t41 -17t17 -41t-17 -41t-41 -17t-41 17t-17 41zM573 770q0 24 17 41t41 17t41 -17t17 -41t-17 -41t-41 -17t-41 17t-17 41z" />
    <glyph glyph-name="uni04F9" unicode="&#x4f9;" horiz-adv-x="826" 
d="M719 88q0 -24 7 -38.5t18.5 -22.5t25 -10.5t27.5 -2.5v-14h-272v14q13 0 27.5 2.5t26.5 10.5t20 22.5t8 38.5v270q0 24 -8 38.5t-20 22.5t-26.5 10.5t-27.5 2.5v14h272v-14q-14 0 -27.5 -2.5t-25 -10.5t-18.5 -22.5t-7 -38.5v-270zM267 259h-51v-191q0 -32 12.5 -42.5
t38.5 -10.5h23q31 0 59 23t37 57q7 30 2 59t-20.5 52t-41.5 37.5t-59 15.5zM251 279q18 0 38 -2t37 -4t29.5 -3.5t15.5 -2.5q30 -7 59.5 -22t50.5 -38.5t29 -53.5t-5 -67q-8 -25 -28 -41.5t-44 -26.5t-49 -14t-43 -4h-319v14q13 0 27.5 2.5t26.5 10.5t20 22.5t8 38.5v53v217
q0 24 -8 38.5t-20 22.5t-26.5 10.5t-27.5 2.5v14h272v-14q-14 0 -27.5 -2.5t-25 -10.5t-18.5 -22.5t-7 -38.5v-79h35zM272 547q0 24 17 41t41 17t41 -17t17 -41t-17 -41t-41 -17t-41 17t-17 41zM433 547q0 24 17 41t41 17t41 -17t17 -41t-17 -41t-41 -17t-41 17t-17 41z" />
    <glyph glyph-name="endash" unicode="&#x2013;" 
d="M0 249h450v-77h-450v77z" />
    <glyph glyph-name="emdash" unicode="&#x2014;" horiz-adv-x="900" 
d="M900 249v-77h-900v77h900z" />
    <glyph glyph-name="quoteleft" unicode="&#x2018;" horiz-adv-x="263" 
d="M43 517q0 33 16 62.5t38.5 53t46.5 39t39 19.5v-14q-5 -2 -18.5 -12t-27.5 -24.5t-25 -32.5t-11 -37t9.5 -22.5t21.5 -3.5q23 0 39.5 -17t16.5 -40q0 -28 -20.5 -45.5t-48.5 -17.5q-18 0 -32 8t-23.5 20.5t-15 29t-5.5 34.5z" />
    <glyph glyph-name="quoteright" unicode="&#x2019;" horiz-adv-x="251" 
d="M208 599q0 -33 -16.5 -62.5t-39 -53t-46 -39t-38.5 -19.5v14q5 2 18.5 12t27.5 24.5t25 32.5t11 37t-9.5 22.5t-21.5 3.5q-23 0 -39.5 17t-16.5 40q0 28 20.5 45.5t48.5 17.5q18 0 32 -8t23.5 -20.5t15 -29t5.5 -34.5z" />
    <glyph glyph-name="quotesinglbase" unicode="&#x201a;" horiz-adv-x="251" 
d="M195 47q0 -34 -14.5 -64t-36 -53.5t-48 -39.5t-50.5 -22v14q14 4 28.5 13.5t26.5 22t19.5 29t7.5 35.5q0 11 -3.5 21.5t-14.5 10.5q-25 0 -43 13.5t-18 44.5t20 53t51 22q15 0 29 -8.5t24 -23t16 -32.5t6 -36z" />
    <glyph glyph-name="quotedblleft" unicode="&#x201c;" horiz-adv-x="451" 
d="M63 517q0 33 16 62.5t38.5 53t46.5 39t39 19.5v-14q-5 -2 -18.5 -12t-27.5 -24.5t-25 -32.5t-11 -37t9.5 -22.5t21.5 -3.5q23 0 39.5 -17t16.5 -40q0 -28 -20.5 -45.5t-48.5 -17.5q-18 0 -32 8t-23.5 20.5t-15 29t-5.5 34.5zM263 517q0 33 16 62.5t38.5 53t46.5 39
t39 19.5v-14q-5 -2 -18.5 -12t-27.5 -24.5t-25 -32.5t-11 -37t9.5 -22.5t21.5 -3.5q23 0 39.5 -17t16.5 -40q0 -28 -20.5 -45.5t-48.5 -17.5q-18 0 -32 8t-23.5 20.5t-15 29t-5.5 34.5z" />
    <glyph glyph-name="quotedblright" unicode="&#x201d;" horiz-adv-x="464" 
d="M388 599q0 -33 -16.5 -62.5t-39 -53t-46 -39t-38.5 -19.5v14q5 2 18.5 12t27.5 24.5t25 32.5t11 37t-9.5 22.5t-21.5 3.5q-23 0 -39.5 17t-16.5 40q0 28 20.5 45.5t48.5 17.5q18 0 32 -8t23.5 -20.5t15 -29t5.5 -34.5zM188 599q0 -33 -16.5 -62.5t-39 -53t-46 -39
t-38.5 -19.5v14q5 2 18.5 12t27.5 24.5t25 32.5t11 37t-9.5 22.5t-21.5 3.5q-23 0 -39.5 17t-16.5 40q0 28 20.5 45.5t48.5 17.5q18 0 32 -8t23.5 -20.5t15 -29t5.5 -34.5z" />
    <glyph glyph-name="quotedblbase" unicode="&#x201e;" horiz-adv-x="475" 
d="M419 47q0 -34 -14.5 -64t-36 -53.5t-48 -39.5t-50.5 -22v14q14 4 28.5 13.5t26.5 22t19.5 29t7.5 35.5q0 11 -3.5 21.5t-14.5 10.5q-25 0 -43 13.5t-18 44.5t20 53t51 22q15 0 29 -8.5t24 -23t16 -32.5t6 -36zM195 47q0 -34 -14.5 -64t-36 -53.5t-48 -39.5t-50.5 -22v14
q14 4 28.5 13.5t26.5 22t19.5 29t7.5 35.5q0 11 -3.5 21.5t-14.5 10.5q-25 0 -43 13.5t-18 44.5t20 53t51 22q15 0 29 -8.5t24 -23t16 -32.5t6 -36z" />
    <glyph glyph-name="ellipsis" unicode="&#x2026;" horiz-adv-x="650" 
d="M446 73q0 31 21.5 52.5t52.5 21.5t52.5 -21.5t21.5 -52.5t-21.5 -52.5t-52.5 -21.5t-52.5 21.5t-21.5 52.5zM246 73q0 31 21.5 52.5t52.5 21.5t52.5 -21.5t21.5 -52.5t-21.5 -52.5t-52.5 -21.5t-52.5 21.5t-21.5 52.5zM46 73q0 31 21.5 52.5t52.5 21.5t52.5 -21.5
t21.5 -52.5t-21.5 -52.5t-52.5 -21.5t-52.5 21.5t-21.5 52.5z" />
    <glyph glyph-name="guilsinglleft" unicode="&#x2039;" horiz-adv-x="313" 
d="M58 234l187 144v-11l-96 -133l96 -135v-10z" />
    <glyph glyph-name="guilsinglright" unicode="&#x203a;" horiz-adv-x="313" 
d="M255 233l-187 -144v11l96 133l-96 135v10z" />
    <glyph glyph-name="afii61352" unicode="&#x2116;" horiz-adv-x="1035" 
d="M174 531v-351q0 -23 9 -50.5t23.5 -51.5t33.5 -40t39 -16v-22h-245v22q18 0 37.5 16t35.5 40t26 51.5t10 50.5v317q0 23 -5 50t-17.5 49.5t-34.5 37t-56 14.5v14h209l344 -430v258q0 26 -11 54t-27.5 51t-34.5 38t-31 15v14h228v-14q-18 0 -36 -16t-32.5 -40t-23 -51.5
t-8.5 -50.5v-508zM727 221h250v-101h-250v101zM843 583q-25 0 -38.5 -13t-20 -33.5t-7.5 -46t-1 -49.5t1 -50t7.5 -47t20 -34.5t38.5 -13.5t38.5 13.5t20 34.5t7.5 47t1 50t-1 49.5t-7.5 46t-20 33.5t-38.5 13zM843 604q34 0 64 -13t52.5 -35.5t35.5 -52t13 -62.5t-13 -62.5
t-35.5 -52t-52.5 -35.5t-64 -13t-64 13t-53 35.5t-36.5 52t-13.5 62.5t13.5 62.5t36.5 52t53 35.5t64 13z" />
    <glyph glyph-name="glyph111" horiz-adv-x="339" 
d="M42 590q-1 5 -1 9.5v9.5q0 53 46 53q47 0 47 -53v-9.5t-1 -9.5l-36 -224h-19zM206 590q-1 5 -1 9.5v9.5q0 26 12.5 39.5t34.5 13.5t34.5 -13.5t12.5 -38.5q0 -5 -0.5 -10t-1.5 -10l-36 -224h-19z" />
    <glyph glyph-name="glyph112" horiz-adv-x="500" 
 />
    </font>
</defs>
</svg>
